<?xml version="1.0" encoding="utf-8" standalone="no"?>
<!DOCTYPE svg PUBLIC "-//W3C//DTD SVG 1.1//EN"
  "http://www.w3.org/Graphics/SVG/1.1/DTD/svg11.dtd">
<!-- Created with matplotlib (http://matplotlib.org/) -->
<svg height="432pt" version="1.1" viewBox="0 0 720 432" width="720pt" xmlns="http://www.w3.org/2000/svg" xmlns:xlink="http://www.w3.org/1999/xlink">
 <defs>
  <style type="text/css">
*{stroke-linecap:butt;stroke-linejoin:round;}
  </style>
 </defs>
 <g id="figure_1">
  <g id="patch_1">
   <path d="M 0 432 
L 720 432 
L 720 0 
L 0 0 
z
" style="fill:#ffffff;"/>
  </g>
  <g id="axes_1">
   <g id="patch_2">
    <path d="M 90 378 
L 648 378 
L 648 51.84 
L 90 51.84 
z
" style="fill:none;opacity:0;"/>
   </g>
   <g id="patch_3">
    <path d="M 90 378 
L 90 51.84 
" style="fill:none;stroke:#000000;stroke-linecap:square;stroke-linejoin:miter;stroke-width:0.8;"/>
   </g>
   <g id="LineCollection_1">
    <path clip-path="url(#p6117a846ee)" d="M 276.483117 51.84 
L 276.483117 378 
" style="fill:none;stroke:#000000;stroke-dasharray:3.7,1.6;stroke-dashoffset:0;"/>
    <path clip-path="url(#p6117a846ee)" d="M 338.322078 51.84 
L 338.322078 378 
" style="fill:none;stroke:#000000;stroke-dasharray:3.7,1.6;stroke-dashoffset:0;"/>
    <path clip-path="url(#p6117a846ee)" d="M 400.161039 51.84 
L 400.161039 378 
" style="fill:none;stroke:#000000;stroke-dasharray:3.7,1.6;stroke-dashoffset:0;"/>
    <path clip-path="url(#p6117a846ee)" d="M 523.838961 51.84 
L 523.838961 378 
" style="fill:none;stroke:#000000;stroke-dasharray:3.7,1.6;stroke-dashoffset:0;"/>
   </g>
   <g id="matplotlib.axis_1">
    <g id="xtick_1">
     <g id="line2d_1">
      <defs>
       <path d="M 0 0 
L 0 3.5 
" id="ma1e240eeb3" style="stroke:#000000;stroke-width:0.8;"/>
      </defs>
      <g>
       <use style="stroke:#000000;stroke-width:0.8;" x="152.805195" xlink:href="#ma1e240eeb3" y="378"/>
      </g>
     </g>
     <g id="text_1">
      <!-- 0.0 -->
      <defs>
       <path d="M 31.78125 66.40625 
Q 24.171875 66.40625 20.328125 58.90625 
Q 16.5 51.421875 16.5 36.375 
Q 16.5 21.390625 20.328125 13.890625 
Q 24.171875 6.390625 31.78125 6.390625 
Q 39.453125 6.390625 43.28125 13.890625 
Q 47.125 21.390625 47.125 36.375 
Q 47.125 51.421875 43.28125 58.90625 
Q 39.453125 66.40625 31.78125 66.40625 
z
M 31.78125 74.21875 
Q 44.046875 74.21875 50.515625 64.515625 
Q 56.984375 54.828125 56.984375 36.375 
Q 56.984375 17.96875 50.515625 8.265625 
Q 44.046875 -1.421875 31.78125 -1.421875 
Q 19.53125 -1.421875 13.0625 8.265625 
Q 6.59375 17.96875 6.59375 36.375 
Q 6.59375 54.828125 13.0625 64.515625 
Q 19.53125 74.21875 31.78125 74.21875 
z
" id="DejaVuSans-30"/>
       <path d="M 10.6875 12.40625 
L 21 12.40625 
L 21 0 
L 10.6875 0 
z
" id="DejaVuSans-2e"/>
      </defs>
      <g transform="translate(141.673007 395.637812)scale(0.14 -0.14)">
       <use xlink:href="#DejaVuSans-30"/>
       <use x="63.623047" xlink:href="#DejaVuSans-2e"/>
       <use x="95.410156" xlink:href="#DejaVuSans-30"/>
      </g>
     </g>
    </g>
    <g id="xtick_2">
     <g id="line2d_2">
      <g>
       <use style="stroke:#000000;stroke-width:0.8;" x="276.483117" xlink:href="#ma1e240eeb3" y="378"/>
      </g>
     </g>
     <g id="text_2">
      <!-- 0.2 -->
      <defs>
       <path d="M 19.1875 8.296875 
L 53.609375 8.296875 
L 53.609375 0 
L 7.328125 0 
L 7.328125 8.296875 
Q 12.9375 14.109375 22.625 23.890625 
Q 32.328125 33.6875 34.8125 36.53125 
Q 39.546875 41.84375 41.421875 45.53125 
Q 43.3125 49.21875 43.3125 52.78125 
Q 43.3125 58.59375 39.234375 62.25 
Q 35.15625 65.921875 28.609375 65.921875 
Q 23.96875 65.921875 18.8125 64.3125 
Q 13.671875 62.703125 7.8125 59.421875 
L 7.8125 69.390625 
Q 13.765625 71.78125 18.9375 73 
Q 24.125 74.21875 28.421875 74.21875 
Q 39.75 74.21875 46.484375 68.546875 
Q 53.21875 62.890625 53.21875 53.421875 
Q 53.21875 48.921875 51.53125 44.890625 
Q 49.859375 40.875 45.40625 35.40625 
Q 44.1875 33.984375 37.640625 27.21875 
Q 31.109375 20.453125 19.1875 8.296875 
z
" id="DejaVuSans-32"/>
      </defs>
      <g transform="translate(265.350929 395.637812)scale(0.14 -0.14)">
       <use xlink:href="#DejaVuSans-30"/>
       <use x="63.623047" xlink:href="#DejaVuSans-2e"/>
       <use x="95.410156" xlink:href="#DejaVuSans-32"/>
      </g>
     </g>
    </g>
    <g id="xtick_3">
     <g id="line2d_3">
      <g>
       <use style="stroke:#000000;stroke-width:0.8;" x="338.322078" xlink:href="#ma1e240eeb3" y="378"/>
      </g>
     </g>
     <g id="text_3">
      <!-- 0.3 -->
      <defs>
       <path d="M 40.578125 39.3125 
Q 47.65625 37.796875 51.625 33 
Q 55.609375 28.21875 55.609375 21.1875 
Q 55.609375 10.40625 48.1875 4.484375 
Q 40.765625 -1.421875 27.09375 -1.421875 
Q 22.515625 -1.421875 17.65625 -0.515625 
Q 12.796875 0.390625 7.625 2.203125 
L 7.625 11.71875 
Q 11.71875 9.328125 16.59375 8.109375 
Q 21.484375 6.890625 26.8125 6.890625 
Q 36.078125 6.890625 40.9375 10.546875 
Q 45.796875 14.203125 45.796875 21.1875 
Q 45.796875 27.640625 41.28125 31.265625 
Q 36.765625 34.90625 28.71875 34.90625 
L 20.21875 34.90625 
L 20.21875 43.015625 
L 29.109375 43.015625 
Q 36.375 43.015625 40.234375 45.921875 
Q 44.09375 48.828125 44.09375 54.296875 
Q 44.09375 59.90625 40.109375 62.90625 
Q 36.140625 65.921875 28.71875 65.921875 
Q 24.65625 65.921875 20.015625 65.03125 
Q 15.375 64.15625 9.8125 62.3125 
L 9.8125 71.09375 
Q 15.4375 72.65625 20.34375 73.4375 
Q 25.25 74.21875 29.59375 74.21875 
Q 40.828125 74.21875 47.359375 69.109375 
Q 53.90625 64.015625 53.90625 55.328125 
Q 53.90625 49.265625 50.4375 45.09375 
Q 46.96875 40.921875 40.578125 39.3125 
z
" id="DejaVuSans-33"/>
      </defs>
      <g transform="translate(327.18989 395.637812)scale(0.14 -0.14)">
       <use xlink:href="#DejaVuSans-30"/>
       <use x="63.623047" xlink:href="#DejaVuSans-2e"/>
       <use x="95.410156" xlink:href="#DejaVuSans-33"/>
      </g>
     </g>
    </g>
    <g id="xtick_4">
     <g id="line2d_4">
      <g>
       <use style="stroke:#000000;stroke-width:0.8;" x="400.161039" xlink:href="#ma1e240eeb3" y="378"/>
      </g>
     </g>
     <g id="text_4">
      <!-- 0.4 -->
      <defs>
       <path d="M 37.796875 64.3125 
L 12.890625 25.390625 
L 37.796875 25.390625 
z
M 35.203125 72.90625 
L 47.609375 72.90625 
L 47.609375 25.390625 
L 58.015625 25.390625 
L 58.015625 17.1875 
L 47.609375 17.1875 
L 47.609375 0 
L 37.796875 0 
L 37.796875 17.1875 
L 4.890625 17.1875 
L 4.890625 26.703125 
z
" id="DejaVuSans-34"/>
      </defs>
      <g transform="translate(389.028851 395.637812)scale(0.14 -0.14)">
       <use xlink:href="#DejaVuSans-30"/>
       <use x="63.623047" xlink:href="#DejaVuSans-2e"/>
       <use x="95.410156" xlink:href="#DejaVuSans-34"/>
      </g>
     </g>
    </g>
    <g id="xtick_5">
     <g id="line2d_5">
      <g>
       <use style="stroke:#000000;stroke-width:0.8;" x="400.161039" xlink:href="#ma1e240eeb3" y="378"/>
      </g>
     </g>
     <g id="text_5">
      <!-- 0.4 -->
      <g transform="translate(389.028851 395.637812)scale(0.14 -0.14)">
       <use xlink:href="#DejaVuSans-30"/>
       <use x="63.623047" xlink:href="#DejaVuSans-2e"/>
       <use x="95.410156" xlink:href="#DejaVuSans-34"/>
      </g>
     </g>
    </g>
    <g id="xtick_6">
     <g id="line2d_6">
      <g>
       <use style="stroke:#000000;stroke-width:0.8;" x="523.838961" xlink:href="#ma1e240eeb3" y="378"/>
      </g>
     </g>
     <g id="text_6">
      <!-- 0.6 -->
      <defs>
       <path d="M 33.015625 40.375 
Q 26.375 40.375 22.484375 35.828125 
Q 18.609375 31.296875 18.609375 23.390625 
Q 18.609375 15.53125 22.484375 10.953125 
Q 26.375 6.390625 33.015625 6.390625 
Q 39.65625 6.390625 43.53125 10.953125 
Q 47.40625 15.53125 47.40625 23.390625 
Q 47.40625 31.296875 43.53125 35.828125 
Q 39.65625 40.375 33.015625 40.375 
z
M 52.59375 71.296875 
L 52.59375 62.3125 
Q 48.875 64.0625 45.09375 64.984375 
Q 41.3125 65.921875 37.59375 65.921875 
Q 27.828125 65.921875 22.671875 59.328125 
Q 17.53125 52.734375 16.796875 39.40625 
Q 19.671875 43.65625 24.015625 45.921875 
Q 28.375 48.1875 33.59375 48.1875 
Q 44.578125 48.1875 50.953125 41.515625 
Q 57.328125 34.859375 57.328125 23.390625 
Q 57.328125 12.15625 50.6875 5.359375 
Q 44.046875 -1.421875 33.015625 -1.421875 
Q 20.359375 -1.421875 13.671875 8.265625 
Q 6.984375 17.96875 6.984375 36.375 
Q 6.984375 53.65625 15.1875 63.9375 
Q 23.390625 74.21875 37.203125 74.21875 
Q 40.921875 74.21875 44.703125 73.484375 
Q 48.484375 72.75 52.59375 71.296875 
z
" id="DejaVuSans-36"/>
      </defs>
      <g transform="translate(512.706774 395.637812)scale(0.14 -0.14)">
       <use xlink:href="#DejaVuSans-30"/>
       <use x="63.623047" xlink:href="#DejaVuSans-2e"/>
       <use x="95.410156" xlink:href="#DejaVuSans-36"/>
      </g>
     </g>
    </g>
    <g id="xtick_7">
     <g id="line2d_7">
      <g>
       <use style="stroke:#000000;stroke-width:0.8;" x="523.838961" xlink:href="#ma1e240eeb3" y="378"/>
      </g>
     </g>
     <g id="text_7">
      <!-- 0.6 -->
      <g transform="translate(512.706774 395.637812)scale(0.14 -0.14)">
       <use xlink:href="#DejaVuSans-30"/>
       <use x="63.623047" xlink:href="#DejaVuSans-2e"/>
       <use x="95.410156" xlink:href="#DejaVuSans-36"/>
      </g>
     </g>
    </g>
    <g id="xtick_8">
     <g id="line2d_8">
      <g>
       <use style="stroke:#000000;stroke-width:0.8;" x="647.516883" xlink:href="#ma1e240eeb3" y="378"/>
      </g>
     </g>
     <g id="text_8">
      <!-- 0.8 -->
      <defs>
       <path d="M 31.78125 34.625 
Q 24.75 34.625 20.71875 30.859375 
Q 16.703125 27.09375 16.703125 20.515625 
Q 16.703125 13.921875 20.71875 10.15625 
Q 24.75 6.390625 31.78125 6.390625 
Q 38.8125 6.390625 42.859375 10.171875 
Q 46.921875 13.96875 46.921875 20.515625 
Q 46.921875 27.09375 42.890625 30.859375 
Q 38.875 34.625 31.78125 34.625 
z
M 21.921875 38.8125 
Q 15.578125 40.375 12.03125 44.71875 
Q 8.5 49.078125 8.5 55.328125 
Q 8.5 64.0625 14.71875 69.140625 
Q 20.953125 74.21875 31.78125 74.21875 
Q 42.671875 74.21875 48.875 69.140625 
Q 55.078125 64.0625 55.078125 55.328125 
Q 55.078125 49.078125 51.53125 44.71875 
Q 48 40.375 41.703125 38.8125 
Q 48.828125 37.15625 52.796875 32.3125 
Q 56.78125 27.484375 56.78125 20.515625 
Q 56.78125 9.90625 50.3125 4.234375 
Q 43.84375 -1.421875 31.78125 -1.421875 
Q 19.734375 -1.421875 13.25 4.234375 
Q 6.78125 9.90625 6.78125 20.515625 
Q 6.78125 27.484375 10.78125 32.3125 
Q 14.796875 37.15625 21.921875 38.8125 
z
M 18.3125 54.390625 
Q 18.3125 48.734375 21.84375 45.5625 
Q 25.390625 42.390625 31.78125 42.390625 
Q 38.140625 42.390625 41.71875 45.5625 
Q 45.3125 48.734375 45.3125 54.390625 
Q 45.3125 60.0625 41.71875 63.234375 
Q 38.140625 66.40625 31.78125 66.40625 
Q 25.390625 66.40625 21.84375 63.234375 
Q 18.3125 60.0625 18.3125 54.390625 
z
" id="DejaVuSans-38"/>
      </defs>
      <g transform="translate(636.384696 395.637812)scale(0.14 -0.14)">
       <use xlink:href="#DejaVuSans-30"/>
       <use x="63.623047" xlink:href="#DejaVuSans-2e"/>
       <use x="95.410156" xlink:href="#DejaVuSans-38"/>
      </g>
     </g>
    </g>
    <g id="text_9">
     <!-- Time (s) -->
     <defs>
      <path d="M -0.296875 72.90625 
L 61.375 72.90625 
L 61.375 64.59375 
L 35.5 64.59375 
L 35.5 0 
L 25.59375 0 
L 25.59375 64.59375 
L -0.296875 64.59375 
z
" id="DejaVuSans-54"/>
      <path d="M 9.421875 54.6875 
L 18.40625 54.6875 
L 18.40625 0 
L 9.421875 0 
z
M 9.421875 75.984375 
L 18.40625 75.984375 
L 18.40625 64.59375 
L 9.421875 64.59375 
z
" id="DejaVuSans-69"/>
      <path d="M 52 44.1875 
Q 55.375 50.25 60.0625 53.125 
Q 64.75 56 71.09375 56 
Q 79.640625 56 84.28125 50.015625 
Q 88.921875 44.046875 88.921875 33.015625 
L 88.921875 0 
L 79.890625 0 
L 79.890625 32.71875 
Q 79.890625 40.578125 77.09375 44.375 
Q 74.3125 48.1875 68.609375 48.1875 
Q 61.625 48.1875 57.5625 43.546875 
Q 53.515625 38.921875 53.515625 30.90625 
L 53.515625 0 
L 44.484375 0 
L 44.484375 32.71875 
Q 44.484375 40.625 41.703125 44.40625 
Q 38.921875 48.1875 33.109375 48.1875 
Q 26.21875 48.1875 22.15625 43.53125 
Q 18.109375 38.875 18.109375 30.90625 
L 18.109375 0 
L 9.078125 0 
L 9.078125 54.6875 
L 18.109375 54.6875 
L 18.109375 46.1875 
Q 21.1875 51.21875 25.484375 53.609375 
Q 29.78125 56 35.6875 56 
Q 41.65625 56 45.828125 52.96875 
Q 50 49.953125 52 44.1875 
z
" id="DejaVuSans-6d"/>
      <path d="M 56.203125 29.59375 
L 56.203125 25.203125 
L 14.890625 25.203125 
Q 15.484375 15.921875 20.484375 11.0625 
Q 25.484375 6.203125 34.421875 6.203125 
Q 39.59375 6.203125 44.453125 7.46875 
Q 49.3125 8.734375 54.109375 11.28125 
L 54.109375 2.78125 
Q 49.265625 0.734375 44.1875 -0.34375 
Q 39.109375 -1.421875 33.890625 -1.421875 
Q 20.796875 -1.421875 13.15625 6.1875 
Q 5.515625 13.8125 5.515625 26.8125 
Q 5.515625 40.234375 12.765625 48.109375 
Q 20.015625 56 32.328125 56 
Q 43.359375 56 49.78125 48.890625 
Q 56.203125 41.796875 56.203125 29.59375 
z
M 47.21875 32.234375 
Q 47.125 39.59375 43.09375 43.984375 
Q 39.0625 48.390625 32.421875 48.390625 
Q 24.90625 48.390625 20.390625 44.140625 
Q 15.875 39.890625 15.1875 32.171875 
z
" id="DejaVuSans-65"/>
      <path id="DejaVuSans-20"/>
      <path d="M 31 75.875 
Q 24.46875 64.65625 21.28125 53.65625 
Q 18.109375 42.671875 18.109375 31.390625 
Q 18.109375 20.125 21.3125 9.0625 
Q 24.515625 -2 31 -13.1875 
L 23.1875 -13.1875 
Q 15.875 -1.703125 12.234375 9.375 
Q 8.59375 20.453125 8.59375 31.390625 
Q 8.59375 42.28125 12.203125 53.3125 
Q 15.828125 64.359375 23.1875 75.875 
z
" id="DejaVuSans-28"/>
      <path d="M 44.28125 53.078125 
L 44.28125 44.578125 
Q 40.484375 46.53125 36.375 47.5 
Q 32.28125 48.484375 27.875 48.484375 
Q 21.1875 48.484375 17.84375 46.4375 
Q 14.5 44.390625 14.5 40.28125 
Q 14.5 37.15625 16.890625 35.375 
Q 19.28125 33.59375 26.515625 31.984375 
L 29.59375 31.296875 
Q 39.15625 29.25 43.1875 25.515625 
Q 47.21875 21.78125 47.21875 15.09375 
Q 47.21875 7.46875 41.1875 3.015625 
Q 35.15625 -1.421875 24.609375 -1.421875 
Q 20.21875 -1.421875 15.453125 -0.5625 
Q 10.6875 0.296875 5.421875 2 
L 5.421875 11.28125 
Q 10.40625 8.6875 15.234375 7.390625 
Q 20.0625 6.109375 24.8125 6.109375 
Q 31.15625 6.109375 34.5625 8.28125 
Q 37.984375 10.453125 37.984375 14.40625 
Q 37.984375 18.0625 35.515625 20.015625 
Q 33.0625 21.96875 24.703125 23.78125 
L 21.578125 24.515625 
Q 13.234375 26.265625 9.515625 29.90625 
Q 5.8125 33.546875 5.8125 39.890625 
Q 5.8125 47.609375 11.28125 51.796875 
Q 16.75 56 26.8125 56 
Q 31.78125 56 36.171875 55.265625 
Q 40.578125 54.546875 44.28125 53.078125 
z
" id="DejaVuSans-73"/>
      <path d="M 8.015625 75.875 
L 15.828125 75.875 
Q 23.140625 64.359375 26.78125 53.3125 
Q 30.421875 42.28125 30.421875 31.390625 
Q 30.421875 20.453125 26.78125 9.375 
Q 23.140625 -1.703125 15.828125 -13.1875 
L 8.015625 -13.1875 
Q 14.5 -2 17.703125 9.0625 
Q 20.90625 20.125 20.90625 31.390625 
Q 20.90625 42.671875 17.703125 53.65625 
Q 14.5 64.65625 8.015625 75.875 
z
" id="DejaVuSans-29"/>
     </defs>
     <g transform="translate(340.324062 413.187187)scale(0.14 -0.14)">
      <use xlink:href="#DejaVuSans-54"/>
      <use x="61.037109" xlink:href="#DejaVuSans-69"/>
      <use x="88.820312" xlink:href="#DejaVuSans-6d"/>
      <use x="186.232422" xlink:href="#DejaVuSans-65"/>
      <use x="247.755859" xlink:href="#DejaVuSans-20"/>
      <use x="279.542969" xlink:href="#DejaVuSans-28"/>
      <use x="318.556641" xlink:href="#DejaVuSans-73"/>
      <use x="370.65625" xlink:href="#DejaVuSans-29"/>
     </g>
    </g>
   </g>
   <g id="matplotlib.axis_2">
    <g id="ytick_1">
     <g id="line2d_9">
      <defs>
       <path d="M 0 0 
L -3.5 0 
" id="md3d38be54b" style="stroke:#000000;stroke-width:0.8;"/>
      </defs>
      <g>
       <use style="stroke:#000000;stroke-width:0.8;" x="90" xlink:href="#md3d38be54b" y="378"/>
      </g>
     </g>
     <g id="text_10">
      <!-- −3 -->
      <defs>
       <path d="M 10.59375 35.5 
L 73.1875 35.5 
L 73.1875 27.203125 
L 10.59375 27.203125 
z
" id="DejaVuSans-2212"/>
      </defs>
      <g transform="translate(62.360937 383.318906)scale(0.14 -0.14)">
       <use xlink:href="#DejaVuSans-2212"/>
       <use x="83.789062" xlink:href="#DejaVuSans-33"/>
      </g>
     </g>
    </g>
    <g id="ytick_2">
     <g id="line2d_10">
      <g>
       <use style="stroke:#000000;stroke-width:0.8;" x="90" xlink:href="#md3d38be54b" y="337.23"/>
      </g>
     </g>
     <g id="text_11">
      <!-- −2 -->
      <g transform="translate(62.360937 342.548906)scale(0.14 -0.14)">
       <use xlink:href="#DejaVuSans-2212"/>
       <use x="83.789062" xlink:href="#DejaVuSans-32"/>
      </g>
     </g>
    </g>
    <g id="ytick_3">
     <g id="line2d_11">
      <g>
       <use style="stroke:#000000;stroke-width:0.8;" x="90" xlink:href="#md3d38be54b" y="296.46"/>
      </g>
     </g>
     <g id="text_12">
      <!-- −1 -->
      <defs>
       <path d="M 12.40625 8.296875 
L 28.515625 8.296875 
L 28.515625 63.921875 
L 10.984375 60.40625 
L 10.984375 69.390625 
L 28.421875 72.90625 
L 38.28125 72.90625 
L 38.28125 8.296875 
L 54.390625 8.296875 
L 54.390625 0 
L 12.40625 0 
z
" id="DejaVuSans-31"/>
      </defs>
      <g transform="translate(62.360937 301.778906)scale(0.14 -0.14)">
       <use xlink:href="#DejaVuSans-2212"/>
       <use x="83.789062" xlink:href="#DejaVuSans-31"/>
      </g>
     </g>
    </g>
    <g id="ytick_4">
     <g id="line2d_12">
      <g>
       <use style="stroke:#000000;stroke-width:0.8;" x="90" xlink:href="#md3d38be54b" y="255.69"/>
      </g>
     </g>
     <g id="text_13">
      <!-- 0 -->
      <g transform="translate(74.0925 261.008906)scale(0.14 -0.14)">
       <use xlink:href="#DejaVuSans-30"/>
      </g>
     </g>
    </g>
    <g id="ytick_5">
     <g id="line2d_13">
      <g>
       <use style="stroke:#000000;stroke-width:0.8;" x="90" xlink:href="#md3d38be54b" y="214.92"/>
      </g>
     </g>
     <g id="text_14">
      <!-- 1 -->
      <g transform="translate(74.0925 220.238906)scale(0.14 -0.14)">
       <use xlink:href="#DejaVuSans-31"/>
      </g>
     </g>
    </g>
    <g id="ytick_6">
     <g id="line2d_14">
      <g>
       <use style="stroke:#000000;stroke-width:0.8;" x="90" xlink:href="#md3d38be54b" y="174.15"/>
      </g>
     </g>
     <g id="text_15">
      <!-- 2 -->
      <g transform="translate(74.0925 179.468906)scale(0.14 -0.14)">
       <use xlink:href="#DejaVuSans-32"/>
      </g>
     </g>
    </g>
    <g id="ytick_7">
     <g id="line2d_15">
      <g>
       <use style="stroke:#000000;stroke-width:0.8;" x="90" xlink:href="#md3d38be54b" y="133.38"/>
      </g>
     </g>
     <g id="text_16">
      <!-- 3 -->
      <g transform="translate(74.0925 138.698906)scale(0.14 -0.14)">
       <use xlink:href="#DejaVuSans-33"/>
      </g>
     </g>
    </g>
    <g id="ytick_8">
     <g id="line2d_16">
      <g>
       <use style="stroke:#000000;stroke-width:0.8;" x="90" xlink:href="#md3d38be54b" y="92.61"/>
      </g>
     </g>
     <g id="text_17">
      <!-- 4 -->
      <g transform="translate(74.0925 97.928906)scale(0.14 -0.14)">
       <use xlink:href="#DejaVuSans-34"/>
      </g>
     </g>
    </g>
    <g id="ytick_9">
     <g id="line2d_17">
      <g>
       <use style="stroke:#000000;stroke-width:0.8;" x="90" xlink:href="#md3d38be54b" y="51.84"/>
      </g>
     </g>
     <g id="text_18">
      <!-- 5 -->
      <defs>
       <path d="M 10.796875 72.90625 
L 49.515625 72.90625 
L 49.515625 64.59375 
L 19.828125 64.59375 
L 19.828125 46.734375 
Q 21.96875 47.46875 24.109375 47.828125 
Q 26.265625 48.1875 28.421875 48.1875 
Q 40.625 48.1875 47.75 41.5 
Q 54.890625 34.8125 54.890625 23.390625 
Q 54.890625 11.625 47.5625 5.09375 
Q 40.234375 -1.421875 26.90625 -1.421875 
Q 22.3125 -1.421875 17.546875 -0.640625 
Q 12.796875 0.140625 7.71875 1.703125 
L 7.71875 11.625 
Q 12.109375 9.234375 16.796875 8.0625 
Q 21.484375 6.890625 26.703125 6.890625 
Q 35.15625 6.890625 40.078125 11.328125 
Q 45.015625 15.765625 45.015625 23.390625 
Q 45.015625 31 40.078125 35.4375 
Q 35.15625 39.890625 26.703125 39.890625 
Q 22.75 39.890625 18.8125 39.015625 
Q 14.890625 38.140625 10.796875 36.28125 
z
" id="DejaVuSans-35"/>
      </defs>
      <g transform="translate(74.0925 57.158906)scale(0.14 -0.14)">
       <use xlink:href="#DejaVuSans-35"/>
      </g>
     </g>
    </g>
    <g id="text_19">
     <!-- uV -->
     <defs>
      <path d="M 8.5 21.578125 
L 8.5 54.6875 
L 17.484375 54.6875 
L 17.484375 21.921875 
Q 17.484375 14.15625 20.5 10.265625 
Q 23.53125 6.390625 29.59375 6.390625 
Q 36.859375 6.390625 41.078125 11.03125 
Q 45.3125 15.671875 45.3125 23.6875 
L 45.3125 54.6875 
L 54.296875 54.6875 
L 54.296875 0 
L 45.3125 0 
L 45.3125 8.40625 
Q 42.046875 3.421875 37.71875 1 
Q 33.40625 -1.421875 27.6875 -1.421875 
Q 18.265625 -1.421875 13.375 4.4375 
Q 8.5 10.296875 8.5 21.578125 
z
M 31.109375 56 
z
" id="DejaVuSans-75"/>
      <path d="M 28.609375 0 
L 0.78125 72.90625 
L 11.078125 72.90625 
L 34.1875 11.53125 
L 57.328125 72.90625 
L 67.578125 72.90625 
L 39.796875 0 
z
" id="DejaVuSans-56"/>
     </defs>
     <g transform="translate(55.449375 224.144687)rotate(-90)scale(0.14 -0.14)">
      <use xlink:href="#DejaVuSans-75"/>
      <use x="63.378906" xlink:href="#DejaVuSans-56"/>
     </g>
    </g>
   </g>
   <g id="patch_4">
    <path d="M 152.805195 378 
L 647.516883 378 
" style="fill:none;stroke:#000000;stroke-linecap:square;stroke-linejoin:miter;stroke-width:0.8;"/>
   </g>
   <g id="patch_5">
    <path d="M 90 255.69 
L 648 255.69 
" style="fill:none;stroke:#000000;stroke-linecap:square;stroke-linejoin:miter;stroke-width:0.8;"/>
   </g>
   <g id="text_20">
    <!-- TP9, TP10 (mean) -->
    <defs>
     <path d="M 19.671875 64.796875 
L 19.671875 37.40625 
L 32.078125 37.40625 
Q 38.96875 37.40625 42.71875 40.96875 
Q 46.484375 44.53125 46.484375 51.125 
Q 46.484375 57.671875 42.71875 61.234375 
Q 38.96875 64.796875 32.078125 64.796875 
z
M 9.8125 72.90625 
L 32.078125 72.90625 
Q 44.34375 72.90625 50.609375 67.359375 
Q 56.890625 61.8125 56.890625 51.125 
Q 56.890625 40.328125 50.609375 34.8125 
Q 44.34375 29.296875 32.078125 29.296875 
L 19.671875 29.296875 
L 19.671875 0 
L 9.8125 0 
z
" id="DejaVuSans-50"/>
     <path d="M 10.984375 1.515625 
L 10.984375 10.5 
Q 14.703125 8.734375 18.5 7.8125 
Q 22.3125 6.890625 25.984375 6.890625 
Q 35.75 6.890625 40.890625 13.453125 
Q 46.046875 20.015625 46.78125 33.40625 
Q 43.953125 29.203125 39.59375 26.953125 
Q 35.25 24.703125 29.984375 24.703125 
Q 19.046875 24.703125 12.671875 31.3125 
Q 6.296875 37.9375 6.296875 49.421875 
Q 6.296875 60.640625 12.9375 67.421875 
Q 19.578125 74.21875 30.609375 74.21875 
Q 43.265625 74.21875 49.921875 64.515625 
Q 56.59375 54.828125 56.59375 36.375 
Q 56.59375 19.140625 48.40625 8.859375 
Q 40.234375 -1.421875 26.421875 -1.421875 
Q 22.703125 -1.421875 18.890625 -0.6875 
Q 15.09375 0.046875 10.984375 1.515625 
z
M 30.609375 32.421875 
Q 37.25 32.421875 41.125 36.953125 
Q 45.015625 41.5 45.015625 49.421875 
Q 45.015625 57.28125 41.125 61.84375 
Q 37.25 66.40625 30.609375 66.40625 
Q 23.96875 66.40625 20.09375 61.84375 
Q 16.21875 57.28125 16.21875 49.421875 
Q 16.21875 41.5 20.09375 36.953125 
Q 23.96875 32.421875 30.609375 32.421875 
z
" id="DejaVuSans-39"/>
     <path d="M 11.71875 12.40625 
L 22.015625 12.40625 
L 22.015625 4 
L 14.015625 -11.625 
L 7.71875 -11.625 
L 11.71875 4 
z
" id="DejaVuSans-2c"/>
     <path d="M 34.28125 27.484375 
Q 23.390625 27.484375 19.1875 25 
Q 14.984375 22.515625 14.984375 16.5 
Q 14.984375 11.71875 18.140625 8.90625 
Q 21.296875 6.109375 26.703125 6.109375 
Q 34.1875 6.109375 38.703125 11.40625 
Q 43.21875 16.703125 43.21875 25.484375 
L 43.21875 27.484375 
z
M 52.203125 31.203125 
L 52.203125 0 
L 43.21875 0 
L 43.21875 8.296875 
Q 40.140625 3.328125 35.546875 0.953125 
Q 30.953125 -1.421875 24.3125 -1.421875 
Q 15.921875 -1.421875 10.953125 3.296875 
Q 6 8.015625 6 15.921875 
Q 6 25.140625 12.171875 29.828125 
Q 18.359375 34.515625 30.609375 34.515625 
L 43.21875 34.515625 
L 43.21875 35.40625 
Q 43.21875 41.609375 39.140625 45 
Q 35.0625 48.390625 27.6875 48.390625 
Q 23 48.390625 18.546875 47.265625 
Q 14.109375 46.140625 10.015625 43.890625 
L 10.015625 52.203125 
Q 14.9375 54.109375 19.578125 55.046875 
Q 24.21875 56 28.609375 56 
Q 40.484375 56 46.34375 49.84375 
Q 52.203125 43.703125 52.203125 31.203125 
z
" id="DejaVuSans-61"/>
     <path d="M 54.890625 33.015625 
L 54.890625 0 
L 45.90625 0 
L 45.90625 32.71875 
Q 45.90625 40.484375 42.875 44.328125 
Q 39.84375 48.1875 33.796875 48.1875 
Q 26.515625 48.1875 22.3125 43.546875 
Q 18.109375 38.921875 18.109375 30.90625 
L 18.109375 0 
L 9.078125 0 
L 9.078125 54.6875 
L 18.109375 54.6875 
L 18.109375 46.1875 
Q 21.34375 51.125 25.703125 53.5625 
Q 30.078125 56 35.796875 56 
Q 45.21875 56 50.046875 50.171875 
Q 54.890625 44.34375 54.890625 33.015625 
z
" id="DejaVuSans-6e"/>
    </defs>
    <g transform="translate(306.658437 45.84)scale(0.14 -0.14)">
     <use xlink:href="#DejaVuSans-54"/>
     <use x="61.083984" xlink:href="#DejaVuSans-50"/>
     <use x="121.386719" xlink:href="#DejaVuSans-39"/>
     <use x="185.009766" xlink:href="#DejaVuSans-2c"/>
     <use x="216.796875" xlink:href="#DejaVuSans-20"/>
     <use x="248.583984" xlink:href="#DejaVuSans-54"/>
     <use x="309.667969" xlink:href="#DejaVuSans-50"/>
     <use x="369.970703" xlink:href="#DejaVuSans-31"/>
     <use x="433.59375" xlink:href="#DejaVuSans-30"/>
     <use x="497.216797" xlink:href="#DejaVuSans-20"/>
     <use x="529.003906" xlink:href="#DejaVuSans-28"/>
     <use x="568.017578" xlink:href="#DejaVuSans-6d"/>
     <use x="665.429688" xlink:href="#DejaVuSans-65"/>
     <use x="726.953125" xlink:href="#DejaVuSans-61"/>
     <use x="788.232422" xlink:href="#DejaVuSans-6e"/>
     <use x="851.611328" xlink:href="#DejaVuSans-29"/>
    </g>
   </g>
   <g id="PolyCollection_1">
    <defs>
     <path d="M 90 -200.048751 
L 90 -170.789381 
L 92.415584 -170.223493 
L 94.831169 -169.828184 
L 97.246753 -169.602323 
L 99.662338 -169.76196 
L 102.077922 -169.764509 
L 104.493506 -169.588527 
L 106.909091 -169.114518 
L 109.324675 -168.699831 
L 111.74026 -168.254484 
L 114.155844 -168.030874 
L 116.571429 -168.253967 
L 118.987013 -168.602995 
L 121.402597 -169.722344 
L 123.818182 -170.695341 
L 126.233766 -171.415633 
L 128.649351 -170.878593 
L 131.064935 -168.857033 
L 133.480519 -165.593783 
L 135.896104 -161.96106 
L 138.311688 -158.380713 
L 140.727273 -155.296332 
L 143.142857 -153.192977 
L 145.558442 -151.724585 
L 147.974026 -150.42775 
L 150.38961 -149.228807 
L 152.805195 -148.542399 
L 155.220779 -147.888612 
L 157.636364 -147.496342 
L 160.051948 -146.219254 
L 162.467532 -143.964605 
L 164.883117 -141.81717 
L 167.298701 -139.330816 
L 169.714286 -136.105808 
L 172.12987 -131.989725 
L 174.545455 -127.799703 
L 176.961039 -124.454765 
L 179.376623 -123.125934 
L 181.792208 -122.656542 
L 184.207792 -122.675079 
L 186.623377 -125.424865 
L 189.038961 -128.133327 
L 191.454545 -131.440636 
L 193.87013 -134.076805 
L 196.285714 -135.963302 
L 198.701299 -137.084071 
L 201.116883 -136.527101 
L 203.532468 -135.311244 
L 205.948052 -133.908401 
L 208.363636 -131.700091 
L 210.779221 -130.04717 
L 213.194805 -129.045022 
L 215.61039 -128.65397 
L 218.025974 -128.920314 
L 220.441558 -130.216848 
L 222.857143 -131.299823 
L 225.272727 -132.834611 
L 227.688312 -134.045274 
L 230.103896 -135.84128 
L 232.519481 -137.919631 
L 234.935065 -141.737311 
L 237.350649 -147.119825 
L 239.766234 -154.739891 
L 242.181818 -164.431663 
L 244.597403 -174.411841 
L 247.012987 -185.150337 
L 249.428571 -195.942054 
L 251.844156 -205.099205 
L 254.25974 -211.110899 
L 256.675325 -214.386085 
L 259.090909 -214.414654 
L 261.506494 -214.015639 
L 263.922078 -211.669943 
L 266.337662 -209.468488 
L 268.753247 -207.644984 
L 271.168831 -205.601322 
L 273.584416 -205.443032 
L 276 -206.127401 
L 278.415584 -207.290713 
L 280.831169 -209.507316 
L 283.246753 -213.209903 
L 285.662338 -216.614432 
L 288.077922 -219.946305 
L 290.493506 -224.480028 
L 292.909091 -229.735126 
L 295.324675 -236.791458 
L 297.74026 -244.296347 
L 300.155844 -253.279455 
L 302.571429 -261.537805 
L 304.987013 -268.387988 
L 307.402597 -274.619388 
L 309.818182 -278.967166 
L 312.233766 -281.335006 
L 314.649351 -280.891954 
L 317.064935 -279.484646 
L 319.480519 -276.665165 
L 321.896104 -272.147743 
L 324.311688 -267.403806 
L 326.727273 -261.8892 
L 329.142857 -256.315432 
L 331.558442 -250.596877 
L 333.974026 -245.231265 
L 336.38961 -239.31263 
L 338.805195 -233.745546 
L 341.220779 -228.219775 
L 343.636364 -222.321309 
L 346.051948 -216.175301 
L 348.467532 -210.891559 
L 350.883117 -206.780695 
L 353.298701 -203.199955 
L 355.714286 -201.708888 
L 358.12987 -201.013534 
L 360.545455 -201.110934 
L 362.961039 -201.427456 
L 365.376623 -202.446784 
L 367.792208 -203.791686 
L 370.207792 -205.183219 
L 372.623377 -206.541942 
L 375.038961 -207.929797 
L 377.454545 -209.633081 
L 379.87013 -212.075389 
L 382.285714 -214.841409 
L 384.701299 -218.141743 
L 387.116883 -221.925714 
L 389.532468 -224.828867 
L 391.948052 -227.161342 
L 394.363636 -227.485574 
L 396.779221 -226.432118 
L 399.194805 -222.630555 
L 401.61039 -216.778344 
L 404.025974 -208.726031 
L 406.441558 -200.040793 
L 408.857143 -190.581707 
L 411.272727 -181.501427 
L 413.688312 -173.886446 
L 416.103896 -167.992527 
L 418.519481 -163.975257 
L 420.935065 -160.624588 
L 423.350649 -159.273651 
L 425.766234 -157.868147 
L 428.181818 -158.567713 
L 430.597403 -159.090355 
L 433.012987 -159.935514 
L 435.428571 -160.546621 
L 437.844156 -159.828485 
L 440.25974 -159.196091 
L 442.675325 -157.661389 
L 445.090909 -156.905016 
L 447.506494 -155.691021 
L 449.922078 -155.976064 
L 452.337662 -154.48169 
L 454.753247 -153.48442 
L 457.168831 -153.733814 
L 459.584416 -154.276486 
L 462 -154.044662 
L 464.415584 -154.587137 
L 466.831169 -154.665307 
L 469.246753 -154.344611 
L 471.662338 -154.697461 
L 474.077922 -155.008804 
L 476.493506 -155.969295 
L 478.909091 -157.002961 
L 481.324675 -156.839903 
L 483.74026 -156.709596 
L 486.155844 -154.982861 
L 488.571429 -151.485203 
L 490.987013 -147.476449 
L 493.402597 -143.573391 
L 495.818182 -139.5356 
L 498.233766 -135.592723 
L 500.649351 -132.878839 
L 503.064935 -130.80638 
L 505.480519 -130.295227 
L 507.896104 -130.198297 
L 510.311688 -131.818655 
L 512.727273 -132.891904 
L 515.142857 -134.737336 
L 517.558442 -137.347449 
L 519.974026 -139.939788 
L 522.38961 -142.224201 
L 524.805195 -144.137898 
L 527.220779 -146.677844 
L 529.636364 -148.716186 
L 532.051948 -149.689872 
L 534.467532 -150.567625 
L 536.883117 -151.270305 
L 539.298701 -151.646033 
L 541.714286 -151.962435 
L 544.12987 -151.312318 
L 546.545455 -150.234741 
L 548.961039 -149.397977 
L 551.376623 -148.801525 
L 553.792208 -149.139448 
L 556.207792 -150.313531 
L 558.623377 -152.982982 
L 561.038961 -156.999045 
L 563.454545 -161.197584 
L 565.87013 -164.156127 
L 568.285714 -165.968644 
L 570.701299 -166.052005 
L 573.116883 -165.254565 
L 575.532468 -162.747987 
L 577.948052 -158.414286 
L 580.363636 -154.308134 
L 582.779221 -149.497526 
L 585.194805 -145.273726 
L 587.61039 -142.990871 
L 590.025974 -143.174108 
L 592.441558 -145.286618 
L 594.857143 -148.240603 
L 597.272727 -152.434634 
L 599.688312 -156.729841 
L 602.103896 -159.610789 
L 604.519481 -162.059656 
L 606.935065 -164.570436 
L 609.350649 -166.7555 
L 611.766234 -169.298075 
L 614.181818 -171.202085 
L 616.597403 -174.183291 
L 619.012987 -177.960145 
L 621.428571 -181.571458 
L 623.844156 -185.150831 
L 626.25974 -189.376109 
L 628.675325 -193.965709 
L 631.090909 -198.151813 
L 633.506494 -201.13966 
L 635.922078 -204.32531 
L 638.337662 -207.069036 
L 640.753247 -208.594706 
L 643.168831 -210.431998 
L 645.584416 -211.529904 
L 648 -212.741685 
L 648 -245.356635 
L 648 -245.356635 
L 645.584416 -242.849732 
L 643.168831 -240.322165 
L 640.753247 -238.247734 
L 638.337662 -237.103526 
L 635.922078 -235.412182 
L 633.506494 -233.529402 
L 631.090909 -232.002262 
L 628.675325 -230.062101 
L 626.25974 -227.207352 
L 623.844156 -225.601099 
L 621.428571 -223.271452 
L 619.012987 -221.367455 
L 616.597403 -218.795497 
L 614.181818 -216.916437 
L 611.766234 -214.60873 
L 609.350649 -212.123568 
L 606.935065 -210.403628 
L 604.519481 -207.956108 
L 602.103896 -205.224795 
L 599.688312 -202.407701 
L 597.272727 -198.752473 
L 594.857143 -195.867372 
L 592.441558 -193.600929 
L 590.025974 -191.72926 
L 587.61039 -190.500396 
L 585.194805 -190.755586 
L 582.779221 -191.743516 
L 580.363636 -193.300301 
L 577.948052 -195.345486 
L 575.532468 -197.684344 
L 573.116883 -199.954172 
L 570.701299 -200.864848 
L 568.285714 -200.227996 
L 565.87013 -198.762094 
L 563.454545 -196.526784 
L 561.038961 -194.319115 
L 558.623377 -192.084828 
L 556.207792 -190.451614 
L 553.792208 -189.286163 
L 551.376623 -188.955402 
L 548.961039 -190.503102 
L 546.545455 -193.669221 
L 544.12987 -197.558784 
L 541.714286 -201.741436 
L 539.298701 -205.033452 
L 536.883117 -206.165524 
L 534.467532 -205.220868 
L 532.051948 -201.310484 
L 529.636364 -196.049127 
L 527.220779 -190.309184 
L 524.805195 -184.166153 
L 522.38961 -179.893396 
L 519.974026 -176.717513 
L 517.558442 -174.994081 
L 515.142857 -174.474413 
L 512.727273 -175.166594 
L 510.311688 -177.026106 
L 507.896104 -180.059776 
L 505.480519 -183.028496 
L 503.064935 -186.24854 
L 500.649351 -189.304314 
L 498.233766 -192.19112 
L 495.818182 -194.758 
L 493.402597 -196.914464 
L 490.987013 -200.261029 
L 488.571429 -202.618718 
L 486.155844 -204.581182 
L 483.74026 -205.889068 
L 481.324675 -206.137024 
L 478.909091 -206.087476 
L 476.493506 -205.434255 
L 474.077922 -204.738192 
L 471.662338 -203.925958 
L 469.246753 -203.184047 
L 466.831169 -203.55693 
L 464.415584 -203.76017 
L 462 -204.840187 
L 459.584416 -206.464164 
L 457.168831 -208.262235 
L 454.753247 -210.630266 
L 452.337662 -213.170216 
L 449.922078 -215.3549 
L 447.506494 -216.998349 
L 445.090909 -218.403216 
L 442.675325 -219.611209 
L 440.25974 -220.462959 
L 437.844156 -221.748364 
L 435.428571 -222.205463 
L 433.012987 -223.496232 
L 430.597403 -224.945822 
L 428.181818 -226.511748 
L 425.766234 -228.52964 
L 423.350649 -230.669021 
L 420.935065 -233.730717 
L 418.519481 -236.811903 
L 416.103896 -241.003985 
L 413.688312 -245.54037 
L 411.272727 -250.864853 
L 408.857143 -256.089873 
L 406.441558 -261.77174 
L 404.025974 -268.117897 
L 401.61039 -273.26598 
L 399.194805 -276.789618 
L 396.779221 -279.025191 
L 394.363636 -279.542462 
L 391.948052 -278.278402 
L 389.532468 -276.033481 
L 387.116883 -272.785118 
L 384.701299 -268.920498 
L 382.285714 -264.462866 
L 379.87013 -260.607655 
L 377.454545 -256.723316 
L 375.038961 -253.534403 
L 372.623377 -251.007121 
L 370.207792 -248.963538 
L 367.792208 -246.784684 
L 365.376623 -245.089175 
L 362.961039 -243.422503 
L 360.545455 -242.663624 
L 358.12987 -242.745039 
L 355.714286 -244.075227 
L 353.298701 -247.55423 
L 350.883117 -251.933485 
L 348.467532 -257.085975 
L 346.051948 -263.579302 
L 343.636364 -270.613683 
L 341.220779 -277.279164 
L 338.805195 -283.892206 
L 336.38961 -290.252447 
L 333.974026 -295.771733 
L 331.558442 -301.260048 
L 329.142857 -307.40128 
L 326.727273 -314.291282 
L 324.311688 -321.227626 
L 321.896104 -328.420986 
L 319.480519 -335.335959 
L 317.064935 -340.358436 
L 314.649351 -344.132624 
L 312.233766 -345.305678 
L 309.818182 -344.927296 
L 307.402597 -341.0362 
L 304.987013 -336.384616 
L 302.571429 -330.376198 
L 300.155844 -324.868529 
L 297.74026 -320.214477 
L 295.324675 -317.069093 
L 292.909091 -313.297823 
L 290.493506 -311.563856 
L 288.077922 -309.822572 
L 285.662338 -308.443534 
L 283.246753 -306.381567 
L 280.831169 -303.806001 
L 278.415584 -301.025963 
L 276 -298.163186 
L 273.584416 -295.715695 
L 271.168831 -293.587713 
L 268.753247 -290.439955 
L 266.337662 -289.335464 
L 263.922078 -287.128506 
L 261.506494 -285.444156 
L 259.090909 -283.113835 
L 256.675325 -278.514839 
L 254.25974 -271.681421 
L 251.844156 -263.025378 
L 249.428571 -252.705077 
L 247.012987 -240.956982 
L 244.597403 -228.373936 
L 242.181818 -216.263575 
L 239.766234 -205.041046 
L 237.350649 -195.807405 
L 234.935065 -188.709631 
L 232.519481 -183.809026 
L 230.103896 -180.387676 
L 227.688312 -178.483993 
L 225.272727 -178.010211 
L 222.857143 -177.49079 
L 220.441558 -177.624877 
L 218.025974 -177.425072 
L 215.61039 -177.632311 
L 213.194805 -177.943203 
L 210.779221 -178.297913 
L 208.363636 -178.882564 
L 205.948052 -179.119366 
L 203.532468 -179.810865 
L 201.116883 -181.298081 
L 198.701299 -182.290702 
L 196.285714 -182.720034 
L 193.87013 -182.41886 
L 191.454545 -181.309199 
L 189.038961 -180.167647 
L 186.623377 -178.977849 
L 184.207792 -178.739469 
L 181.792208 -178.475762 
L 179.376623 -179.293402 
L 176.961039 -179.930897 
L 174.545455 -179.550542 
L 172.12987 -179.11185 
L 169.714286 -177.980633 
L 167.298701 -177.221901 
L 164.883117 -176.832796 
L 162.467532 -175.604186 
L 160.051948 -175.127874 
L 157.636364 -175.083673 
L 155.220779 -174.943526 
L 152.805195 -175.293695 
L 150.38961 -175.680578 
L 147.974026 -176.252686 
L 145.558442 -177.389889 
L 143.142857 -178.976122 
L 140.727273 -181.025592 
L 138.311688 -183.145545 
L 135.896104 -185.173458 
L 133.480519 -186.630995 
L 131.064935 -187.683538 
L 128.649351 -188.114034 
L 126.233766 -188.453834 
L 123.818182 -189.05763 
L 121.402597 -189.838197 
L 118.987013 -190.367039 
L 116.571429 -190.221154 
L 114.155844 -190.112047 
L 111.74026 -189.563633 
L 109.324675 -189.149173 
L 106.909091 -189.097793 
L 104.493506 -189.735385 
L 102.077922 -190.645407 
L 99.662338 -192.130692 
L 97.246753 -193.911339 
L 94.831169 -195.880989 
L 92.415584 -197.817575 
L 90 -200.048751 
z
" id="md232f029ad" style="stroke:#ff0000;stroke-opacity:0.3;"/>
    </defs>
    <g>
     <use style="fill:#ff0000;fill-opacity:0.3;stroke:#ff0000;stroke-opacity:0.3;" x="0" xlink:href="#md232f029ad" y="432"/>
    </g>
   </g>
   <g id="PolyCollection_2">
    <defs>
     <path d="M 90 -187.416995 
L 90 -160.310239 
L 92.415584 -160.498016 
L 94.831169 -160.735399 
L 97.246753 -160.786154 
L 99.662338 -160.67165 
L 102.077922 -160.308809 
L 104.493506 -160.653224 
L 106.909091 -161.015574 
L 109.324675 -161.98889 
L 111.74026 -163.627766 
L 114.155844 -166.098113 
L 116.571429 -168.042684 
L 118.987013 -168.993045 
L 121.402597 -169.42979 
L 123.818182 -169.077686 
L 126.233766 -168.570499 
L 128.649351 -167.478838 
L 131.064935 -167.34747 
L 133.480519 -166.978569 
L 135.896104 -166.940601 
L 138.311688 -166.481384 
L 140.727273 -165.952142 
L 143.142857 -165.447428 
L 145.558442 -163.823716 
L 147.974026 -161.787024 
L 150.38961 -159.468386 
L 152.805195 -157.265319 
L 155.220779 -155.447666 
L 157.636364 -154.077005 
L 160.051948 -152.712422 
L 162.467532 -152.405108 
L 164.883117 -152.479298 
L 167.298701 -152.438491 
L 169.714286 -152.941679 
L 172.12987 -152.67224 
L 174.545455 -153.383592 
L 176.961039 -154.283534 
L 179.376623 -155.867205 
L 181.792208 -157.891379 
L 184.207792 -161.050883 
L 186.623377 -164.405276 
L 189.038961 -167.75335 
L 191.454545 -170.755379 
L 193.87013 -173.248815 
L 196.285714 -174.521362 
L 198.701299 -174.318862 
L 201.116883 -173.357719 
L 203.532468 -171.496013 
L 205.948052 -168.467924 
L 208.363636 -165.393545 
L 210.779221 -162.500201 
L 213.194805 -158.135155 
L 215.61039 -154.866273 
L 218.025974 -151.312718 
L 220.441558 -148.66673 
L 222.857143 -148.656926 
L 225.272727 -150.434971 
L 227.688312 -153.340313 
L 230.103896 -158.001719 
L 232.519481 -163.635835 
L 234.935065 -171.32887 
L 237.350649 -180.532831 
L 239.766234 -190.6716 
L 242.181818 -200.880798 
L 244.597403 -210.623455 
L 247.012987 -220.035091 
L 249.428571 -227.775534 
L 251.844156 -233.921512 
L 254.25974 -237.865298 
L 256.675325 -239.591281 
L 259.090909 -239.828182 
L 261.506494 -239.495073 
L 263.922078 -238.042138 
L 266.337662 -235.162097 
L 268.753247 -233.25365 
L 271.168831 -232.253378 
L 273.584416 -231.557455 
L 276 -234.223729 
L 278.415584 -236.971417 
L 280.831169 -240.553297 
L 283.246753 -245.117667 
L 285.662338 -251.817828 
L 288.077922 -257.984751 
L 290.493506 -263.502652 
L 292.909091 -270.961949 
L 295.324675 -277.045397 
L 297.74026 -282.229386 
L 300.155844 -287.169835 
L 302.571429 -289.874505 
L 304.987013 -290.915193 
L 307.402597 -290.092512 
L 309.818182 -287.127278 
L 312.233766 -282.690346 
L 314.649351 -278.177032 
L 317.064935 -272.427938 
L 319.480519 -266.14927 
L 321.896104 -259.062739 
L 324.311688 -252.663797 
L 326.727273 -246.385164 
L 329.142857 -239.160123 
L 331.558442 -232.47442 
L 333.974026 -226.0378 
L 336.38961 -219.124185 
L 338.805195 -213.203569 
L 341.220779 -207.401854 
L 343.636364 -202.430702 
L 346.051948 -197.962846 
L 348.467532 -196.684987 
L 350.883117 -196.246358 
L 353.298701 -197.61145 
L 355.714286 -201.356426 
L 358.12987 -205.582825 
L 360.545455 -210.228938 
L 362.961039 -215.229675 
L 365.376623 -219.73389 
L 367.792208 -222.169143 
L 370.207792 -224.392786 
L 372.623377 -225.566853 
L 375.038961 -226.462617 
L 377.454545 -228.442086 
L 379.87013 -231.232273 
L 382.285714 -235.387267 
L 384.701299 -240.018889 
L 387.116883 -245.304449 
L 389.532468 -250.75319 
L 391.948052 -255.039727 
L 394.363636 -257.378711 
L 396.779221 -257.491314 
L 399.194805 -254.737476 
L 401.61039 -250.072525 
L 404.025974 -243.312645 
L 406.441558 -235.860594 
L 408.857143 -228.731801 
L 411.272727 -221.959068 
L 413.688312 -217.098596 
L 416.103896 -213.952126 
L 418.519481 -212.917589 
L 420.935065 -212.349899 
L 423.350649 -212.669565 
L 425.766234 -213.59961 
L 428.181818 -213.635577 
L 430.597403 -213.61913 
L 433.012987 -212.965715 
L 435.428571 -211.310161 
L 437.844156 -209.756997 
L 440.25974 -208.383736 
L 442.675325 -207.032911 
L 445.090909 -206.107836 
L 447.506494 -204.7717 
L 449.922078 -204.124701 
L 452.337662 -204.017606 
L 454.753247 -205.66626 
L 457.168831 -207.111967 
L 459.584416 -209.224473 
L 462 -211.563157 
L 464.415584 -212.320428 
L 466.831169 -212.970679 
L 469.246753 -212.064298 
L 471.662338 -210.063551 
L 474.077922 -207.024138 
L 476.493506 -202.889646 
L 478.909091 -197.718541 
L 481.324675 -191.911697 
L 483.74026 -185.712971 
L 486.155844 -179.449121 
L 488.571429 -173.737267 
L 490.987013 -167.993719 
L 493.402597 -163.265469 
L 495.818182 -158.915961 
L 498.233766 -154.989943 
L 500.649351 -152.78455 
L 503.064935 -150.793381 
L 505.480519 -150.120225 
L 507.896104 -149.916936 
L 510.311688 -150.782536 
L 512.727273 -151.317484 
L 515.142857 -152.96261 
L 517.558442 -154.212263 
L 519.974026 -155.020836 
L 522.38961 -155.130309 
L 524.805195 -155.246717 
L 527.220779 -155.180744 
L 529.636364 -154.662437 
L 532.051948 -154.617801 
L 534.467532 -155.54981 
L 536.883117 -157.144348 
L 539.298701 -158.024574 
L 541.714286 -159.589752 
L 544.12987 -161.430653 
L 546.545455 -163.630126 
L 548.961039 -165.569743 
L 551.376623 -166.466759 
L 553.792208 -167.255212 
L 556.207792 -167.422117 
L 558.623377 -167.098805 
L 561.038961 -167.051543 
L 563.454545 -166.680093 
L 565.87013 -166.161695 
L 568.285714 -164.842423 
L 570.701299 -163.778088 
L 573.116883 -162.628579 
L 575.532468 -162.161119 
L 577.948052 -162.92714 
L 580.363636 -164.397619 
L 582.779221 -167.092854 
L 585.194805 -169.943601 
L 587.61039 -172.986238 
L 590.025974 -175.834245 
L 592.441558 -178.271382 
L 594.857143 -179.811897 
L 597.272727 -180.709311 
L 599.688312 -181.643767 
L 602.103896 -181.895347 
L 604.519481 -182.285595 
L 606.935065 -182.666771 
L 609.350649 -183.048356 
L 611.766234 -183.805685 
L 614.181818 -184.447627 
L 616.597403 -185.499269 
L 619.012987 -187.636572 
L 621.428571 -189.531327 
L 623.844156 -190.462589 
L 626.25974 -191.449464 
L 628.675325 -192.094305 
L 631.090909 -192.971817 
L 633.506494 -192.888927 
L 635.922078 -192.611294 
L 638.337662 -192.633296 
L 640.753247 -191.924785 
L 643.168831 -191.520566 
L 645.584416 -190.818732 
L 648 -189.557374 
L 648 -237.259758 
L 648 -237.259758 
L 645.584416 -234.982563 
L 643.168831 -233.664802 
L 640.753247 -233.137422 
L 638.337662 -233.265683 
L 635.922078 -232.999127 
L 633.506494 -232.765519 
L 631.090909 -231.546491 
L 628.675325 -230.54905 
L 626.25974 -228.677687 
L 623.844156 -226.407452 
L 621.428571 -223.679454 
L 619.012987 -220.573712 
L 616.597403 -218.094602 
L 614.181818 -215.514195 
L 611.766234 -213.429685 
L 609.350649 -211.397984 
L 606.935065 -209.625382 
L 604.519481 -208.036951 
L 602.103896 -206.854741 
L 599.688312 -206.053769 
L 597.272727 -205.617287 
L 594.857143 -204.798977 
L 592.441558 -203.790018 
L 590.025974 -202.386619 
L 587.61039 -201.433782 
L 585.194805 -200.41349 
L 582.779221 -198.974612 
L 580.363636 -197.519673 
L 577.948052 -196.324104 
L 575.532468 -195.068131 
L 573.116883 -194.275606 
L 570.701299 -194.174727 
L 568.285714 -195.302897 
L 565.87013 -196.822609 
L 563.454545 -198.386854 
L 561.038961 -199.450341 
L 558.623377 -199.83513 
L 556.207792 -199.721247 
L 553.792208 -199.176835 
L 551.376623 -199.783354 
L 548.961039 -199.83342 
L 546.545455 -199.887388 
L 544.12987 -200.312615 
L 541.714286 -200.912838 
L 539.298701 -202.158992 
L 536.883117 -202.482812 
L 534.467532 -203.066691 
L 532.051948 -203.447298 
L 529.636364 -203.266968 
L 527.220779 -201.702411 
L 524.805195 -199.925891 
L 522.38961 -197.624297 
L 519.974026 -194.793787 
L 517.558442 -192.392998 
L 515.142857 -190.037144 
L 512.727273 -188.253694 
L 510.311688 -187.655475 
L 507.896104 -187.41578 
L 505.480519 -188.567641 
L 503.064935 -190.652536 
L 500.649351 -193.672095 
L 498.233766 -197.032246 
L 495.818182 -200.826619 
L 493.402597 -205.635453 
L 490.987013 -211.591953 
L 488.571429 -216.672011 
L 486.155844 -222.792268 
L 483.74026 -228.327022 
L 481.324675 -233.681305 
L 478.909091 -239.243541 
L 476.493506 -244.070082 
L 474.077922 -248.590694 
L 471.662338 -252.203867 
L 469.246753 -255.407503 
L 466.831169 -258.072618 
L 464.415584 -260.012334 
L 462 -260.121163 
L 459.584416 -259.413772 
L 457.168831 -257.628141 
L 454.753247 -255.814189 
L 452.337662 -253.088833 
L 449.922078 -251.188732 
L 447.506494 -250.785728 
L 445.090909 -252.158421 
L 442.675325 -254.76129 
L 440.25974 -258.463216 
L 437.844156 -262.498682 
L 435.428571 -265.911616 
L 433.012987 -268.285248 
L 430.597403 -267.496372 
L 428.181818 -266.139568 
L 425.766234 -263.425418 
L 423.350649 -260.704436 
L 420.935065 -259.35039 
L 418.519481 -259.44943 
L 416.103896 -261.17578 
L 413.688312 -265.315271 
L 411.272727 -271.681336 
L 408.857143 -279.176712 
L 406.441558 -286.79121 
L 404.025974 -293.977339 
L 401.61039 -299.993425 
L 399.194805 -304.858278 
L 396.779221 -306.756931 
L 394.363636 -306.425534 
L 391.948052 -303.817976 
L 389.532468 -299.458639 
L 387.116883 -293.975664 
L 384.701299 -289.177807 
L 382.285714 -284.154044 
L 379.87013 -280.76397 
L 377.454545 -278.510026 
L 375.038961 -276.186576 
L 372.623377 -274.548546 
L 370.207792 -272.931899 
L 367.792208 -270.956334 
L 365.376623 -268.212701 
L 362.961039 -266.348917 
L 360.545455 -262.531176 
L 358.12987 -259.698774 
L 355.714286 -257.703359 
L 353.298701 -256.066867 
L 350.883117 -254.989252 
L 348.467532 -255.521249 
L 346.051948 -257.617612 
L 343.636364 -261.158857 
L 341.220779 -267.00746 
L 338.805195 -273.143741 
L 336.38961 -280.074456 
L 333.974026 -287.287351 
L 331.558442 -294.588992 
L 329.142857 -301.257872 
L 326.727273 -307.523569 
L 324.311688 -312.813878 
L 321.896104 -317.967449 
L 319.480519 -322.484676 
L 317.064935 -328.793819 
L 314.649351 -334.485861 
L 312.233766 -340.326483 
L 309.818182 -344.464681 
L 307.402597 -347.838851 
L 304.987013 -349.364518 
L 302.571429 -351.310633 
L 300.155844 -351.355766 
L 297.74026 -350.677648 
L 295.324675 -348.167853 
L 292.909091 -346.096094 
L 290.493506 -342.881763 
L 288.077922 -339.980586 
L 285.662338 -336.033262 
L 283.246753 -331.896201 
L 280.831169 -327.691541 
L 278.415584 -322.835371 
L 276 -318.293093 
L 273.584416 -312.855114 
L 271.168831 -308.703799 
L 268.753247 -304.208295 
L 266.337662 -301.25677 
L 263.922078 -299.845802 
L 261.506494 -298.88374 
L 259.090909 -298.117402 
L 256.675325 -297.17223 
L 254.25974 -293.7235 
L 251.844156 -288.585245 
L 249.428571 -281.092997 
L 247.012987 -272.761187 
L 244.597403 -260.980241 
L 242.181818 -249.166382 
L 239.766234 -238.074785 
L 237.350649 -227.908976 
L 234.935065 -219.530878 
L 232.519481 -212.621057 
L 230.103896 -207.218585 
L 227.688312 -202.77986 
L 225.272727 -199.501053 
L 222.857143 -198.467088 
L 220.441558 -197.632108 
L 218.025974 -197.450417 
L 215.61039 -198.279006 
L 213.194805 -199.235188 
L 210.779221 -201.424018 
L 208.363636 -204.653916 
L 205.948052 -208.104977 
L 203.532468 -211.495671 
L 201.116883 -213.765265 
L 198.701299 -215.164038 
L 196.285714 -215.254082 
L 193.87013 -213.974917 
L 191.454545 -212.314869 
L 189.038961 -209.864655 
L 186.623377 -206.385889 
L 184.207792 -202.404443 
L 181.792208 -199.010712 
L 179.376623 -195.912775 
L 176.961039 -193.334224 
L 174.545455 -191.055215 
L 172.12987 -189.436342 
L 169.714286 -189.021644 
L 167.298701 -188.865096 
L 164.883117 -190.684872 
L 162.467532 -191.993185 
L 160.051948 -193.879973 
L 157.636364 -195.239857 
L 155.220779 -195.369373 
L 152.805195 -194.683371 
L 150.38961 -193.161836 
L 147.974026 -191.73141 
L 145.558442 -189.765795 
L 143.142857 -189.488512 
L 140.727273 -189.184946 
L 138.311688 -189.877 
L 135.896104 -190.463111 
L 133.480519 -190.84546 
L 131.064935 -190.738396 
L 128.649351 -190.305009 
L 126.233766 -189.358077 
L 123.818182 -187.84896 
L 121.402597 -186.643517 
L 118.987013 -185.358598 
L 116.571429 -184.842086 
L 114.155844 -185.045658 
L 111.74026 -185.797308 
L 109.324675 -186.322687 
L 106.909091 -186.799149 
L 104.493506 -187.084648 
L 102.077922 -187.36219 
L 99.662338 -187.541002 
L 97.246753 -187.561396 
L 94.831169 -187.665671 
L 92.415584 -187.381624 
L 90 -187.416995 
z
" id="m73eefa30d2" style="stroke:#0000ff;stroke-opacity:0.3;"/>
    </defs>
    <g>
     <use style="fill:#0000ff;fill-opacity:0.3;stroke:#0000ff;stroke-opacity:0.3;" x="0" xlink:href="#m73eefa30d2" y="432"/>
    </g>
   </g>
   <g id="line2d_18">
    <path d="M 90 246.245903 
L 92.415584 247.870135 
L 94.831169 249.335094 
L 97.246753 250.595754 
L 99.662338 251.634693 
L 102.077922 252.458783 
L 104.493506 253.085178 
L 106.909091 253.524626 
L 109.324675 253.773906 
L 111.74026 253.819897 
L 114.155844 253.651446 
L 116.571429 253.278397 
L 123.818182 251.801312 
L 126.233766 251.747189 
L 128.649351 252.217041 
L 131.064935 253.310143 
L 133.480519 255.015788 
L 135.896104 257.203988 
L 140.727273 262.10062 
L 143.142857 264.326852 
L 145.558442 266.187984 
L 147.974026 267.63775 
L 150.38961 268.709706 
L 152.805195 269.485144 
L 157.636364 270.527656 
L 162.467532 271.484291 
L 164.883117 272.14585 
L 167.298701 273.016648 
L 169.714286 274.100041 
L 174.545455 276.542788 
L 176.961039 277.555038 
L 179.376623 278.150454 
L 181.792208 278.166427 
L 184.207792 277.543384 
L 186.623377 276.355777 
L 191.454545 273.204212 
L 193.87013 271.872447 
L 196.285714 271.09536 
L 198.701299 271.03057 
L 201.116883 271.671241 
L 203.532468 272.850215 
L 208.363636 275.639743 
L 210.779221 276.631414 
L 213.194805 277.092989 
L 215.61039 277.02611 
L 218.025974 276.579147 
L 225.272727 274.738092 
L 227.688312 273.912996 
L 230.103896 272.447575 
L 232.519481 269.796258 
L 234.935065 265.441939 
L 237.350649 259.048779 
L 239.766234 250.577334 
L 242.181818 240.33597 
L 249.428571 206.298885 
L 251.844156 196.794929 
L 254.25974 189.389989 
L 256.675325 184.348015 
L 259.090909 181.561451 
L 261.506494 180.592246 
L 263.922078 180.782342 
L 266.337662 181.40515 
L 268.753247 181.81637 
L 271.168831 181.568746 
L 273.584416 180.469752 
L 276 178.572777 
L 278.415584 176.10545 
L 288.077922 164.994977 
L 290.493506 161.86914 
L 292.909091 158.103633 
L 295.324675 153.436832 
L 297.74026 147.798371 
L 304.987013 128.266371 
L 307.402597 122.937235 
L 309.818182 119.30256 
L 312.233766 117.778006 
L 314.649351 118.482111 
L 317.064935 121.232905 
L 319.480519 125.613614 
L 321.896104 131.086137 
L 338.805195 173.601417 
L 343.636364 186.130429 
L 346.051948 192.103334 
L 348.467532 197.500982 
L 350.883117 202.036502 
L 353.298701 205.491972 
L 355.714286 207.76164 
L 358.12987 208.873185 
L 360.545455 208.977786 
L 362.961039 208.308567 
L 365.376623 207.120435 
L 367.792208 205.628246 
L 370.207792 203.956827 
L 372.623377 202.116939 
L 375.038961 200.021579 
L 377.454545 197.543508 
L 379.87013 194.593416 
L 382.285714 191.189824 
L 387.116883 183.856189 
L 389.532468 180.704542 
L 391.948052 178.547997 
L 394.363636 177.836876 
L 396.779221 178.872629 
L 399.194805 181.738354 
L 401.61039 186.273214 
L 404.025974 192.098666 
L 411.272727 212.042693 
L 413.688312 217.942044 
L 416.103896 222.994093 
L 418.519481 227.129194 
L 420.935065 230.386758 
L 423.350649 232.873673 
L 425.766234 234.727 
L 428.181818 236.092181 
L 430.597403 237.115006 
L 435.428571 238.681284 
L 440.25974 240.327581 
L 442.675325 241.350845 
L 445.090909 242.540138 
L 449.922078 245.338287 
L 454.753247 248.335159 
L 457.168831 249.716256 
L 459.584416 250.907822 
L 462 251.835593 
L 464.415584 252.437455 
L 466.831169 252.668886 
L 469.246753 252.518902 
L 471.662338 252.031834 
L 478.909091 249.978597 
L 481.324675 249.809917 
L 483.74026 250.267714 
L 486.155844 251.490454 
L 488.571429 253.509113 
L 490.987013 256.240803 
L 493.402597 259.507319 
L 500.649351 270.00443 
L 503.064935 272.915331 
L 505.480519 275.229438 
L 507.896104 276.846672 
L 510.311688 277.711806 
L 512.727273 277.806467 
L 515.142857 277.142488 
L 517.558442 275.757791 
L 519.974026 273.720144 
L 522.38961 271.139161 
L 527.220779 265.049295 
L 529.636364 262.012924 
L 532.051948 259.346845 
L 534.467532 257.318129 
L 536.883117 256.133613 
L 539.298701 255.886235 
L 541.714286 256.514967 
L 544.12987 257.793282 
L 546.545455 259.352892 
L 548.961039 260.744857 
L 551.376623 261.532354 
L 553.792208 261.393563 
L 556.207792 260.202761 
L 558.623377 258.06648 
L 565.87013 249.958625 
L 568.285714 248.420733 
L 570.701299 248.142516 
L 573.116883 249.207767 
L 575.532468 251.42626 
L 582.779221 260.115708 
L 585.194805 261.84365 
L 587.61039 262.365911 
L 590.025974 261.629595 
L 592.441558 259.787189 
L 594.857143 257.137483 
L 602.103896 247.845166 
L 604.519481 245.153926 
L 606.935065 242.820224 
L 609.350649 240.776948 
L 614.181818 236.974438 
L 616.597403 234.894019 
L 619.012987 232.547564 
L 621.428571 229.915558 
L 626.25974 224.083464 
L 631.090909 218.324795 
L 633.506494 215.713565 
L 635.922078 213.305746 
L 640.753247 208.937068 
L 645.584416 204.954421 
L 648 203.20887 
L 648 203.20887 
" style="fill:none;stroke:#ff0000;stroke-linecap:square;stroke-width:1.5;"/>
   </g>
   <g id="line2d_19">
    <path d="M 90 257.48832 
L 97.246753 257.292796 
L 102.077922 257.677945 
L 104.493506 257.889842 
L 106.909091 257.920649 
L 109.324675 257.664741 
L 111.74026 257.105861 
L 116.571429 255.438389 
L 118.987013 254.610302 
L 121.402597 253.951284 
L 123.818182 253.519399 
L 126.233766 253.310484 
L 128.649351 253.279448 
L 133.480519 253.545223 
L 138.311688 254.056937 
L 143.142857 254.773092 
L 147.974026 255.707603 
L 152.805195 256.916228 
L 157.636364 258.514609 
L 162.467532 260.299441 
L 164.883117 261.056492 
L 167.298701 261.566409 
L 169.714286 261.705038 
L 172.12987 261.36255 
L 174.545455 260.454753 
L 176.961039 258.931794 
L 179.376623 256.79137 
L 181.792208 254.095375 
L 184.207792 250.980309 
L 189.038961 244.393914 
L 191.454545 241.508148 
L 193.87013 239.317173 
L 196.285714 238.091319 
L 198.701299 237.997683 
L 201.116883 239.063158 
L 203.532468 241.164675 
L 205.948052 244.046362 
L 213.194805 253.82198 
L 215.61039 256.342698 
L 218.025974 258.089242 
L 220.441558 258.905408 
L 222.857143 258.662573 
L 225.272727 257.23688 
L 227.688312 254.496182 
L 230.103896 250.307884 
L 232.519481 244.572128 
L 234.935065 237.270673 
L 237.350649 228.51638 
L 239.766234 218.592439 
L 244.597403 197.279602 
L 247.012987 187.240287 
L 249.428571 178.530993 
L 251.844156 171.665427 
L 254.25974 166.888674 
L 256.675325 164.125658 
L 259.090909 162.996326 
L 261.506494 162.900097 
L 263.922078 163.14834 
L 266.337662 163.104474 
L 268.753247 162.294622 
L 271.168831 160.470086 
L 273.584416 157.615503 
L 276 153.902524 
L 278.415584 149.602848 
L 290.493506 126.574253 
L 292.909091 122.297566 
L 295.324675 118.350119 
L 297.74026 114.975867 
L 300.155844 112.486988 
L 302.571429 111.197965 
L 304.987013 111.346683 
L 307.402597 113.025838 
L 309.818182 116.147474 
L 312.233766 120.458727 
L 314.649351 125.608152 
L 319.480519 137.065392 
L 326.727273 154.829434 
L 331.558442 167.516174 
L 338.805195 187.629641 
L 341.220779 193.712801 
L 343.636364 198.895383 
L 346.051948 202.821854 
L 348.467532 205.214644 
L 350.883117 205.926777 
L 353.298701 204.984907 
L 355.714286 202.613795 
L 358.12987 199.223985 
L 362.961039 191.537783 
L 365.376623 188.238373 
L 367.792208 185.69346 
L 370.207792 183.885343 
L 375.038961 181.207328 
L 377.454545 179.376647 
L 379.87013 176.635582 
L 382.285714 172.793115 
L 384.701299 167.964664 
L 389.532468 157.372755 
L 391.948052 153.143521 
L 394.363636 150.685242 
L 396.779221 150.560964 
L 399.194805 152.98652 
L 401.61039 157.772369 
L 404.025974 164.349335 
L 408.857143 179.403267 
L 411.272727 186.048449 
L 413.688312 191.15132 
L 416.103896 194.377661 
L 418.519481 195.757102 
L 420.935065 195.642663 
L 423.350649 194.60365 
L 425.766234 193.286414 
L 428.181818 192.280377 
L 430.597403 192.01249 
L 433.012987 192.682574 
L 435.428571 194.249085 
L 437.844156 196.465809 
L 440.25974 198.953141 
L 442.675325 201.280242 
L 445.090909 203.044615 
L 447.506494 203.946483 
L 449.922078 203.851147 
L 452.337662 202.822627 
L 454.753247 201.114832 
L 457.168831 199.12098 
L 459.584416 197.293987 
L 462 196.056542 
L 464.415584 195.724894 
L 466.831169 196.469501 
L 469.246753 198.31934 
L 471.662338 201.194381 
L 474.077922 204.944461 
L 476.493506 209.384563 
L 478.909091 214.325991 
L 483.74026 225.064371 
L 490.987013 241.456359 
L 493.402597 246.535343 
L 495.818182 251.184062 
L 498.233766 255.225075 
L 500.649351 258.485671 
L 503.064935 260.835927 
L 505.480519 262.220977 
L 507.896104 262.677157 
L 510.311688 262.328456 
L 512.727273 261.362408 
L 515.142857 259.992318 
L 522.38961 255.394535 
L 524.805195 254.217797 
L 527.220779 253.386914 
L 529.636364 252.915766 
L 532.051948 252.747846 
L 539.298701 252.73284 
L 541.714286 252.417335 
L 544.12987 251.827212 
L 546.545455 251.000713 
L 551.376623 249.07979 
L 553.792208 248.29073 
L 556.207792 247.828903 
L 558.623377 247.816384 
L 561.038961 248.308466 
L 563.454545 249.268796 
L 570.701299 253.074362 
L 573.116883 253.719872 
L 575.532468 253.65743 
L 577.948052 252.818466 
L 580.363636 251.278562 
L 582.779221 249.232432 
L 587.61039 244.66516 
L 590.025974 242.609331 
L 592.441558 240.894121 
L 594.857143 239.557246 
L 597.272727 238.567171 
L 599.688312 237.8378 
L 604.519481 236.643521 
L 606.935065 235.894352 
L 609.350649 234.880385 
L 611.766234 233.530229 
L 614.181818 231.833795 
L 616.597403 229.845288 
L 623.844156 223.344972 
L 626.25974 221.502944 
L 628.675325 220.054146 
L 631.090909 219.078961 
L 633.506494 218.594518 
L 635.922078 218.5416 
L 640.753247 219.049939 
L 643.168831 219.085349 
L 645.584416 218.602503 
L 648 217.417587 
L 648 217.417587 
" style="fill:none;stroke:#0000ff;stroke-linecap:square;stroke-width:1.5;"/>
   </g>
  </g>
 </g>
 <defs>
  <clipPath id="p6117a846ee">
   <rect height="326.16" width="558" x="90" y="51.84"/>
  </clipPath>
 </defs>
</svg>
