<?xml version="1.0" encoding="utf-8" standalone="no"?>
<!DOCTYPE svg PUBLIC "-//W3C//DTD SVG 1.1//EN"
  "http://www.w3.org/Graphics/SVG/1.1/DTD/svg11.dtd">
<!-- Created with matplotlib (https://matplotlib.org/) -->
<svg height="432pt" version="1.1" viewBox="0 0 720 432" width="720pt" xmlns="http://www.w3.org/2000/svg" xmlns:xlink="http://www.w3.org/1999/xlink">
 <metadata>
  <rdf:RDF xmlns:cc="http://creativecommons.org/ns#" xmlns:dc="http://purl.org/dc/elements/1.1/" xmlns:rdf="http://www.w3.org/1999/02/22-rdf-syntax-ns#">
   <cc:Work>
    <dc:type rdf:resource="http://purl.org/dc/dcmitype/StillImage"/>
    <dc:date>2020-12-13T05:33:51.871243</dc:date>
    <dc:format>image/svg+xml</dc:format>
    <dc:creator>
     <cc:Agent>
      <dc:title>Matplotlib v3.3.3, https://matplotlib.org/</dc:title>
     </cc:Agent>
    </dc:creator>
   </cc:Work>
  </rdf:RDF>
 </metadata>
 <defs>
  <style type="text/css">*{stroke-linecap:butt;stroke-linejoin:round;}</style>
 </defs>
 <g id="figure_1">
  <g id="patch_1">
   <path d="M 0 432 
L 720 432 
L 720 0 
L 0 0 
z
" style="fill:none;"/>
  </g>
  <g id="axes_1">
   <g id="patch_2">
    <path d="M 90 378 
L 648 378 
L 648 51.84 
L 90 51.84 
z
" style="fill:none;opacity:0;"/>
   </g>
   <g id="patch_3">
    <path d="M 90 378 
L 90 51.84 
" style="fill:none;stroke:#000000;stroke-linecap:square;stroke-linejoin:miter;stroke-width:0.8;"/>
   </g>
   <g id="LineCollection_1">
    <path clip-path="url(#pc87dbc1df8)" d="M 276.483117 51.84 
L 276.483117 378 
" style="fill:none;stroke:#000000;stroke-dasharray:3.7,1.6;stroke-dashoffset:0;"/>
    <path clip-path="url(#pc87dbc1df8)" d="M 338.322078 51.84 
L 338.322078 378 
" style="fill:none;stroke:#000000;stroke-dasharray:3.7,1.6;stroke-dashoffset:0;"/>
    <path clip-path="url(#pc87dbc1df8)" d="M 400.161039 51.84 
L 400.161039 378 
" style="fill:none;stroke:#000000;stroke-dasharray:3.7,1.6;stroke-dashoffset:0;"/>
    <path clip-path="url(#pc87dbc1df8)" d="M 523.838961 51.84 
L 523.838961 378 
" style="fill:none;stroke:#000000;stroke-dasharray:3.7,1.6;stroke-dashoffset:0;"/>
   </g>
   <g id="matplotlib.axis_1">
    <g id="xtick_1">
     <g id="line2d_1">
      <defs>
       <path d="M 0 0 
L 0 3.5 
" id="mefb0b89601" style="stroke:#000000;stroke-width:0.8;"/>
      </defs>
      <g>
       <use style="stroke:#000000;stroke-width:0.8;" x="152.805195" xlink:href="#mefb0b89601" y="378"/>
      </g>
     </g>
     <g id="text_1">
      <!-- 0.0 -->
      <g transform="translate(141.673007 395.637812)scale(0.14 -0.14)">
       <defs>
        <path d="M 31.78125 66.40625 
Q 24.171875 66.40625 20.328125 58.90625 
Q 16.5 51.421875 16.5 36.375 
Q 16.5 21.390625 20.328125 13.890625 
Q 24.171875 6.390625 31.78125 6.390625 
Q 39.453125 6.390625 43.28125 13.890625 
Q 47.125 21.390625 47.125 36.375 
Q 47.125 51.421875 43.28125 58.90625 
Q 39.453125 66.40625 31.78125 66.40625 
z
M 31.78125 74.21875 
Q 44.046875 74.21875 50.515625 64.515625 
Q 56.984375 54.828125 56.984375 36.375 
Q 56.984375 17.96875 50.515625 8.265625 
Q 44.046875 -1.421875 31.78125 -1.421875 
Q 19.53125 -1.421875 13.0625 8.265625 
Q 6.59375 17.96875 6.59375 36.375 
Q 6.59375 54.828125 13.0625 64.515625 
Q 19.53125 74.21875 31.78125 74.21875 
z
" id="DejaVuSans-48"/>
        <path d="M 10.6875 12.40625 
L 21 12.40625 
L 21 0 
L 10.6875 0 
z
" id="DejaVuSans-46"/>
       </defs>
       <use xlink:href="#DejaVuSans-48"/>
       <use x="63.623047" xlink:href="#DejaVuSans-46"/>
       <use x="95.410156" xlink:href="#DejaVuSans-48"/>
      </g>
     </g>
    </g>
    <g id="xtick_2">
     <g id="line2d_2">
      <g>
       <use style="stroke:#000000;stroke-width:0.8;" x="276.483117" xlink:href="#mefb0b89601" y="378"/>
      </g>
     </g>
     <g id="text_2">
      <!-- 0.2 -->
      <g transform="translate(265.350929 395.637812)scale(0.14 -0.14)">
       <defs>
        <path d="M 19.1875 8.296875 
L 53.609375 8.296875 
L 53.609375 0 
L 7.328125 0 
L 7.328125 8.296875 
Q 12.9375 14.109375 22.625 23.890625 
Q 32.328125 33.6875 34.8125 36.53125 
Q 39.546875 41.84375 41.421875 45.53125 
Q 43.3125 49.21875 43.3125 52.78125 
Q 43.3125 58.59375 39.234375 62.25 
Q 35.15625 65.921875 28.609375 65.921875 
Q 23.96875 65.921875 18.8125 64.3125 
Q 13.671875 62.703125 7.8125 59.421875 
L 7.8125 69.390625 
Q 13.765625 71.78125 18.9375 73 
Q 24.125 74.21875 28.421875 74.21875 
Q 39.75 74.21875 46.484375 68.546875 
Q 53.21875 62.890625 53.21875 53.421875 
Q 53.21875 48.921875 51.53125 44.890625 
Q 49.859375 40.875 45.40625 35.40625 
Q 44.1875 33.984375 37.640625 27.21875 
Q 31.109375 20.453125 19.1875 8.296875 
z
" id="DejaVuSans-50"/>
       </defs>
       <use xlink:href="#DejaVuSans-48"/>
       <use x="63.623047" xlink:href="#DejaVuSans-46"/>
       <use x="95.410156" xlink:href="#DejaVuSans-50"/>
      </g>
     </g>
    </g>
    <g id="xtick_3">
     <g id="line2d_3">
      <g>
       <use style="stroke:#000000;stroke-width:0.8;" x="338.322078" xlink:href="#mefb0b89601" y="378"/>
      </g>
     </g>
     <g id="text_3">
      <!-- 0.3 -->
      <g transform="translate(327.18989 395.637812)scale(0.14 -0.14)">
       <defs>
        <path d="M 40.578125 39.3125 
Q 47.65625 37.796875 51.625 33 
Q 55.609375 28.21875 55.609375 21.1875 
Q 55.609375 10.40625 48.1875 4.484375 
Q 40.765625 -1.421875 27.09375 -1.421875 
Q 22.515625 -1.421875 17.65625 -0.515625 
Q 12.796875 0.390625 7.625 2.203125 
L 7.625 11.71875 
Q 11.71875 9.328125 16.59375 8.109375 
Q 21.484375 6.890625 26.8125 6.890625 
Q 36.078125 6.890625 40.9375 10.546875 
Q 45.796875 14.203125 45.796875 21.1875 
Q 45.796875 27.640625 41.28125 31.265625 
Q 36.765625 34.90625 28.71875 34.90625 
L 20.21875 34.90625 
L 20.21875 43.015625 
L 29.109375 43.015625 
Q 36.375 43.015625 40.234375 45.921875 
Q 44.09375 48.828125 44.09375 54.296875 
Q 44.09375 59.90625 40.109375 62.90625 
Q 36.140625 65.921875 28.71875 65.921875 
Q 24.65625 65.921875 20.015625 65.03125 
Q 15.375 64.15625 9.8125 62.3125 
L 9.8125 71.09375 
Q 15.4375 72.65625 20.34375 73.4375 
Q 25.25 74.21875 29.59375 74.21875 
Q 40.828125 74.21875 47.359375 69.109375 
Q 53.90625 64.015625 53.90625 55.328125 
Q 53.90625 49.265625 50.4375 45.09375 
Q 46.96875 40.921875 40.578125 39.3125 
z
" id="DejaVuSans-51"/>
       </defs>
       <use xlink:href="#DejaVuSans-48"/>
       <use x="63.623047" xlink:href="#DejaVuSans-46"/>
       <use x="95.410156" xlink:href="#DejaVuSans-51"/>
      </g>
     </g>
    </g>
    <g id="xtick_4">
     <g id="line2d_4">
      <g>
       <use style="stroke:#000000;stroke-width:0.8;" x="400.161039" xlink:href="#mefb0b89601" y="378"/>
      </g>
     </g>
     <g id="text_4">
      <!-- 0.4 -->
      <g transform="translate(389.028851 395.637812)scale(0.14 -0.14)">
       <defs>
        <path d="M 37.796875 64.3125 
L 12.890625 25.390625 
L 37.796875 25.390625 
z
M 35.203125 72.90625 
L 47.609375 72.90625 
L 47.609375 25.390625 
L 58.015625 25.390625 
L 58.015625 17.1875 
L 47.609375 17.1875 
L 47.609375 0 
L 37.796875 0 
L 37.796875 17.1875 
L 4.890625 17.1875 
L 4.890625 26.703125 
z
" id="DejaVuSans-52"/>
       </defs>
       <use xlink:href="#DejaVuSans-48"/>
       <use x="63.623047" xlink:href="#DejaVuSans-46"/>
       <use x="95.410156" xlink:href="#DejaVuSans-52"/>
      </g>
     </g>
    </g>
    <g id="xtick_5">
     <g id="line2d_5">
      <g>
       <use style="stroke:#000000;stroke-width:0.8;" x="400.161039" xlink:href="#mefb0b89601" y="378"/>
      </g>
     </g>
     <g id="text_5">
      <!-- 0.4 -->
      <g transform="translate(389.028851 395.637812)scale(0.14 -0.14)">
       <use xlink:href="#DejaVuSans-48"/>
       <use x="63.623047" xlink:href="#DejaVuSans-46"/>
       <use x="95.410156" xlink:href="#DejaVuSans-52"/>
      </g>
     </g>
    </g>
    <g id="xtick_6">
     <g id="line2d_6">
      <g>
       <use style="stroke:#000000;stroke-width:0.8;" x="523.838961" xlink:href="#mefb0b89601" y="378"/>
      </g>
     </g>
     <g id="text_6">
      <!-- 0.6 -->
      <g transform="translate(512.706774 395.637812)scale(0.14 -0.14)">
       <defs>
        <path d="M 33.015625 40.375 
Q 26.375 40.375 22.484375 35.828125 
Q 18.609375 31.296875 18.609375 23.390625 
Q 18.609375 15.53125 22.484375 10.953125 
Q 26.375 6.390625 33.015625 6.390625 
Q 39.65625 6.390625 43.53125 10.953125 
Q 47.40625 15.53125 47.40625 23.390625 
Q 47.40625 31.296875 43.53125 35.828125 
Q 39.65625 40.375 33.015625 40.375 
z
M 52.59375 71.296875 
L 52.59375 62.3125 
Q 48.875 64.0625 45.09375 64.984375 
Q 41.3125 65.921875 37.59375 65.921875 
Q 27.828125 65.921875 22.671875 59.328125 
Q 17.53125 52.734375 16.796875 39.40625 
Q 19.671875 43.65625 24.015625 45.921875 
Q 28.375 48.1875 33.59375 48.1875 
Q 44.578125 48.1875 50.953125 41.515625 
Q 57.328125 34.859375 57.328125 23.390625 
Q 57.328125 12.15625 50.6875 5.359375 
Q 44.046875 -1.421875 33.015625 -1.421875 
Q 20.359375 -1.421875 13.671875 8.265625 
Q 6.984375 17.96875 6.984375 36.375 
Q 6.984375 53.65625 15.1875 63.9375 
Q 23.390625 74.21875 37.203125 74.21875 
Q 40.921875 74.21875 44.703125 73.484375 
Q 48.484375 72.75 52.59375 71.296875 
z
" id="DejaVuSans-54"/>
       </defs>
       <use xlink:href="#DejaVuSans-48"/>
       <use x="63.623047" xlink:href="#DejaVuSans-46"/>
       <use x="95.410156" xlink:href="#DejaVuSans-54"/>
      </g>
     </g>
    </g>
    <g id="xtick_7">
     <g id="line2d_7">
      <g>
       <use style="stroke:#000000;stroke-width:0.8;" x="523.838961" xlink:href="#mefb0b89601" y="378"/>
      </g>
     </g>
     <g id="text_7">
      <!-- 0.6 -->
      <g transform="translate(512.706774 395.637812)scale(0.14 -0.14)">
       <use xlink:href="#DejaVuSans-48"/>
       <use x="63.623047" xlink:href="#DejaVuSans-46"/>
       <use x="95.410156" xlink:href="#DejaVuSans-54"/>
      </g>
     </g>
    </g>
    <g id="xtick_8">
     <g id="line2d_8">
      <g>
       <use style="stroke:#000000;stroke-width:0.8;" x="647.516883" xlink:href="#mefb0b89601" y="378"/>
      </g>
     </g>
     <g id="text_8">
      <!-- 0.8 -->
      <g transform="translate(636.384696 395.637812)scale(0.14 -0.14)">
       <defs>
        <path d="M 31.78125 34.625 
Q 24.75 34.625 20.71875 30.859375 
Q 16.703125 27.09375 16.703125 20.515625 
Q 16.703125 13.921875 20.71875 10.15625 
Q 24.75 6.390625 31.78125 6.390625 
Q 38.8125 6.390625 42.859375 10.171875 
Q 46.921875 13.96875 46.921875 20.515625 
Q 46.921875 27.09375 42.890625 30.859375 
Q 38.875 34.625 31.78125 34.625 
z
M 21.921875 38.8125 
Q 15.578125 40.375 12.03125 44.71875 
Q 8.5 49.078125 8.5 55.328125 
Q 8.5 64.0625 14.71875 69.140625 
Q 20.953125 74.21875 31.78125 74.21875 
Q 42.671875 74.21875 48.875 69.140625 
Q 55.078125 64.0625 55.078125 55.328125 
Q 55.078125 49.078125 51.53125 44.71875 
Q 48 40.375 41.703125 38.8125 
Q 48.828125 37.15625 52.796875 32.3125 
Q 56.78125 27.484375 56.78125 20.515625 
Q 56.78125 9.90625 50.3125 4.234375 
Q 43.84375 -1.421875 31.78125 -1.421875 
Q 19.734375 -1.421875 13.25 4.234375 
Q 6.78125 9.90625 6.78125 20.515625 
Q 6.78125 27.484375 10.78125 32.3125 
Q 14.796875 37.15625 21.921875 38.8125 
z
M 18.3125 54.390625 
Q 18.3125 48.734375 21.84375 45.5625 
Q 25.390625 42.390625 31.78125 42.390625 
Q 38.140625 42.390625 41.71875 45.5625 
Q 45.3125 48.734375 45.3125 54.390625 
Q 45.3125 60.0625 41.71875 63.234375 
Q 38.140625 66.40625 31.78125 66.40625 
Q 25.390625 66.40625 21.84375 63.234375 
Q 18.3125 60.0625 18.3125 54.390625 
z
" id="DejaVuSans-56"/>
       </defs>
       <use xlink:href="#DejaVuSans-48"/>
       <use x="63.623047" xlink:href="#DejaVuSans-46"/>
       <use x="95.410156" xlink:href="#DejaVuSans-56"/>
      </g>
     </g>
    </g>
    <g id="text_9">
     <!-- Time (s) -->
     <g transform="translate(340.539531 413.187187)scale(0.14 -0.14)">
      <defs>
       <path d="M -0.296875 72.90625 
L 61.375 72.90625 
L 61.375 64.59375 
L 35.5 64.59375 
L 35.5 0 
L 25.59375 0 
L 25.59375 64.59375 
L -0.296875 64.59375 
z
" id="DejaVuSans-84"/>
       <path d="M 9.421875 54.6875 
L 18.40625 54.6875 
L 18.40625 0 
L 9.421875 0 
z
M 9.421875 75.984375 
L 18.40625 75.984375 
L 18.40625 64.59375 
L 9.421875 64.59375 
z
" id="DejaVuSans-105"/>
       <path d="M 52 44.1875 
Q 55.375 50.25 60.0625 53.125 
Q 64.75 56 71.09375 56 
Q 79.640625 56 84.28125 50.015625 
Q 88.921875 44.046875 88.921875 33.015625 
L 88.921875 0 
L 79.890625 0 
L 79.890625 32.71875 
Q 79.890625 40.578125 77.09375 44.375 
Q 74.3125 48.1875 68.609375 48.1875 
Q 61.625 48.1875 57.5625 43.546875 
Q 53.515625 38.921875 53.515625 30.90625 
L 53.515625 0 
L 44.484375 0 
L 44.484375 32.71875 
Q 44.484375 40.625 41.703125 44.40625 
Q 38.921875 48.1875 33.109375 48.1875 
Q 26.21875 48.1875 22.15625 43.53125 
Q 18.109375 38.875 18.109375 30.90625 
L 18.109375 0 
L 9.078125 0 
L 9.078125 54.6875 
L 18.109375 54.6875 
L 18.109375 46.1875 
Q 21.1875 51.21875 25.484375 53.609375 
Q 29.78125 56 35.6875 56 
Q 41.65625 56 45.828125 52.96875 
Q 50 49.953125 52 44.1875 
z
" id="DejaVuSans-109"/>
       <path d="M 56.203125 29.59375 
L 56.203125 25.203125 
L 14.890625 25.203125 
Q 15.484375 15.921875 20.484375 11.0625 
Q 25.484375 6.203125 34.421875 6.203125 
Q 39.59375 6.203125 44.453125 7.46875 
Q 49.3125 8.734375 54.109375 11.28125 
L 54.109375 2.78125 
Q 49.265625 0.734375 44.1875 -0.34375 
Q 39.109375 -1.421875 33.890625 -1.421875 
Q 20.796875 -1.421875 13.15625 6.1875 
Q 5.515625 13.8125 5.515625 26.8125 
Q 5.515625 40.234375 12.765625 48.109375 
Q 20.015625 56 32.328125 56 
Q 43.359375 56 49.78125 48.890625 
Q 56.203125 41.796875 56.203125 29.59375 
z
M 47.21875 32.234375 
Q 47.125 39.59375 43.09375 43.984375 
Q 39.0625 48.390625 32.421875 48.390625 
Q 24.90625 48.390625 20.390625 44.140625 
Q 15.875 39.890625 15.1875 32.171875 
z
" id="DejaVuSans-101"/>
       <path id="DejaVuSans-32"/>
       <path d="M 31 75.875 
Q 24.46875 64.65625 21.28125 53.65625 
Q 18.109375 42.671875 18.109375 31.390625 
Q 18.109375 20.125 21.3125 9.0625 
Q 24.515625 -2 31 -13.1875 
L 23.1875 -13.1875 
Q 15.875 -1.703125 12.234375 9.375 
Q 8.59375 20.453125 8.59375 31.390625 
Q 8.59375 42.28125 12.203125 53.3125 
Q 15.828125 64.359375 23.1875 75.875 
z
" id="DejaVuSans-40"/>
       <path d="M 44.28125 53.078125 
L 44.28125 44.578125 
Q 40.484375 46.53125 36.375 47.5 
Q 32.28125 48.484375 27.875 48.484375 
Q 21.1875 48.484375 17.84375 46.4375 
Q 14.5 44.390625 14.5 40.28125 
Q 14.5 37.15625 16.890625 35.375 
Q 19.28125 33.59375 26.515625 31.984375 
L 29.59375 31.296875 
Q 39.15625 29.25 43.1875 25.515625 
Q 47.21875 21.78125 47.21875 15.09375 
Q 47.21875 7.46875 41.1875 3.015625 
Q 35.15625 -1.421875 24.609375 -1.421875 
Q 20.21875 -1.421875 15.453125 -0.5625 
Q 10.6875 0.296875 5.421875 2 
L 5.421875 11.28125 
Q 10.40625 8.6875 15.234375 7.390625 
Q 20.0625 6.109375 24.8125 6.109375 
Q 31.15625 6.109375 34.5625 8.28125 
Q 37.984375 10.453125 37.984375 14.40625 
Q 37.984375 18.0625 35.515625 20.015625 
Q 33.0625 21.96875 24.703125 23.78125 
L 21.578125 24.515625 
Q 13.234375 26.265625 9.515625 29.90625 
Q 5.8125 33.546875 5.8125 39.890625 
Q 5.8125 47.609375 11.28125 51.796875 
Q 16.75 56 26.8125 56 
Q 31.78125 56 36.171875 55.265625 
Q 40.578125 54.546875 44.28125 53.078125 
z
" id="DejaVuSans-115"/>
       <path d="M 8.015625 75.875 
L 15.828125 75.875 
Q 23.140625 64.359375 26.78125 53.3125 
Q 30.421875 42.28125 30.421875 31.390625 
Q 30.421875 20.453125 26.78125 9.375 
Q 23.140625 -1.703125 15.828125 -13.1875 
L 8.015625 -13.1875 
Q 14.5 -2 17.703125 9.0625 
Q 20.90625 20.125 20.90625 31.390625 
Q 20.90625 42.671875 17.703125 53.65625 
Q 14.5 64.65625 8.015625 75.875 
z
" id="DejaVuSans-41"/>
      </defs>
      <use xlink:href="#DejaVuSans-84"/>
      <use x="57.958984" xlink:href="#DejaVuSans-105"/>
      <use x="85.742188" xlink:href="#DejaVuSans-109"/>
      <use x="183.154297" xlink:href="#DejaVuSans-101"/>
      <use x="244.677734" xlink:href="#DejaVuSans-32"/>
      <use x="276.464844" xlink:href="#DejaVuSans-40"/>
      <use x="315.478516" xlink:href="#DejaVuSans-115"/>
      <use x="367.578125" xlink:href="#DejaVuSans-41"/>
     </g>
    </g>
   </g>
   <g id="matplotlib.axis_2">
    <g id="ytick_1">
     <g id="line2d_9">
      <defs>
       <path d="M 0 0 
L -3.5 0 
" id="mc80dc77cc8" style="stroke:#000000;stroke-width:0.8;"/>
      </defs>
      <g>
       <use style="stroke:#000000;stroke-width:0.8;" x="90" xlink:href="#mc80dc77cc8" y="378"/>
      </g>
     </g>
     <g id="text_10">
      <!-- −3 -->
      <g transform="translate(62.360937 383.318906)scale(0.14 -0.14)">
       <defs>
        <path d="M 10.59375 35.5 
L 73.1875 35.5 
L 73.1875 27.203125 
L 10.59375 27.203125 
z
" id="DejaVuSans-8722"/>
       </defs>
       <use xlink:href="#DejaVuSans-8722"/>
       <use x="83.789062" xlink:href="#DejaVuSans-51"/>
      </g>
     </g>
    </g>
    <g id="ytick_2">
     <g id="line2d_10">
      <g>
       <use style="stroke:#000000;stroke-width:0.8;" x="90" xlink:href="#mc80dc77cc8" y="337.23"/>
      </g>
     </g>
     <g id="text_11">
      <!-- −2 -->
      <g transform="translate(62.360937 342.548906)scale(0.14 -0.14)">
       <use xlink:href="#DejaVuSans-8722"/>
       <use x="83.789062" xlink:href="#DejaVuSans-50"/>
      </g>
     </g>
    </g>
    <g id="ytick_3">
     <g id="line2d_11">
      <g>
       <use style="stroke:#000000;stroke-width:0.8;" x="90" xlink:href="#mc80dc77cc8" y="296.46"/>
      </g>
     </g>
     <g id="text_12">
      <!-- −1 -->
      <g transform="translate(62.360937 301.778906)scale(0.14 -0.14)">
       <defs>
        <path d="M 12.40625 8.296875 
L 28.515625 8.296875 
L 28.515625 63.921875 
L 10.984375 60.40625 
L 10.984375 69.390625 
L 28.421875 72.90625 
L 38.28125 72.90625 
L 38.28125 8.296875 
L 54.390625 8.296875 
L 54.390625 0 
L 12.40625 0 
z
" id="DejaVuSans-49"/>
       </defs>
       <use xlink:href="#DejaVuSans-8722"/>
       <use x="83.789062" xlink:href="#DejaVuSans-49"/>
      </g>
     </g>
    </g>
    <g id="ytick_4">
     <g id="line2d_12">
      <g>
       <use style="stroke:#000000;stroke-width:0.8;" x="90" xlink:href="#mc80dc77cc8" y="255.69"/>
      </g>
     </g>
     <g id="text_13">
      <!-- 0 -->
      <g transform="translate(74.0925 261.008906)scale(0.14 -0.14)">
       <use xlink:href="#DejaVuSans-48"/>
      </g>
     </g>
    </g>
    <g id="ytick_5">
     <g id="line2d_13">
      <g>
       <use style="stroke:#000000;stroke-width:0.8;" x="90" xlink:href="#mc80dc77cc8" y="214.92"/>
      </g>
     </g>
     <g id="text_14">
      <!-- 1 -->
      <g transform="translate(74.0925 220.238906)scale(0.14 -0.14)">
       <use xlink:href="#DejaVuSans-49"/>
      </g>
     </g>
    </g>
    <g id="ytick_6">
     <g id="line2d_14">
      <g>
       <use style="stroke:#000000;stroke-width:0.8;" x="90" xlink:href="#mc80dc77cc8" y="174.15"/>
      </g>
     </g>
     <g id="text_15">
      <!-- 2 -->
      <g transform="translate(74.0925 179.468906)scale(0.14 -0.14)">
       <use xlink:href="#DejaVuSans-50"/>
      </g>
     </g>
    </g>
    <g id="ytick_7">
     <g id="line2d_15">
      <g>
       <use style="stroke:#000000;stroke-width:0.8;" x="90" xlink:href="#mc80dc77cc8" y="133.38"/>
      </g>
     </g>
     <g id="text_16">
      <!-- 3 -->
      <g transform="translate(74.0925 138.698906)scale(0.14 -0.14)">
       <use xlink:href="#DejaVuSans-51"/>
      </g>
     </g>
    </g>
    <g id="ytick_8">
     <g id="line2d_16">
      <g>
       <use style="stroke:#000000;stroke-width:0.8;" x="90" xlink:href="#mc80dc77cc8" y="92.61"/>
      </g>
     </g>
     <g id="text_17">
      <!-- 4 -->
      <g transform="translate(74.0925 97.928906)scale(0.14 -0.14)">
       <use xlink:href="#DejaVuSans-52"/>
      </g>
     </g>
    </g>
    <g id="ytick_9">
     <g id="line2d_17">
      <g>
       <use style="stroke:#000000;stroke-width:0.8;" x="90" xlink:href="#mc80dc77cc8" y="51.84"/>
      </g>
     </g>
     <g id="text_18">
      <!-- 5 -->
      <g transform="translate(74.0925 57.158906)scale(0.14 -0.14)">
       <defs>
        <path d="M 10.796875 72.90625 
L 49.515625 72.90625 
L 49.515625 64.59375 
L 19.828125 64.59375 
L 19.828125 46.734375 
Q 21.96875 47.46875 24.109375 47.828125 
Q 26.265625 48.1875 28.421875 48.1875 
Q 40.625 48.1875 47.75 41.5 
Q 54.890625 34.8125 54.890625 23.390625 
Q 54.890625 11.625 47.5625 5.09375 
Q 40.234375 -1.421875 26.90625 -1.421875 
Q 22.3125 -1.421875 17.546875 -0.640625 
Q 12.796875 0.140625 7.71875 1.703125 
L 7.71875 11.625 
Q 12.109375 9.234375 16.796875 8.0625 
Q 21.484375 6.890625 26.703125 6.890625 
Q 35.15625 6.890625 40.078125 11.328125 
Q 45.015625 15.765625 45.015625 23.390625 
Q 45.015625 31 40.078125 35.4375 
Q 35.15625 39.890625 26.703125 39.890625 
Q 22.75 39.890625 18.8125 39.015625 
Q 14.890625 38.140625 10.796875 36.28125 
z
" id="DejaVuSans-53"/>
       </defs>
       <use xlink:href="#DejaVuSans-53"/>
      </g>
     </g>
    </g>
    <g id="text_19">
     <!-- uV -->
     <g transform="translate(55.449375 224.144687)rotate(-90)scale(0.14 -0.14)">
      <defs>
       <path d="M 8.5 21.578125 
L 8.5 54.6875 
L 17.484375 54.6875 
L 17.484375 21.921875 
Q 17.484375 14.15625 20.5 10.265625 
Q 23.53125 6.390625 29.59375 6.390625 
Q 36.859375 6.390625 41.078125 11.03125 
Q 45.3125 15.671875 45.3125 23.6875 
L 45.3125 54.6875 
L 54.296875 54.6875 
L 54.296875 0 
L 45.3125 0 
L 45.3125 8.40625 
Q 42.046875 3.421875 37.71875 1 
Q 33.40625 -1.421875 27.6875 -1.421875 
Q 18.265625 -1.421875 13.375 4.4375 
Q 8.5 10.296875 8.5 21.578125 
z
M 31.109375 56 
z
" id="DejaVuSans-117"/>
       <path d="M 28.609375 0 
L 0.78125 72.90625 
L 11.078125 72.90625 
L 34.1875 11.53125 
L 57.328125 72.90625 
L 67.578125 72.90625 
L 39.796875 0 
z
" id="DejaVuSans-86"/>
      </defs>
      <use xlink:href="#DejaVuSans-117"/>
      <use x="63.378906" xlink:href="#DejaVuSans-86"/>
     </g>
    </g>
   </g>
   <g id="patch_4">
    <path d="M 152.805195 378 
L 647.516883 378 
" style="fill:none;stroke:#000000;stroke-linecap:square;stroke-linejoin:miter;stroke-width:0.8;"/>
   </g>
   <g id="patch_5">
    <path d="M 90 255.69 
L 648 255.69 
" style="fill:none;stroke:#000000;stroke-linecap:square;stroke-linejoin:miter;stroke-width:0.8;"/>
   </g>
   <g id="text_20">
    <!-- TP9, TP10 (mean) -->
    <g transform="translate(306.658437 45.84)scale(0.14 -0.14)">
     <defs>
      <path d="M 19.671875 64.796875 
L 19.671875 37.40625 
L 32.078125 37.40625 
Q 38.96875 37.40625 42.71875 40.96875 
Q 46.484375 44.53125 46.484375 51.125 
Q 46.484375 57.671875 42.71875 61.234375 
Q 38.96875 64.796875 32.078125 64.796875 
z
M 9.8125 72.90625 
L 32.078125 72.90625 
Q 44.34375 72.90625 50.609375 67.359375 
Q 56.890625 61.8125 56.890625 51.125 
Q 56.890625 40.328125 50.609375 34.8125 
Q 44.34375 29.296875 32.078125 29.296875 
L 19.671875 29.296875 
L 19.671875 0 
L 9.8125 0 
z
" id="DejaVuSans-80"/>
      <path d="M 10.984375 1.515625 
L 10.984375 10.5 
Q 14.703125 8.734375 18.5 7.8125 
Q 22.3125 6.890625 25.984375 6.890625 
Q 35.75 6.890625 40.890625 13.453125 
Q 46.046875 20.015625 46.78125 33.40625 
Q 43.953125 29.203125 39.59375 26.953125 
Q 35.25 24.703125 29.984375 24.703125 
Q 19.046875 24.703125 12.671875 31.3125 
Q 6.296875 37.9375 6.296875 49.421875 
Q 6.296875 60.640625 12.9375 67.421875 
Q 19.578125 74.21875 30.609375 74.21875 
Q 43.265625 74.21875 49.921875 64.515625 
Q 56.59375 54.828125 56.59375 36.375 
Q 56.59375 19.140625 48.40625 8.859375 
Q 40.234375 -1.421875 26.421875 -1.421875 
Q 22.703125 -1.421875 18.890625 -0.6875 
Q 15.09375 0.046875 10.984375 1.515625 
z
M 30.609375 32.421875 
Q 37.25 32.421875 41.125 36.953125 
Q 45.015625 41.5 45.015625 49.421875 
Q 45.015625 57.28125 41.125 61.84375 
Q 37.25 66.40625 30.609375 66.40625 
Q 23.96875 66.40625 20.09375 61.84375 
Q 16.21875 57.28125 16.21875 49.421875 
Q 16.21875 41.5 20.09375 36.953125 
Q 23.96875 32.421875 30.609375 32.421875 
z
" id="DejaVuSans-57"/>
      <path d="M 11.71875 12.40625 
L 22.015625 12.40625 
L 22.015625 4 
L 14.015625 -11.625 
L 7.71875 -11.625 
L 11.71875 4 
z
" id="DejaVuSans-44"/>
      <path d="M 34.28125 27.484375 
Q 23.390625 27.484375 19.1875 25 
Q 14.984375 22.515625 14.984375 16.5 
Q 14.984375 11.71875 18.140625 8.90625 
Q 21.296875 6.109375 26.703125 6.109375 
Q 34.1875 6.109375 38.703125 11.40625 
Q 43.21875 16.703125 43.21875 25.484375 
L 43.21875 27.484375 
z
M 52.203125 31.203125 
L 52.203125 0 
L 43.21875 0 
L 43.21875 8.296875 
Q 40.140625 3.328125 35.546875 0.953125 
Q 30.953125 -1.421875 24.3125 -1.421875 
Q 15.921875 -1.421875 10.953125 3.296875 
Q 6 8.015625 6 15.921875 
Q 6 25.140625 12.171875 29.828125 
Q 18.359375 34.515625 30.609375 34.515625 
L 43.21875 34.515625 
L 43.21875 35.40625 
Q 43.21875 41.609375 39.140625 45 
Q 35.0625 48.390625 27.6875 48.390625 
Q 23 48.390625 18.546875 47.265625 
Q 14.109375 46.140625 10.015625 43.890625 
L 10.015625 52.203125 
Q 14.9375 54.109375 19.578125 55.046875 
Q 24.21875 56 28.609375 56 
Q 40.484375 56 46.34375 49.84375 
Q 52.203125 43.703125 52.203125 31.203125 
z
" id="DejaVuSans-97"/>
      <path d="M 54.890625 33.015625 
L 54.890625 0 
L 45.90625 0 
L 45.90625 32.71875 
Q 45.90625 40.484375 42.875 44.328125 
Q 39.84375 48.1875 33.796875 48.1875 
Q 26.515625 48.1875 22.3125 43.546875 
Q 18.109375 38.921875 18.109375 30.90625 
L 18.109375 0 
L 9.078125 0 
L 9.078125 54.6875 
L 18.109375 54.6875 
L 18.109375 46.1875 
Q 21.34375 51.125 25.703125 53.5625 
Q 30.078125 56 35.796875 56 
Q 45.21875 56 50.046875 50.171875 
Q 54.890625 44.34375 54.890625 33.015625 
z
" id="DejaVuSans-110"/>
     </defs>
     <use xlink:href="#DejaVuSans-84"/>
     <use x="61.083984" xlink:href="#DejaVuSans-80"/>
     <use x="121.386719" xlink:href="#DejaVuSans-57"/>
     <use x="185.009766" xlink:href="#DejaVuSans-44"/>
     <use x="216.796875" xlink:href="#DejaVuSans-32"/>
     <use x="248.583984" xlink:href="#DejaVuSans-84"/>
     <use x="309.667969" xlink:href="#DejaVuSans-80"/>
     <use x="369.970703" xlink:href="#DejaVuSans-49"/>
     <use x="433.59375" xlink:href="#DejaVuSans-48"/>
     <use x="497.216797" xlink:href="#DejaVuSans-32"/>
     <use x="529.003906" xlink:href="#DejaVuSans-40"/>
     <use x="568.017578" xlink:href="#DejaVuSans-109"/>
     <use x="665.429688" xlink:href="#DejaVuSans-101"/>
     <use x="726.953125" xlink:href="#DejaVuSans-97"/>
     <use x="788.232422" xlink:href="#DejaVuSans-110"/>
     <use x="851.611328" xlink:href="#DejaVuSans-41"/>
    </g>
   </g>
   <g id="PolyCollection_1">
    <defs>
     <path d="M 90 -199.329795 
L 90 -172.830705 
L 92.415584 -172.051561 
L 94.831169 -171.761159 
L 97.246753 -171.557922 
L 99.662338 -171.033669 
L 102.077922 -170.225934 
L 104.493506 -169.072309 
L 106.909091 -167.983818 
L 109.324675 -165.890067 
L 111.74026 -164.20682 
L 114.155844 -163.046253 
L 116.571429 -162.623197 
L 118.987013 -162.415311 
L 121.402597 -162.959392 
L 123.818182 -164.069354 
L 126.233766 -165.196191 
L 128.649351 -166.442308 
L 131.064935 -166.118331 
L 133.480519 -165.275785 
L 135.896104 -163.513317 
L 138.311688 -161.699792 
L 140.727273 -160.300376 
L 143.142857 -158.921557 
L 145.558442 -157.574478 
L 147.974026 -156.470265 
L 150.38961 -154.750537 
L 152.805195 -153.354251 
L 155.220779 -151.426451 
L 157.636364 -149.817739 
L 160.051948 -148.795993 
L 162.467532 -147.684964 
L 164.883117 -146.4668 
L 167.298701 -144.810766 
L 169.714286 -143.291303 
L 172.12987 -142.549474 
L 174.545455 -142.131931 
L 176.961039 -141.832438 
L 179.376623 -142.475419 
L 181.792208 -143.533816 
L 184.207792 -144.942873 
L 186.623377 -147.026947 
L 189.038961 -148.80365 
L 191.454545 -150.486539 
L 193.87013 -152.186227 
L 196.285714 -153.573377 
L 198.701299 -154.040747 
L 201.116883 -153.594626 
L 203.532468 -152.4519 
L 205.948052 -150.923739 
L 208.363636 -148.943368 
L 210.779221 -147.342142 
L 213.194805 -145.618951 
L 215.61039 -144.917722 
L 218.025974 -144.602252 
L 220.441558 -144.269022 
L 222.857143 -143.812784 
L 225.272727 -144.08524 
L 227.688312 -144.665123 
L 230.103896 -147.028299 
L 232.519481 -150.714056 
L 234.935065 -156.628021 
L 237.350649 -164.493059 
L 239.766234 -174.130546 
L 242.181818 -185.279957 
L 244.597403 -196.816065 
L 247.012987 -206.640376 
L 249.428571 -215.115406 
L 251.844156 -221.334057 
L 254.25974 -225.485662 
L 256.675325 -226.891377 
L 259.090909 -227.078075 
L 261.506494 -224.453595 
L 263.922078 -222.040078 
L 266.337662 -219.949383 
L 268.753247 -217.946919 
L 271.168831 -218.473421 
L 273.584416 -220.978063 
L 276 -223.776252 
L 278.415584 -227.892897 
L 280.831169 -231.458508 
L 283.246753 -235.688032 
L 285.662338 -239.923932 
L 288.077922 -244.245167 
L 290.493506 -249.017391 
L 292.909091 -254.928777 
L 295.324675 -261.951482 
L 297.74026 -268.911205 
L 300.155844 -276.993824 
L 302.571429 -285.12371 
L 304.987013 -291.686904 
L 307.402597 -297.296051 
L 309.818182 -301.600611 
L 312.233766 -303.015595 
L 314.649351 -302.015442 
L 317.064935 -299.206288 
L 319.480519 -294.563872 
L 321.896104 -288.829124 
L 324.311688 -282.70144 
L 326.727273 -276.484511 
L 329.142857 -270.401909 
L 331.558442 -264.082331 
L 333.974026 -257.763195 
L 336.38961 -251.767481 
L 338.805195 -245.692985 
L 341.220779 -239.980307 
L 343.636364 -234.154082 
L 346.051948 -229.225979 
L 348.467532 -224.403532 
L 350.883117 -219.856913 
L 353.298701 -217.297297 
L 355.714286 -215.422672 
L 358.12987 -214.46265 
L 360.545455 -214.997963 
L 362.961039 -216.130134 
L 365.376623 -218.098285 
L 367.792208 -219.902452 
L 370.207792 -221.622295 
L 372.623377 -223.430918 
L 375.038961 -225.477002 
L 377.454545 -227.635153 
L 379.87013 -230.748424 
L 382.285714 -233.969487 
L 384.701299 -237.27721 
L 387.116883 -240.713372 
L 389.532468 -243.21713 
L 391.948052 -244.932961 
L 394.363636 -245.316875 
L 396.779221 -243.987985 
L 399.194805 -241.490866 
L 401.61039 -238.091015 
L 404.025974 -233.095168 
L 406.441558 -228.444463 
L 408.857143 -223.084824 
L 411.272727 -217.656653 
L 413.688312 -212.638318 
L 416.103896 -208.452789 
L 418.519481 -204.254015 
L 420.935065 -201.411029 
L 423.350649 -198.278647 
L 425.766234 -196.052293 
L 428.181818 -193.544862 
L 430.597403 -191.524894 
L 433.012987 -189.613794 
L 435.428571 -187.565654 
L 437.844156 -185.797479 
L 440.25974 -183.444212 
L 442.675325 -181.805844 
L 445.090909 -180.6801 
L 447.506494 -179.812338 
L 449.922078 -177.864604 
L 452.337662 -175.720956 
L 454.753247 -173.731722 
L 457.168831 -171.524322 
L 459.584416 -169.440886 
L 462 -168.329242 
L 464.415584 -166.926198 
L 466.831169 -166.078168 
L 469.246753 -166.398626 
L 471.662338 -166.237268 
L 474.077922 -166.138181 
L 476.493506 -167.086443 
L 478.909091 -168.652563 
L 481.324675 -170.640552 
L 483.74026 -171.516795 
L 486.155844 -171.613557 
L 488.571429 -170.012031 
L 490.987013 -167.972041 
L 493.402597 -164.317726 
L 495.818182 -159.925307 
L 498.233766 -154.742055 
L 500.649351 -150.330951 
L 503.064935 -146.511657 
L 505.480519 -144.148316 
L 507.896104 -142.56515 
L 510.311688 -141.82437 
L 512.727273 -141.515901 
L 515.142857 -141.800025 
L 517.558442 -141.904544 
L 519.974026 -143.47713 
L 522.38961 -146.12623 
L 524.805195 -149.122797 
L 527.220779 -152.072767 
L 529.636364 -154.412405 
L 532.051948 -156.872573 
L 534.467532 -159.032255 
L 536.883117 -161.206719 
L 539.298701 -162.87289 
L 541.714286 -163.990341 
L 544.12987 -164.574257 
L 546.545455 -164.405225 
L 548.961039 -165.054635 
L 551.376623 -165.084833 
L 553.792208 -165.048048 
L 556.207792 -166.157488 
L 558.623377 -167.575157 
L 561.038961 -169.700969 
L 563.454545 -171.477855 
L 565.87013 -172.919348 
L 568.285714 -173.000007 
L 570.701299 -171.527786 
L 573.116883 -169.796702 
L 575.532468 -166.733013 
L 577.948052 -163.846968 
L 580.363636 -159.186387 
L 582.779221 -153.978199 
L 585.194805 -149.135428 
L 587.61039 -147.381554 
L 590.025974 -147.261275 
L 592.441558 -149.476031 
L 594.857143 -153.583066 
L 597.272727 -159.176399 
L 599.688312 -162.600225 
L 602.103896 -165.984304 
L 604.519481 -168.106632 
L 606.935065 -169.427173 
L 609.350649 -170.964909 
L 611.766234 -171.564581 
L 614.181818 -172.331745 
L 616.597403 -173.930082 
L 619.012987 -176.301095 
L 621.428571 -178.767849 
L 623.844156 -181.999594 
L 626.25974 -186.067576 
L 628.675325 -190.153609 
L 631.090909 -194.773145 
L 633.506494 -199.482743 
L 635.922078 -202.919617 
L 638.337662 -206.269761 
L 640.753247 -208.56155 
L 643.168831 -210.877893 
L 645.584416 -212.746445 
L 648 -214.26464 
L 648 -245.27917 
L 648 -245.27917 
L 645.584416 -241.886237 
L 643.168831 -239.073825 
L 640.753247 -236.083692 
L 638.337662 -233.488196 
L 635.922078 -230.782054 
L 633.506494 -228.072904 
L 631.090909 -225.277142 
L 628.675325 -222.81857 
L 626.25974 -220.796729 
L 623.844156 -218.553795 
L 621.428571 -216.759794 
L 619.012987 -215.31922 
L 616.597403 -214.907237 
L 614.181818 -213.635537 
L 611.766234 -213.424997 
L 609.350649 -212.297722 
L 606.935065 -211.348337 
L 604.519481 -209.70368 
L 602.103896 -207.651331 
L 599.688312 -204.650465 
L 597.272727 -201.245956 
L 594.857143 -197.742102 
L 592.441558 -194.73929 
L 590.025974 -192.385829 
L 587.61039 -190.769375 
L 585.194805 -190.480955 
L 582.779221 -190.342364 
L 580.363636 -191.814431 
L 577.948052 -194.844485 
L 575.532468 -198.359014 
L 573.116883 -201.346556 
L 570.701299 -203.454974 
L 568.285714 -203.556689 
L 565.87013 -202.184507 
L 563.454545 -199.709007 
L 561.038961 -197.430125 
L 558.623377 -195.861066 
L 556.207792 -194.324592 
L 553.792208 -193.196954 
L 551.376623 -193.189219 
L 548.961039 -194.335264 
L 546.545455 -197.225455 
L 544.12987 -201.015326 
L 541.714286 -204.114067 
L 539.298701 -205.400525 
L 536.883117 -203.808085 
L 534.467532 -200.943298 
L 532.051948 -195.560026 
L 529.636364 -189.634407 
L 527.220779 -184.483868 
L 524.805195 -181.118728 
L 522.38961 -178.313522 
L 519.974026 -176.642869 
L 517.558442 -176.288499 
L 515.142857 -177.095188 
L 512.727273 -178.570567 
L 510.311688 -180.711697 
L 507.896104 -183.661411 
L 505.480519 -187.569924 
L 503.064935 -191.344971 
L 500.649351 -195.092503 
L 498.233766 -198.975164 
L 495.818182 -202.434029 
L 493.402597 -207.012255 
L 490.987013 -211.602494 
L 488.571429 -216.533127 
L 486.155844 -221.062407 
L 483.74026 -224.674142 
L 481.324675 -226.732371 
L 478.909091 -228.266295 
L 476.493506 -227.526497 
L 474.077922 -226.057461 
L 471.662338 -224.969839 
L 469.246753 -223.815166 
L 466.831169 -223.075592 
L 464.415584 -223.512579 
L 462 -224.288216 
L 459.584416 -225.499688 
L 457.168831 -227.678111 
L 454.753247 -229.448275 
L 452.337662 -231.705113 
L 449.922078 -234.313055 
L 447.506494 -235.812759 
L 445.090909 -238.049274 
L 442.675325 -239.853788 
L 440.25974 -241.035387 
L 437.844156 -241.683241 
L 435.428571 -241.921046 
L 433.012987 -242.46332 
L 430.597403 -243.690391 
L 428.181818 -243.957971 
L 425.766234 -244.767106 
L 423.350649 -246.092329 
L 420.935065 -248.1068 
L 418.519481 -250.888796 
L 416.103896 -254.41761 
L 413.688312 -258.780068 
L 411.272727 -263.923347 
L 408.857143 -269.804236 
L 406.441558 -275.920944 
L 404.025974 -281.226964 
L 401.61039 -285.850368 
L 399.194805 -289.428407 
L 396.779221 -291.74647 
L 394.363636 -291.863573 
L 391.948052 -290.054661 
L 389.532468 -286.272779 
L 387.116883 -281.389077 
L 384.701299 -276.793022 
L 382.285714 -272.176924 
L 379.87013 -267.053461 
L 377.454545 -262.947923 
L 375.038961 -259.119081 
L 372.623377 -256.392105 
L 370.207792 -254.358573 
L 367.792208 -252.735783 
L 365.376623 -251.460103 
L 362.961039 -250.712045 
L 360.545455 -250.341247 
L 358.12987 -250.385783 
L 355.714286 -252.51037 
L 353.298701 -255.557681 
L 350.883117 -260.010915 
L 348.467532 -266.327079 
L 346.051948 -273.918552 
L 343.636364 -281.536088 
L 341.220779 -290.133099 
L 338.805195 -298.063145 
L 336.38961 -305.762307 
L 333.974026 -312.839092 
L 331.558442 -319.435061 
L 329.142857 -326.370763 
L 326.727273 -332.546451 
L 324.311688 -338.161685 
L 321.896104 -343.866156 
L 319.480519 -349.56908 
L 317.064935 -353.68974 
L 314.649351 -356.857296 
L 312.233766 -356.618667 
L 309.818182 -355.026638 
L 307.402597 -351.205341 
L 304.987013 -345.850135 
L 302.571429 -340.018373 
L 300.155844 -334.125266 
L 297.74026 -329.222434 
L 295.324675 -324.054362 
L 292.909091 -319.734076 
L 290.493506 -317.524205 
L 288.077922 -315.149363 
L 285.662338 -313.808863 
L 283.246753 -311.675349 
L 280.831169 -309.819216 
L 278.415584 -307.038614 
L 276 -304.527228 
L 273.584416 -301.040341 
L 271.168831 -297.605425 
L 268.753247 -294.500271 
L 266.337662 -291.965876 
L 263.922078 -290.432552 
L 261.506494 -287.556097 
L 259.090909 -284.114223 
L 256.675325 -280.16371 
L 254.25974 -273.365776 
L 251.844156 -266.150623 
L 249.428571 -256.442781 
L 247.012987 -245.184421 
L 244.597403 -233.799229 
L 242.181818 -221.858568 
L 239.766234 -210.999118 
L 237.350649 -202.091512 
L 234.935065 -194.886373 
L 232.519481 -188.820174 
L 230.103896 -185.763274 
L 227.688312 -183.565584 
L 225.272727 -182.228291 
L 222.857143 -182.065137 
L 220.441558 -182.398467 
L 218.025974 -183.444981 
L 215.61039 -183.579494 
L 213.194805 -184.095524 
L 210.779221 -185.139221 
L 208.363636 -185.965617 
L 205.948052 -187.037822 
L 203.532468 -187.800765 
L 201.116883 -187.883975 
L 198.701299 -188.023204 
L 196.285714 -187.403597 
L 193.87013 -186.897518 
L 191.454545 -186.005502 
L 189.038961 -184.907969 
L 186.623377 -184.083138 
L 184.207792 -183.553661 
L 181.792208 -183.245335 
L 179.376623 -182.870657 
L 176.961039 -182.626252 
L 174.545455 -182.301238 
L 172.12987 -181.964412 
L 169.714286 -180.934878 
L 167.298701 -179.779777 
L 164.883117 -178.783944 
L 162.467532 -178.42648 
L 160.051948 -178.522484 
L 157.636364 -179.029518 
L 155.220779 -179.837459 
L 152.805195 -180.961913 
L 150.38961 -182.003345 
L 147.974026 -182.71326 
L 145.558442 -182.861259 
L 143.142857 -183.446659 
L 140.727273 -183.660522 
L 138.311688 -184.269865 
L 135.896104 -184.723561 
L 133.480519 -184.925893 
L 131.064935 -184.889222 
L 128.649351 -184.688085 
L 126.233766 -185.678467 
L 123.818182 -186.106354 
L 121.402597 -186.793105 
L 118.987013 -187.785098 
L 116.571429 -188.231356 
L 114.155844 -188.964786 
L 111.74026 -189.995479 
L 109.324675 -190.406369 
L 106.909091 -191.050541 
L 104.493506 -191.027771 
L 102.077922 -191.213977 
L 99.662338 -191.997406 
L 97.246753 -193.884745 
L 94.831169 -195.911262 
L 92.415584 -197.671386 
L 90 -199.329795 
z
" id="m7f4b86d054" style="stroke:#ff0000;stroke-opacity:0.3;"/>
    </defs>
    <g>
     <use style="fill:#ff0000;fill-opacity:0.3;stroke:#ff0000;stroke-opacity:0.3;" x="0" xlink:href="#m7f4b86d054" y="432"/>
    </g>
   </g>
   <g id="PolyCollection_2">
    <defs>
     <path d="M 90 -188.457545 
L 90 -160.088061 
L 92.415584 -161.920512 
L 94.831169 -163.566268 
L 97.246753 -164.480877 
L 99.662338 -164.586357 
L 102.077922 -163.78446 
L 104.493506 -162.94462 
L 106.909091 -162.798793 
L 109.324675 -162.862947 
L 111.74026 -164.456358 
L 114.155844 -165.854672 
L 116.571429 -166.942465 
L 118.987013 -168.185606 
L 121.402597 -169.371509 
L 123.818182 -169.58328 
L 126.233766 -169.635021 
L 128.649351 -169.185712 
L 131.064935 -168.795433 
L 133.480519 -168.04772 
L 135.896104 -167.693319 
L 138.311688 -166.988993 
L 140.727273 -165.690585 
L 143.142857 -163.607381 
L 145.558442 -160.871903 
L 147.974026 -157.646728 
L 150.38961 -153.78112 
L 152.805195 -151.304771 
L 155.220779 -148.779283 
L 157.636364 -146.655416 
L 160.051948 -145.06709 
L 162.467532 -144.250755 
L 164.883117 -143.496492 
L 167.298701 -144.087404 
L 169.714286 -144.530468 
L 172.12987 -144.551297 
L 174.545455 -145.045465 
L 176.961039 -146.174423 
L 179.376623 -147.794708 
L 181.792208 -150.372856 
L 184.207792 -153.020638 
L 186.623377 -156.38277 
L 189.038961 -159.89878 
L 191.454545 -163.162945 
L 193.87013 -164.93466 
L 196.285714 -166.977481 
L 198.701299 -167.001612 
L 201.116883 -166.239726 
L 203.532468 -164.684527 
L 205.948052 -162.610958 
L 208.363636 -159.903256 
L 210.779221 -156.270181 
L 213.194805 -151.646128 
L 215.61039 -149.155782 
L 218.025974 -146.586458 
L 220.441558 -144.841019 
L 222.857143 -143.916507 
L 225.272727 -144.011133 
L 227.688312 -146.459104 
L 230.103896 -150.524671 
L 232.519481 -156.701784 
L 234.935065 -164.752518 
L 237.350649 -174.267539 
L 239.766234 -184.758449 
L 242.181818 -195.779213 
L 244.597403 -205.985747 
L 247.012987 -216.478946 
L 249.428571 -225.28745 
L 251.844156 -232.113686 
L 254.25974 -237.212731 
L 256.675325 -239.783639 
L 259.090909 -241.815598 
L 261.506494 -241.638836 
L 263.922078 -240.860855 
L 266.337662 -239.118359 
L 268.753247 -236.515561 
L 271.168831 -234.444805 
L 273.584416 -233.16474 
L 276 -232.925142 
L 278.415584 -233.293789 
L 280.831169 -236.390672 
L 283.246753 -240.008337 
L 285.662338 -245.059104 
L 288.077922 -251.341933 
L 290.493506 -258.302246 
L 292.909091 -265.82291 
L 295.324675 -272.611917 
L 297.74026 -278.113879 
L 300.155844 -283.245413 
L 302.571429 -287.250725 
L 304.987013 -289.025468 
L 307.402597 -287.494145 
L 309.818182 -286.260835 
L 312.233766 -283.687298 
L 314.649351 -278.984904 
L 317.064935 -274.479655 
L 319.480519 -268.952828 
L 321.896104 -262.684831 
L 324.311688 -255.697314 
L 326.727273 -248.957047 
L 329.142857 -241.586683 
L 331.558442 -234.313907 
L 333.974026 -226.404114 
L 336.38961 -218.835991 
L 338.805195 -211.736584 
L 341.220779 -204.466566 
L 343.636364 -199.174124 
L 346.051948 -196.005611 
L 348.467532 -194.585247 
L 350.883117 -196.122283 
L 353.298701 -198.812961 
L 355.714286 -202.838631 
L 358.12987 -206.706605 
L 360.545455 -211.305907 
L 362.961039 -215.795227 
L 365.376623 -219.62056 
L 367.792208 -223.574172 
L 370.207792 -226.201507 
L 372.623377 -227.403618 
L 375.038961 -228.93893 
L 377.454545 -230.66468 
L 379.87013 -233.893846 
L 382.285714 -237.537055 
L 384.701299 -242.420659 
L 387.116883 -247.422702 
L 389.532468 -252.384927 
L 391.948052 -256.052611 
L 394.363636 -258.005995 
L 396.779221 -257.137168 
L 399.194805 -254.050339 
L 401.61039 -248.629641 
L 404.025974 -242.415405 
L 406.441558 -234.986974 
L 408.857143 -227.607387 
L 411.272727 -221.351016 
L 413.688312 -217.010197 
L 416.103896 -214.249851 
L 418.519481 -213.29905 
L 420.935065 -213.209179 
L 423.350649 -213.495285 
L 425.766234 -213.14314 
L 428.181818 -213.387454 
L 430.597403 -212.869472 
L 433.012987 -211.697018 
L 435.428571 -210.24821 
L 437.844156 -208.910989 
L 440.25974 -207.41552 
L 442.675325 -206.567218 
L 445.090909 -205.344487 
L 447.506494 -204.750169 
L 449.922078 -204.233396 
L 452.337662 -204.204827 
L 454.753247 -205.633391 
L 457.168831 -207.195487 
L 459.584416 -209.274779 
L 462 -210.932584 
L 464.415584 -211.778834 
L 466.831169 -211.734533 
L 469.246753 -210.179038 
L 471.662338 -207.506696 
L 474.077922 -204.252776 
L 476.493506 -200.212725 
L 478.909091 -195.545258 
L 481.324675 -190.253554 
L 483.74026 -184.031299 
L 486.155844 -178.343215 
L 488.571429 -173.511378 
L 490.987013 -168.786406 
L 493.402597 -164.913685 
L 495.818182 -161.467744 
L 498.233766 -158.755791 
L 500.649351 -156.404492 
L 503.064935 -154.186175 
L 505.480519 -152.0435 
L 507.896104 -151.108964 
L 510.311688 -151.232684 
L 512.727273 -151.727184 
L 515.142857 -152.156034 
L 517.558442 -153.20436 
L 519.974026 -153.754581 
L 522.38961 -154.068633 
L 524.805195 -153.424615 
L 527.220779 -152.849783 
L 529.636364 -152.434642 
L 532.051948 -151.951138 
L 534.467532 -151.41046 
L 536.883117 -151.22737 
L 539.298701 -151.848585 
L 541.714286 -152.360549 
L 544.12987 -153.987883 
L 546.545455 -155.253906 
L 548.961039 -156.918045 
L 551.376623 -158.017143 
L 553.792208 -158.799686 
L 556.207792 -159.711374 
L 558.623377 -160.638983 
L 561.038961 -160.90075 
L 563.454545 -160.795056 
L 565.87013 -160.339051 
L 568.285714 -159.759829 
L 570.701299 -158.327431 
L 573.116883 -157.862308 
L 575.532468 -158.058374 
L 577.948052 -158.968069 
L 580.363636 -160.487216 
L 582.779221 -162.309932 
L 585.194805 -165.159279 
L 587.61039 -168.063087 
L 590.025974 -170.651433 
L 592.441558 -172.558656 
L 594.857143 -173.877266 
L 597.272727 -174.824995 
L 599.688312 -174.916476 
L 602.103896 -175.158382 
L 604.519481 -175.639995 
L 606.935065 -176.385392 
L 609.350649 -177.449552 
L 611.766234 -179.069389 
L 614.181818 -180.493698 
L 616.597403 -182.595178 
L 619.012987 -184.658897 
L 621.428571 -187.16032 
L 623.844156 -189.455505 
L 626.25974 -191.310037 
L 628.675325 -193.364389 
L 631.090909 -194.517895 
L 633.506494 -195.505519 
L 635.922078 -195.807435 
L 638.337662 -196.221529 
L 640.753247 -196.074284 
L 643.168831 -196.61072 
L 645.584416 -197.269853 
L 648 -198.720936 
L 648 -244.893434 
L 648 -244.893434 
L 645.584416 -242.892802 
L 643.168831 -241.179019 
L 640.753247 -239.849921 
L 638.337662 -238.893627 
L 635.922078 -237.041547 
L 633.506494 -235.607003 
L 631.090909 -233.309763 
L 628.675325 -231.14934 
L 626.25974 -228.457095 
L 623.844156 -224.886319 
L 621.428571 -221.646492 
L 619.012987 -218.755401 
L 616.597403 -216.420956 
L 614.181818 -213.802099 
L 611.766234 -211.396071 
L 609.350649 -209.444215 
L 606.935065 -207.572932 
L 604.519481 -205.966364 
L 602.103896 -204.341769 
L 599.688312 -203.038028 
L 597.272727 -202.521758 
L 594.857143 -201.670336 
L 592.441558 -201.333303 
L 590.025974 -200.785785 
L 587.61039 -200.166037 
L 585.194805 -199.544148 
L 582.779221 -198.415022 
L 580.363636 -197.275482 
L 577.948052 -196.114626 
L 575.532468 -194.630701 
L 573.116883 -193.628391 
L 570.701299 -193.256313 
L 568.285714 -194.333288 
L 565.87013 -196.089652 
L 563.454545 -197.588294 
L 561.038961 -198.372641 
L 558.623377 -197.930406 
L 556.207792 -196.190765 
L 553.792208 -193.392489 
L 551.376623 -191.228874 
L 548.961039 -189.284166 
L 546.545455 -189.280741 
L 544.12987 -189.072767 
L 541.714286 -190.069133 
L 539.298701 -191.061481 
L 536.883117 -192.399993 
L 534.467532 -193.398262 
L 532.051948 -194.47317 
L 529.636364 -194.192104 
L 527.220779 -193.496826 
L 524.805195 -192.478782 
L 522.38961 -191.007498 
L 519.974026 -189.599975 
L 517.558442 -187.852475 
L 515.142857 -187.549495 
L 512.727273 -187.270649 
L 510.311688 -187.375731 
L 507.896104 -187.956005 
L 505.480519 -189.723696 
L 503.064935 -192.425029 
L 500.649351 -195.549929 
L 498.233766 -199.241438 
L 495.818182 -203.771431 
L 493.402597 -208.514818 
L 490.987013 -213.150378 
L 488.571429 -218.018939 
L 486.155844 -223.018142 
L 483.74026 -227.518407 
L 481.324675 -232.823276 
L 478.909091 -238.596112 
L 476.493506 -243.5569 
L 474.077922 -248.149764 
L 471.662338 -252.296579 
L 469.246753 -255.367969 
L 466.831169 -257.595297 
L 464.415584 -257.634044 
L 462 -257.038822 
L 459.584416 -255.755546 
L 457.168831 -253.759146 
L 454.753247 -251.090002 
L 452.337662 -249.315298 
L 449.922078 -248.238606 
L 447.506494 -247.368935 
L 445.090909 -248.665924 
L 442.675325 -251.294053 
L 440.25974 -256.009064 
L 437.844156 -260.188915 
L 435.428571 -264.320741 
L 433.012987 -266.418902 
L 430.597403 -266.577188 
L 428.181818 -265.561501 
L 425.766234 -263.851624 
L 423.350649 -261.509774 
L 420.935065 -260.65389 
L 418.519481 -261.038257 
L 416.103896 -262.569926 
L 413.688312 -266.190351 
L 411.272727 -271.684876 
L 408.857143 -277.913169 
L 406.441558 -284.89614 
L 404.025974 -291.773592 
L 401.61039 -298.090879 
L 399.194805 -302.488385 
L 396.779221 -304.782254 
L 394.363636 -304.180428 
L 391.948052 -302.114232 
L 389.532468 -298.217895 
L 387.116883 -293.441842 
L 384.701299 -288.364528 
L 382.285714 -284.012372 
L 379.87013 -280.581879 
L 377.454545 -277.531518 
L 375.038961 -275.560084 
L 372.623377 -275.082778 
L 370.207792 -273.805011 
L 367.792208 -272.348304 
L 365.376623 -270.018654 
L 362.961039 -266.991604 
L 360.545455 -264.188601 
L 358.12987 -261.489627 
L 355.714286 -259.160605 
L 353.298701 -258.132715 
L 350.883117 -258.227895 
L 348.467532 -260.31984 
L 346.051948 -263.580206 
L 343.636364 -268.075479 
L 341.220779 -273.38489 
L 338.805195 -280.112822 
L 336.38961 -286.093091 
L 333.974026 -292.563796 
L 331.558442 -299.608879 
L 329.142857 -305.214139 
L 326.727273 -310.03748 
L 324.311688 -315.617013 
L 321.896104 -320.106448 
L 319.480519 -323.965252 
L 317.064935 -327.985526 
L 314.649351 -333.100939 
L 312.233766 -337.228718 
L 309.818182 -341.287973 
L 307.402597 -344.537831 
L 304.987013 -345.634597 
L 302.571429 -346.300444 
L 300.155844 -345.807596 
L 297.74026 -344.483845 
L 295.324675 -343.031673 
L 292.909091 -341.157842 
L 290.493506 -339.540408 
L 288.077922 -336.07206 
L 285.662338 -333.646385 
L 283.246753 -330.257265 
L 280.831169 -326.851409 
L 278.415584 -322.977099 
L 276 -319.163845 
L 273.584416 -315.302739 
L 271.168831 -311.897145 
L 268.753247 -309.446165 
L 266.337662 -306.764128 
L 263.922078 -305.085996 
L 261.506494 -304.635583 
L 259.090909 -303.811091 
L 256.675325 -302.549995 
L 254.25974 -297.604232 
L 251.844156 -292.00988 
L 249.428571 -283.81721 
L 247.012987 -272.786165 
L 244.597403 -260.460829 
L 242.181818 -247.521479 
L 239.766234 -235.691934 
L 237.350649 -225.570942 
L 234.935065 -216.128601 
L 232.519481 -209.036135 
L 230.103896 -204.017156 
L 227.688312 -200.368804 
L 225.272727 -197.810036 
L 222.857143 -196.469377 
L 220.441558 -196.513751 
L 218.025974 -196.733541 
L 215.61039 -197.895862 
L 213.194805 -199.326712 
L 210.779221 -201.94763 
L 208.363636 -205.130611 
L 205.948052 -207.757215 
L 203.532468 -210.455817 
L 201.116883 -212.696177 
L 198.701299 -212.402377 
L 196.285714 -211.084821 
L 193.87013 -208.851671 
L 191.454545 -206.357271 
L 189.038961 -203.211688 
L 186.623377 -199.220362 
L 184.207792 -195.66538 
L 181.792208 -192.138133 
L 179.376623 -189.355307 
L 176.961039 -186.277039 
L 174.545455 -184.542258 
L 172.12987 -182.617962 
L 169.714286 -181.440585 
L 167.298701 -181.804335 
L 164.883117 -182.798997 
L 162.467532 -184.597598 
L 160.051948 -187.038173 
L 157.636364 -188.707768 
L 155.220779 -189.177199 
L 152.805195 -189.230143 
L 150.38961 -188.699144 
L 147.974026 -188.050742 
L 145.558442 -187.301307 
L 143.142857 -187.345207 
L 140.727273 -188.78397 
L 138.311688 -190.153599 
L 135.896104 -191.481074 
L 133.480519 -192.33347 
L 131.064935 -191.954697 
L 128.649351 -190.971426 
L 126.233766 -189.869766 
L 123.818182 -188.201846 
L 121.402597 -186.620735 
L 118.987013 -185.389034 
L 116.571429 -184.346387 
L 114.155844 -184.444391 
L 111.74026 -185.204753 
L 109.324675 -186.322369 
L 106.909091 -187.49482 
L 104.493506 -188.174814 
L 102.077922 -188.356008 
L 99.662338 -188.874334 
L 97.246753 -188.896631 
L 94.831169 -188.939609 
L 92.415584 -188.864673 
L 90 -188.457545 
z
" id="mcefc168c4a" style="stroke:#0000ff;stroke-opacity:0.3;"/>
    </defs>
    <g>
     <use style="fill:#0000ff;fill-opacity:0.3;stroke:#0000ff;stroke-opacity:0.3;" x="0" xlink:href="#mcefc168c4a" y="432"/>
    </g>
   </g>
   <g id="line2d_18">
    <path d="M 90 246.608554 
L 92.415584 247.858472 
L 94.831169 248.862323 
L 99.662338 250.400856 
L 104.493506 251.914949 
L 109.324675 253.765335 
L 114.155844 255.552376 
L 116.571429 256.180424 
L 118.987013 256.536042 
L 121.402597 256.622382 
L 128.649351 256.251907 
L 131.064935 256.363948 
L 133.480519 256.753056 
L 135.896104 257.426074 
L 138.311688 258.330338 
L 143.142857 260.5035 
L 150.38961 263.846973 
L 155.220779 265.870703 
L 157.636364 266.749848 
L 160.051948 267.500762 
L 162.467532 268.115931 
L 167.298701 269.025809 
L 172.12987 269.638588 
L 174.545455 269.79035 
L 176.961039 269.754581 
L 179.376623 269.44673 
L 181.792208 268.797398 
L 184.207792 267.784215 
L 186.623377 266.452372 
L 191.454545 263.36179 
L 193.87013 261.993664 
L 196.285714 261.017258 
L 198.701299 260.57711 
L 201.116883 260.725509 
L 203.532468 261.413095 
L 205.948052 262.501382 
L 210.779221 265.084124 
L 213.194805 266.210329 
L 215.61039 267.088557 
L 218.025974 267.704902 
L 220.441558 268.066095 
L 222.857143 268.130259 
L 225.272727 267.74554 
L 227.688312 266.623893 
L 230.103896 264.372174 
L 232.519481 260.583682 
L 234.935065 254.962809 
L 237.350649 247.436782 
L 239.766234 238.217098 
L 244.597403 216.884385 
L 247.012987 206.291721 
L 249.428571 196.79005 
L 251.844156 188.976848 
L 254.25974 183.177469 
L 256.675325 179.39839 
L 259.090909 177.337692 
L 261.506494 176.455712 
L 266.337662 175.636368 
L 268.753247 174.601775 
L 271.168831 172.75539 
L 273.584416 170.108726 
L 276 166.878178 
L 280.831169 159.954848 
L 283.246753 156.768154 
L 290.493506 147.792703 
L 292.909091 143.959343 
L 295.324675 139.167573 
L 297.74026 133.346967 
L 300.155844 126.708629 
L 304.987013 113.097357 
L 307.402597 107.536262 
L 309.818182 103.702828 
L 312.233766 102.028023 
L 314.649351 102.641938 
L 317.064935 105.368857 
L 319.480519 109.79223 
L 321.896104 115.369371 
L 326.727273 127.980451 
L 336.38961 153.81813 
L 346.051948 181.262984 
L 348.467532 187.249667 
L 350.883117 192.253476 
L 353.298701 196.042309 
L 355.714286 198.513218 
L 358.12987 199.710371 
L 360.545455 199.808994 
L 362.961039 199.065721 
L 365.376623 197.750759 
L 367.792208 196.081224 
L 370.207792 194.170216 
L 372.623377 192.006738 
L 375.038961 189.482202 
L 377.454545 186.462926 
L 379.87013 182.880592 
L 382.285714 178.802307 
L 387.116883 170.222671 
L 389.532468 166.561724 
L 391.948052 163.945638 
L 394.363636 162.758534 
L 396.779221 163.225253 
L 399.194805 165.374044 
L 401.61039 169.035509 
L 404.025974 173.874249 
L 408.857143 185.298217 
L 411.272727 191.001196 
L 413.688312 196.239426 
L 416.103896 200.811267 
L 418.519481 204.633309 
L 420.935065 207.723834 
L 423.350649 210.173549 
L 425.766234 212.114038 
L 428.181818 213.694029 
L 433.012987 216.34512 
L 437.844156 218.964483 
L 442.675325 221.78822 
L 447.506494 224.842959 
L 452.337662 228.227996 
L 457.168831 231.823221 
L 459.584416 233.488362 
L 462 234.875753 
L 464.415584 235.829795 
L 466.831169 236.223924 
L 469.246753 236.005697 
L 471.662338 235.238104 
L 476.493506 232.937293 
L 478.909091 232.067835 
L 481.324675 231.86195 
L 483.74026 232.598711 
L 486.155844 234.417784 
L 488.571429 237.287765 
L 490.987013 241.019996 
L 493.402597 245.319622 
L 498.233766 254.306993 
L 500.649351 258.447119 
L 503.064935 262.129478 
L 505.480519 265.2915 
L 507.896104 267.912325 
L 510.311688 269.971743 
L 512.727273 271.423425 
L 515.142857 272.186699 
L 517.558442 272.158359 
L 519.974026 271.24686 
L 522.38961 269.421693 
L 524.805195 266.757285 
L 527.220779 263.45194 
L 532.051948 256.241509 
L 534.467532 253.132084 
L 536.883117 250.837306 
L 539.298701 249.569481 
L 541.714286 249.351468 
L 544.12987 250.003959 
L 548.961039 252.416377 
L 551.376623 253.273432 
L 553.792208 253.404521 
L 556.207792 252.657648 
L 558.623377 251.106632 
L 563.454545 246.897838 
L 565.87013 245.200815 
L 568.285714 244.415223 
L 570.701299 244.847191 
L 573.116883 246.558791 
L 575.532468 249.339551 
L 580.363636 256.148965 
L 582.779221 258.950842 
L 585.194805 260.640659 
L 587.61039 260.936864 
L 590.025974 259.816811 
L 592.441558 257.496651 
L 594.857143 254.368422 
L 599.688312 247.569821 
L 602.103896 244.70419 
L 604.519481 242.503252 
L 606.935065 240.990525 
L 609.350649 240.03655 
L 614.181818 238.785731 
L 616.597403 237.919203 
L 619.012987 236.593878 
L 621.428571 234.704263 
L 623.844156 232.252565 
L 626.25974 229.335903 
L 631.090909 222.760211 
L 635.922078 216.214925 
L 640.753247 210.290766 
L 645.584416 204.934801 
L 648 202.463405 
L 648 202.463405 
" style="fill:none;stroke:#ff0000;stroke-linecap:square;stroke-width:1.5;"/>
   </g>
   <g id="line2d_19">
    <path d="M 90 257.02631 
L 92.415584 256.003486 
L 94.831169 255.156997 
L 97.246753 254.696812 
L 99.662338 254.712616 
L 102.077922 255.14938 
L 106.909091 256.499126 
L 109.324675 256.93916 
L 111.74026 257.00196 
L 114.155844 256.652094 
L 116.571429 255.95286 
L 123.818182 253.187515 
L 126.233766 252.521688 
L 128.649351 252.138341 
L 131.064935 252.077981 
L 133.480519 252.358304 
L 135.896104 252.974895 
L 138.311688 253.901668 
L 140.727273 255.095619 
L 143.142857 256.501544 
L 147.974026 259.694762 
L 155.220779 264.668769 
L 157.636364 266.209226 
L 160.051948 267.58399 
L 162.467532 268.705944 
L 164.883117 269.488564 
L 167.298701 269.857147 
L 169.714286 269.758427 
L 172.12987 269.164442 
L 174.545455 268.06573 
L 176.961039 266.460786 
L 179.376623 264.356297 
L 181.792208 261.781897 
L 184.207792 258.80908 
L 191.454545 249.102602 
L 193.87013 246.442776 
L 196.285714 244.560086 
L 198.701299 243.683295 
L 201.116883 243.924493 
L 203.532468 245.253206 
L 205.948052 247.496832 
L 208.363636 250.369716 
L 213.194805 256.631724 
L 215.61039 259.383054 
L 218.025974 261.534877 
L 220.441558 262.875786 
L 222.857143 263.21062 
L 225.272727 262.34254 
L 227.688312 260.064009 
L 230.103896 256.170455 
L 232.519481 250.503237 
L 234.935065 243.009138 
L 237.350649 233.7953 
L 239.766234 223.166414 
L 247.012987 188.68238 
L 249.428571 178.75289 
L 251.844156 170.645106 
L 254.25974 164.64535 
L 256.675325 160.739532 
L 259.090909 158.635248 
L 261.506494 157.839469 
L 263.922078 157.770456 
L 266.337662 157.867465 
L 268.753247 157.670501 
L 271.168831 156.865602 
L 273.584416 155.300651 
L 276 152.970657 
L 278.415584 149.974026 
L 280.831169 146.457504 
L 283.246753 142.573428 
L 288.077922 134.228485 
L 292.909091 125.859117 
L 295.324675 122.004123 
L 297.74026 118.648243 
L 300.155844 116.057769 
L 302.571429 114.497438 
L 304.987013 114.176545 
L 307.402597 115.198467 
L 309.818182 117.52886 
L 312.233766 121.000396 
L 314.649351 125.359297 
L 317.064935 130.335184 
L 321.896104 141.333911 
L 326.727273 153.280342 
L 331.558442 166.360494 
L 338.805195 186.696466 
L 341.220779 192.664147 
L 343.636364 197.676206 
L 346.051948 201.434137 
L 348.467532 203.723828 
L 350.883117 204.449459 
L 353.298701 203.658254 
L 355.714286 201.555664 
L 358.12987 198.496577 
L 362.961039 191.345983 
L 365.376623 188.115528 
L 367.792208 185.47226 
L 370.207792 183.430311 
L 375.038961 180.180285 
L 377.454545 178.189406 
L 379.87013 175.466853 
L 382.285714 171.85036 
L 384.701299 167.440848 
L 389.532468 158.020581 
L 391.948052 154.367623 
L 394.363636 152.360714 
L 396.779221 152.50115 
L 399.194805 154.981649 
L 401.61039 159.63022 
L 404.025974 165.926456 
L 408.857143 180.251946 
L 411.272727 186.577257 
L 413.688312 191.454776 
L 416.103896 194.57729 
L 418.519481 195.984817 
L 420.935065 196.026528 
L 423.350649 195.254339 
L 425.766234 194.284499 
L 428.181818 193.668144 
L 430.597403 193.793694 
L 433.012987 194.829639 
L 435.428571 196.714788 
L 437.844156 199.196546 
L 440.25974 201.900207 
L 442.675325 204.404242 
L 445.090909 206.31029 
L 447.506494 207.311157 
L 449.922078 207.254025 
L 452.337662 206.18066 
L 454.753247 204.327084 
L 459.584416 199.911777 
L 462 198.278303 
L 464.415584 197.552383 
L 466.831169 197.964487 
L 469.246753 199.592424 
L 471.662338 202.377535 
L 474.077922 206.150739 
L 476.493506 210.664743 
L 481.324675 220.804612 
L 486.155844 230.9588 
L 490.987013 240.344492 
L 495.818182 248.930045 
L 498.233766 252.835832 
L 500.649351 256.323345 
L 503.064935 259.231993 
L 505.480519 261.419926 
L 507.896104 262.805288 
L 510.311688 263.394577 
L 512.727273 263.287648 
L 515.142857 262.655926 
L 522.38961 259.719223 
L 524.805195 259.057697 
L 527.220779 258.78562 
L 529.636364 258.926969 
L 532.051948 259.41285 
L 536.883117 260.752669 
L 539.298701 261.173485 
L 541.714286 261.171866 
L 544.12987 260.653065 
L 546.545455 259.62737 
L 548.961039 258.203341 
L 553.792208 254.961258 
L 556.207792 253.625428 
L 558.623377 252.760252 
L 561.038961 252.474049 
L 563.454545 252.755864 
L 565.87013 253.466319 
L 568.285714 254.354892 
L 570.701299 255.113204 
L 573.116883 255.456575 
L 575.532468 255.20242 
L 577.948052 254.3131 
L 580.363636 252.893009 
L 587.61039 247.630556 
L 590.025974 246.196606 
L 592.441558 245.053882 
L 594.857143 244.160511 
L 604.519481 241.254126 
L 606.935065 240.238243 
L 609.350649 238.971704 
L 611.766234 237.418074 
L 614.181818 235.566666 
L 616.597403 233.437434 
L 619.012987 231.078591 
L 628.675325 221.143819 
L 631.090909 219.118317 
L 633.506494 217.473165 
L 635.922078 216.225093 
L 638.337662 215.302367 
L 643.168831 213.651789 
L 645.584416 212.391484 
L 648 210.533977 
L 648 210.533977 
" style="fill:none;stroke:#0000ff;stroke-linecap:square;stroke-width:1.5;"/>
   </g>
  </g>
 </g>
 <defs>
  <clipPath id="pc87dbc1df8">
   <rect height="326.16" width="558" x="90" y="51.84"/>
  </clipPath>
 </defs>
</svg>
