<?xml version="1.0" encoding="utf-8" standalone="no"?>
<!DOCTYPE svg PUBLIC "-//W3C//DTD SVG 1.1//EN"
  "http://www.w3.org/Graphics/SVG/1.1/DTD/svg11.dtd">
<!-- Created with matplotlib (http://matplotlib.org/) -->
<svg height="432pt" version="1.1" viewBox="0 0 720 432" width="720pt" xmlns="http://www.w3.org/2000/svg" xmlns:xlink="http://www.w3.org/1999/xlink">
 <defs>
  <style type="text/css">
*{stroke-linecap:butt;stroke-linejoin:round;}
  </style>
 </defs>
 <g id="figure_1">
  <g id="patch_1">
   <path d="M 0 432 
L 720 432 
L 720 0 
L 0 0 
z
" style="fill:#ffffff;"/>
  </g>
  <g id="axes_1">
   <g id="patch_2">
    <path d="M 90 378 
L 648 378 
L 648 51.84 
L 90 51.84 
z
" style="fill:none;opacity:0;"/>
   </g>
   <g id="patch_3">
    <path d="M 90 378 
L 90 51.84 
" style="fill:none;stroke:#000000;stroke-linecap:square;stroke-linejoin:miter;stroke-width:0.8;"/>
   </g>
   <g id="LineCollection_1">
    <path clip-path="url(#p204740c976)" d="M 276.483117 51.84 
L 276.483117 378 
" style="fill:none;stroke:#000000;stroke-dasharray:3.7,1.6;stroke-dashoffset:0;"/>
    <path clip-path="url(#p204740c976)" d="M 338.322078 51.84 
L 338.322078 378 
" style="fill:none;stroke:#000000;stroke-dasharray:3.7,1.6;stroke-dashoffset:0;"/>
    <path clip-path="url(#p204740c976)" d="M 400.161039 51.84 
L 400.161039 378 
" style="fill:none;stroke:#000000;stroke-dasharray:3.7,1.6;stroke-dashoffset:0;"/>
    <path clip-path="url(#p204740c976)" d="M 523.838961 51.84 
L 523.838961 378 
" style="fill:none;stroke:#000000;stroke-dasharray:3.7,1.6;stroke-dashoffset:0;"/>
   </g>
   <g id="matplotlib.axis_1">
    <g id="xtick_1">
     <g id="line2d_1">
      <defs>
       <path d="M 0 0 
L 0 3.5 
" id="m012dea43b1" style="stroke:#000000;stroke-width:0.8;"/>
      </defs>
      <g>
       <use style="stroke:#000000;stroke-width:0.8;" x="152.805195" xlink:href="#m012dea43b1" y="378"/>
      </g>
     </g>
     <g id="text_1">
      <!-- 0.0 -->
      <defs>
       <path d="M 31.78125 66.40625 
Q 24.171875 66.40625 20.328125 58.90625 
Q 16.5 51.421875 16.5 36.375 
Q 16.5 21.390625 20.328125 13.890625 
Q 24.171875 6.390625 31.78125 6.390625 
Q 39.453125 6.390625 43.28125 13.890625 
Q 47.125 21.390625 47.125 36.375 
Q 47.125 51.421875 43.28125 58.90625 
Q 39.453125 66.40625 31.78125 66.40625 
z
M 31.78125 74.21875 
Q 44.046875 74.21875 50.515625 64.515625 
Q 56.984375 54.828125 56.984375 36.375 
Q 56.984375 17.96875 50.515625 8.265625 
Q 44.046875 -1.421875 31.78125 -1.421875 
Q 19.53125 -1.421875 13.0625 8.265625 
Q 6.59375 17.96875 6.59375 36.375 
Q 6.59375 54.828125 13.0625 64.515625 
Q 19.53125 74.21875 31.78125 74.21875 
z
" id="DejaVuSans-30"/>
       <path d="M 10.6875 12.40625 
L 21 12.40625 
L 21 0 
L 10.6875 0 
z
" id="DejaVuSans-2e"/>
      </defs>
      <g transform="translate(141.673007 395.637812)scale(0.14 -0.14)">
       <use xlink:href="#DejaVuSans-30"/>
       <use x="63.623047" xlink:href="#DejaVuSans-2e"/>
       <use x="95.410156" xlink:href="#DejaVuSans-30"/>
      </g>
     </g>
    </g>
    <g id="xtick_2">
     <g id="line2d_2">
      <g>
       <use style="stroke:#000000;stroke-width:0.8;" x="276.483117" xlink:href="#m012dea43b1" y="378"/>
      </g>
     </g>
     <g id="text_2">
      <!-- 0.2 -->
      <defs>
       <path d="M 19.1875 8.296875 
L 53.609375 8.296875 
L 53.609375 0 
L 7.328125 0 
L 7.328125 8.296875 
Q 12.9375 14.109375 22.625 23.890625 
Q 32.328125 33.6875 34.8125 36.53125 
Q 39.546875 41.84375 41.421875 45.53125 
Q 43.3125 49.21875 43.3125 52.78125 
Q 43.3125 58.59375 39.234375 62.25 
Q 35.15625 65.921875 28.609375 65.921875 
Q 23.96875 65.921875 18.8125 64.3125 
Q 13.671875 62.703125 7.8125 59.421875 
L 7.8125 69.390625 
Q 13.765625 71.78125 18.9375 73 
Q 24.125 74.21875 28.421875 74.21875 
Q 39.75 74.21875 46.484375 68.546875 
Q 53.21875 62.890625 53.21875 53.421875 
Q 53.21875 48.921875 51.53125 44.890625 
Q 49.859375 40.875 45.40625 35.40625 
Q 44.1875 33.984375 37.640625 27.21875 
Q 31.109375 20.453125 19.1875 8.296875 
z
" id="DejaVuSans-32"/>
      </defs>
      <g transform="translate(265.350929 395.637812)scale(0.14 -0.14)">
       <use xlink:href="#DejaVuSans-30"/>
       <use x="63.623047" xlink:href="#DejaVuSans-2e"/>
       <use x="95.410156" xlink:href="#DejaVuSans-32"/>
      </g>
     </g>
    </g>
    <g id="xtick_3">
     <g id="line2d_3">
      <g>
       <use style="stroke:#000000;stroke-width:0.8;" x="338.322078" xlink:href="#m012dea43b1" y="378"/>
      </g>
     </g>
     <g id="text_3">
      <!-- 0.3 -->
      <defs>
       <path d="M 40.578125 39.3125 
Q 47.65625 37.796875 51.625 33 
Q 55.609375 28.21875 55.609375 21.1875 
Q 55.609375 10.40625 48.1875 4.484375 
Q 40.765625 -1.421875 27.09375 -1.421875 
Q 22.515625 -1.421875 17.65625 -0.515625 
Q 12.796875 0.390625 7.625 2.203125 
L 7.625 11.71875 
Q 11.71875 9.328125 16.59375 8.109375 
Q 21.484375 6.890625 26.8125 6.890625 
Q 36.078125 6.890625 40.9375 10.546875 
Q 45.796875 14.203125 45.796875 21.1875 
Q 45.796875 27.640625 41.28125 31.265625 
Q 36.765625 34.90625 28.71875 34.90625 
L 20.21875 34.90625 
L 20.21875 43.015625 
L 29.109375 43.015625 
Q 36.375 43.015625 40.234375 45.921875 
Q 44.09375 48.828125 44.09375 54.296875 
Q 44.09375 59.90625 40.109375 62.90625 
Q 36.140625 65.921875 28.71875 65.921875 
Q 24.65625 65.921875 20.015625 65.03125 
Q 15.375 64.15625 9.8125 62.3125 
L 9.8125 71.09375 
Q 15.4375 72.65625 20.34375 73.4375 
Q 25.25 74.21875 29.59375 74.21875 
Q 40.828125 74.21875 47.359375 69.109375 
Q 53.90625 64.015625 53.90625 55.328125 
Q 53.90625 49.265625 50.4375 45.09375 
Q 46.96875 40.921875 40.578125 39.3125 
z
" id="DejaVuSans-33"/>
      </defs>
      <g transform="translate(327.18989 395.637812)scale(0.14 -0.14)">
       <use xlink:href="#DejaVuSans-30"/>
       <use x="63.623047" xlink:href="#DejaVuSans-2e"/>
       <use x="95.410156" xlink:href="#DejaVuSans-33"/>
      </g>
     </g>
    </g>
    <g id="xtick_4">
     <g id="line2d_4">
      <g>
       <use style="stroke:#000000;stroke-width:0.8;" x="400.161039" xlink:href="#m012dea43b1" y="378"/>
      </g>
     </g>
     <g id="text_4">
      <!-- 0.4 -->
      <defs>
       <path d="M 37.796875 64.3125 
L 12.890625 25.390625 
L 37.796875 25.390625 
z
M 35.203125 72.90625 
L 47.609375 72.90625 
L 47.609375 25.390625 
L 58.015625 25.390625 
L 58.015625 17.1875 
L 47.609375 17.1875 
L 47.609375 0 
L 37.796875 0 
L 37.796875 17.1875 
L 4.890625 17.1875 
L 4.890625 26.703125 
z
" id="DejaVuSans-34"/>
      </defs>
      <g transform="translate(389.028851 395.637812)scale(0.14 -0.14)">
       <use xlink:href="#DejaVuSans-30"/>
       <use x="63.623047" xlink:href="#DejaVuSans-2e"/>
       <use x="95.410156" xlink:href="#DejaVuSans-34"/>
      </g>
     </g>
    </g>
    <g id="xtick_5">
     <g id="line2d_5">
      <g>
       <use style="stroke:#000000;stroke-width:0.8;" x="400.161039" xlink:href="#m012dea43b1" y="378"/>
      </g>
     </g>
     <g id="text_5">
      <!-- 0.4 -->
      <g transform="translate(389.028851 395.637812)scale(0.14 -0.14)">
       <use xlink:href="#DejaVuSans-30"/>
       <use x="63.623047" xlink:href="#DejaVuSans-2e"/>
       <use x="95.410156" xlink:href="#DejaVuSans-34"/>
      </g>
     </g>
    </g>
    <g id="xtick_6">
     <g id="line2d_6">
      <g>
       <use style="stroke:#000000;stroke-width:0.8;" x="523.838961" xlink:href="#m012dea43b1" y="378"/>
      </g>
     </g>
     <g id="text_6">
      <!-- 0.6 -->
      <defs>
       <path d="M 33.015625 40.375 
Q 26.375 40.375 22.484375 35.828125 
Q 18.609375 31.296875 18.609375 23.390625 
Q 18.609375 15.53125 22.484375 10.953125 
Q 26.375 6.390625 33.015625 6.390625 
Q 39.65625 6.390625 43.53125 10.953125 
Q 47.40625 15.53125 47.40625 23.390625 
Q 47.40625 31.296875 43.53125 35.828125 
Q 39.65625 40.375 33.015625 40.375 
z
M 52.59375 71.296875 
L 52.59375 62.3125 
Q 48.875 64.0625 45.09375 64.984375 
Q 41.3125 65.921875 37.59375 65.921875 
Q 27.828125 65.921875 22.671875 59.328125 
Q 17.53125 52.734375 16.796875 39.40625 
Q 19.671875 43.65625 24.015625 45.921875 
Q 28.375 48.1875 33.59375 48.1875 
Q 44.578125 48.1875 50.953125 41.515625 
Q 57.328125 34.859375 57.328125 23.390625 
Q 57.328125 12.15625 50.6875 5.359375 
Q 44.046875 -1.421875 33.015625 -1.421875 
Q 20.359375 -1.421875 13.671875 8.265625 
Q 6.984375 17.96875 6.984375 36.375 
Q 6.984375 53.65625 15.1875 63.9375 
Q 23.390625 74.21875 37.203125 74.21875 
Q 40.921875 74.21875 44.703125 73.484375 
Q 48.484375 72.75 52.59375 71.296875 
z
" id="DejaVuSans-36"/>
      </defs>
      <g transform="translate(512.706774 395.637812)scale(0.14 -0.14)">
       <use xlink:href="#DejaVuSans-30"/>
       <use x="63.623047" xlink:href="#DejaVuSans-2e"/>
       <use x="95.410156" xlink:href="#DejaVuSans-36"/>
      </g>
     </g>
    </g>
    <g id="xtick_7">
     <g id="line2d_7">
      <g>
       <use style="stroke:#000000;stroke-width:0.8;" x="523.838961" xlink:href="#m012dea43b1" y="378"/>
      </g>
     </g>
     <g id="text_7">
      <!-- 0.6 -->
      <g transform="translate(512.706774 395.637812)scale(0.14 -0.14)">
       <use xlink:href="#DejaVuSans-30"/>
       <use x="63.623047" xlink:href="#DejaVuSans-2e"/>
       <use x="95.410156" xlink:href="#DejaVuSans-36"/>
      </g>
     </g>
    </g>
    <g id="xtick_8">
     <g id="line2d_8">
      <g>
       <use style="stroke:#000000;stroke-width:0.8;" x="647.516883" xlink:href="#m012dea43b1" y="378"/>
      </g>
     </g>
     <g id="text_8">
      <!-- 0.8 -->
      <defs>
       <path d="M 31.78125 34.625 
Q 24.75 34.625 20.71875 30.859375 
Q 16.703125 27.09375 16.703125 20.515625 
Q 16.703125 13.921875 20.71875 10.15625 
Q 24.75 6.390625 31.78125 6.390625 
Q 38.8125 6.390625 42.859375 10.171875 
Q 46.921875 13.96875 46.921875 20.515625 
Q 46.921875 27.09375 42.890625 30.859375 
Q 38.875 34.625 31.78125 34.625 
z
M 21.921875 38.8125 
Q 15.578125 40.375 12.03125 44.71875 
Q 8.5 49.078125 8.5 55.328125 
Q 8.5 64.0625 14.71875 69.140625 
Q 20.953125 74.21875 31.78125 74.21875 
Q 42.671875 74.21875 48.875 69.140625 
Q 55.078125 64.0625 55.078125 55.328125 
Q 55.078125 49.078125 51.53125 44.71875 
Q 48 40.375 41.703125 38.8125 
Q 48.828125 37.15625 52.796875 32.3125 
Q 56.78125 27.484375 56.78125 20.515625 
Q 56.78125 9.90625 50.3125 4.234375 
Q 43.84375 -1.421875 31.78125 -1.421875 
Q 19.734375 -1.421875 13.25 4.234375 
Q 6.78125 9.90625 6.78125 20.515625 
Q 6.78125 27.484375 10.78125 32.3125 
Q 14.796875 37.15625 21.921875 38.8125 
z
M 18.3125 54.390625 
Q 18.3125 48.734375 21.84375 45.5625 
Q 25.390625 42.390625 31.78125 42.390625 
Q 38.140625 42.390625 41.71875 45.5625 
Q 45.3125 48.734375 45.3125 54.390625 
Q 45.3125 60.0625 41.71875 63.234375 
Q 38.140625 66.40625 31.78125 66.40625 
Q 25.390625 66.40625 21.84375 63.234375 
Q 18.3125 60.0625 18.3125 54.390625 
z
" id="DejaVuSans-38"/>
      </defs>
      <g transform="translate(636.384696 395.637812)scale(0.14 -0.14)">
       <use xlink:href="#DejaVuSans-30"/>
       <use x="63.623047" xlink:href="#DejaVuSans-2e"/>
       <use x="95.410156" xlink:href="#DejaVuSans-38"/>
      </g>
     </g>
    </g>
    <g id="text_9">
     <!-- Time (s) -->
     <defs>
      <path d="M -0.296875 72.90625 
L 61.375 72.90625 
L 61.375 64.59375 
L 35.5 64.59375 
L 35.5 0 
L 25.59375 0 
L 25.59375 64.59375 
L -0.296875 64.59375 
z
" id="DejaVuSans-54"/>
      <path d="M 9.421875 54.6875 
L 18.40625 54.6875 
L 18.40625 0 
L 9.421875 0 
z
M 9.421875 75.984375 
L 18.40625 75.984375 
L 18.40625 64.59375 
L 9.421875 64.59375 
z
" id="DejaVuSans-69"/>
      <path d="M 52 44.1875 
Q 55.375 50.25 60.0625 53.125 
Q 64.75 56 71.09375 56 
Q 79.640625 56 84.28125 50.015625 
Q 88.921875 44.046875 88.921875 33.015625 
L 88.921875 0 
L 79.890625 0 
L 79.890625 32.71875 
Q 79.890625 40.578125 77.09375 44.375 
Q 74.3125 48.1875 68.609375 48.1875 
Q 61.625 48.1875 57.5625 43.546875 
Q 53.515625 38.921875 53.515625 30.90625 
L 53.515625 0 
L 44.484375 0 
L 44.484375 32.71875 
Q 44.484375 40.625 41.703125 44.40625 
Q 38.921875 48.1875 33.109375 48.1875 
Q 26.21875 48.1875 22.15625 43.53125 
Q 18.109375 38.875 18.109375 30.90625 
L 18.109375 0 
L 9.078125 0 
L 9.078125 54.6875 
L 18.109375 54.6875 
L 18.109375 46.1875 
Q 21.1875 51.21875 25.484375 53.609375 
Q 29.78125 56 35.6875 56 
Q 41.65625 56 45.828125 52.96875 
Q 50 49.953125 52 44.1875 
z
" id="DejaVuSans-6d"/>
      <path d="M 56.203125 29.59375 
L 56.203125 25.203125 
L 14.890625 25.203125 
Q 15.484375 15.921875 20.484375 11.0625 
Q 25.484375 6.203125 34.421875 6.203125 
Q 39.59375 6.203125 44.453125 7.46875 
Q 49.3125 8.734375 54.109375 11.28125 
L 54.109375 2.78125 
Q 49.265625 0.734375 44.1875 -0.34375 
Q 39.109375 -1.421875 33.890625 -1.421875 
Q 20.796875 -1.421875 13.15625 6.1875 
Q 5.515625 13.8125 5.515625 26.8125 
Q 5.515625 40.234375 12.765625 48.109375 
Q 20.015625 56 32.328125 56 
Q 43.359375 56 49.78125 48.890625 
Q 56.203125 41.796875 56.203125 29.59375 
z
M 47.21875 32.234375 
Q 47.125 39.59375 43.09375 43.984375 
Q 39.0625 48.390625 32.421875 48.390625 
Q 24.90625 48.390625 20.390625 44.140625 
Q 15.875 39.890625 15.1875 32.171875 
z
" id="DejaVuSans-65"/>
      <path id="DejaVuSans-20"/>
      <path d="M 31 75.875 
Q 24.46875 64.65625 21.28125 53.65625 
Q 18.109375 42.671875 18.109375 31.390625 
Q 18.109375 20.125 21.3125 9.0625 
Q 24.515625 -2 31 -13.1875 
L 23.1875 -13.1875 
Q 15.875 -1.703125 12.234375 9.375 
Q 8.59375 20.453125 8.59375 31.390625 
Q 8.59375 42.28125 12.203125 53.3125 
Q 15.828125 64.359375 23.1875 75.875 
z
" id="DejaVuSans-28"/>
      <path d="M 44.28125 53.078125 
L 44.28125 44.578125 
Q 40.484375 46.53125 36.375 47.5 
Q 32.28125 48.484375 27.875 48.484375 
Q 21.1875 48.484375 17.84375 46.4375 
Q 14.5 44.390625 14.5 40.28125 
Q 14.5 37.15625 16.890625 35.375 
Q 19.28125 33.59375 26.515625 31.984375 
L 29.59375 31.296875 
Q 39.15625 29.25 43.1875 25.515625 
Q 47.21875 21.78125 47.21875 15.09375 
Q 47.21875 7.46875 41.1875 3.015625 
Q 35.15625 -1.421875 24.609375 -1.421875 
Q 20.21875 -1.421875 15.453125 -0.5625 
Q 10.6875 0.296875 5.421875 2 
L 5.421875 11.28125 
Q 10.40625 8.6875 15.234375 7.390625 
Q 20.0625 6.109375 24.8125 6.109375 
Q 31.15625 6.109375 34.5625 8.28125 
Q 37.984375 10.453125 37.984375 14.40625 
Q 37.984375 18.0625 35.515625 20.015625 
Q 33.0625 21.96875 24.703125 23.78125 
L 21.578125 24.515625 
Q 13.234375 26.265625 9.515625 29.90625 
Q 5.8125 33.546875 5.8125 39.890625 
Q 5.8125 47.609375 11.28125 51.796875 
Q 16.75 56 26.8125 56 
Q 31.78125 56 36.171875 55.265625 
Q 40.578125 54.546875 44.28125 53.078125 
z
" id="DejaVuSans-73"/>
      <path d="M 8.015625 75.875 
L 15.828125 75.875 
Q 23.140625 64.359375 26.78125 53.3125 
Q 30.421875 42.28125 30.421875 31.390625 
Q 30.421875 20.453125 26.78125 9.375 
Q 23.140625 -1.703125 15.828125 -13.1875 
L 8.015625 -13.1875 
Q 14.5 -2 17.703125 9.0625 
Q 20.90625 20.125 20.90625 31.390625 
Q 20.90625 42.671875 17.703125 53.65625 
Q 14.5 64.65625 8.015625 75.875 
z
" id="DejaVuSans-29"/>
     </defs>
     <g transform="translate(340.324062 413.187187)scale(0.14 -0.14)">
      <use xlink:href="#DejaVuSans-54"/>
      <use x="61.037109" xlink:href="#DejaVuSans-69"/>
      <use x="88.820312" xlink:href="#DejaVuSans-6d"/>
      <use x="186.232422" xlink:href="#DejaVuSans-65"/>
      <use x="247.755859" xlink:href="#DejaVuSans-20"/>
      <use x="279.542969" xlink:href="#DejaVuSans-28"/>
      <use x="318.556641" xlink:href="#DejaVuSans-73"/>
      <use x="370.65625" xlink:href="#DejaVuSans-29"/>
     </g>
    </g>
   </g>
   <g id="matplotlib.axis_2">
    <g id="ytick_1">
     <g id="line2d_9">
      <defs>
       <path d="M 0 0 
L -3.5 0 
" id="mc8084af0a9" style="stroke:#000000;stroke-width:0.8;"/>
      </defs>
      <g>
       <use style="stroke:#000000;stroke-width:0.8;" x="90" xlink:href="#mc8084af0a9" y="378"/>
      </g>
     </g>
     <g id="text_10">
      <!-- −3 -->
      <defs>
       <path d="M 10.59375 35.5 
L 73.1875 35.5 
L 73.1875 27.203125 
L 10.59375 27.203125 
z
" id="DejaVuSans-2212"/>
      </defs>
      <g transform="translate(62.360937 383.318906)scale(0.14 -0.14)">
       <use xlink:href="#DejaVuSans-2212"/>
       <use x="83.789062" xlink:href="#DejaVuSans-33"/>
      </g>
     </g>
    </g>
    <g id="ytick_2">
     <g id="line2d_10">
      <g>
       <use style="stroke:#000000;stroke-width:0.8;" x="90" xlink:href="#mc8084af0a9" y="337.23"/>
      </g>
     </g>
     <g id="text_11">
      <!-- −2 -->
      <g transform="translate(62.360937 342.548906)scale(0.14 -0.14)">
       <use xlink:href="#DejaVuSans-2212"/>
       <use x="83.789062" xlink:href="#DejaVuSans-32"/>
      </g>
     </g>
    </g>
    <g id="ytick_3">
     <g id="line2d_11">
      <g>
       <use style="stroke:#000000;stroke-width:0.8;" x="90" xlink:href="#mc8084af0a9" y="296.46"/>
      </g>
     </g>
     <g id="text_12">
      <!-- −1 -->
      <defs>
       <path d="M 12.40625 8.296875 
L 28.515625 8.296875 
L 28.515625 63.921875 
L 10.984375 60.40625 
L 10.984375 69.390625 
L 28.421875 72.90625 
L 38.28125 72.90625 
L 38.28125 8.296875 
L 54.390625 8.296875 
L 54.390625 0 
L 12.40625 0 
z
" id="DejaVuSans-31"/>
      </defs>
      <g transform="translate(62.360937 301.778906)scale(0.14 -0.14)">
       <use xlink:href="#DejaVuSans-2212"/>
       <use x="83.789062" xlink:href="#DejaVuSans-31"/>
      </g>
     </g>
    </g>
    <g id="ytick_4">
     <g id="line2d_12">
      <g>
       <use style="stroke:#000000;stroke-width:0.8;" x="90" xlink:href="#mc8084af0a9" y="255.69"/>
      </g>
     </g>
     <g id="text_13">
      <!-- 0 -->
      <g transform="translate(74.0925 261.008906)scale(0.14 -0.14)">
       <use xlink:href="#DejaVuSans-30"/>
      </g>
     </g>
    </g>
    <g id="ytick_5">
     <g id="line2d_13">
      <g>
       <use style="stroke:#000000;stroke-width:0.8;" x="90" xlink:href="#mc8084af0a9" y="214.92"/>
      </g>
     </g>
     <g id="text_14">
      <!-- 1 -->
      <g transform="translate(74.0925 220.238906)scale(0.14 -0.14)">
       <use xlink:href="#DejaVuSans-31"/>
      </g>
     </g>
    </g>
    <g id="ytick_6">
     <g id="line2d_14">
      <g>
       <use style="stroke:#000000;stroke-width:0.8;" x="90" xlink:href="#mc8084af0a9" y="174.15"/>
      </g>
     </g>
     <g id="text_15">
      <!-- 2 -->
      <g transform="translate(74.0925 179.468906)scale(0.14 -0.14)">
       <use xlink:href="#DejaVuSans-32"/>
      </g>
     </g>
    </g>
    <g id="ytick_7">
     <g id="line2d_15">
      <g>
       <use style="stroke:#000000;stroke-width:0.8;" x="90" xlink:href="#mc8084af0a9" y="133.38"/>
      </g>
     </g>
     <g id="text_16">
      <!-- 3 -->
      <g transform="translate(74.0925 138.698906)scale(0.14 -0.14)">
       <use xlink:href="#DejaVuSans-33"/>
      </g>
     </g>
    </g>
    <g id="ytick_8">
     <g id="line2d_16">
      <g>
       <use style="stroke:#000000;stroke-width:0.8;" x="90" xlink:href="#mc8084af0a9" y="92.61"/>
      </g>
     </g>
     <g id="text_17">
      <!-- 4 -->
      <g transform="translate(74.0925 97.928906)scale(0.14 -0.14)">
       <use xlink:href="#DejaVuSans-34"/>
      </g>
     </g>
    </g>
    <g id="ytick_9">
     <g id="line2d_17">
      <g>
       <use style="stroke:#000000;stroke-width:0.8;" x="90" xlink:href="#mc8084af0a9" y="51.84"/>
      </g>
     </g>
     <g id="text_18">
      <!-- 5 -->
      <defs>
       <path d="M 10.796875 72.90625 
L 49.515625 72.90625 
L 49.515625 64.59375 
L 19.828125 64.59375 
L 19.828125 46.734375 
Q 21.96875 47.46875 24.109375 47.828125 
Q 26.265625 48.1875 28.421875 48.1875 
Q 40.625 48.1875 47.75 41.5 
Q 54.890625 34.8125 54.890625 23.390625 
Q 54.890625 11.625 47.5625 5.09375 
Q 40.234375 -1.421875 26.90625 -1.421875 
Q 22.3125 -1.421875 17.546875 -0.640625 
Q 12.796875 0.140625 7.71875 1.703125 
L 7.71875 11.625 
Q 12.109375 9.234375 16.796875 8.0625 
Q 21.484375 6.890625 26.703125 6.890625 
Q 35.15625 6.890625 40.078125 11.328125 
Q 45.015625 15.765625 45.015625 23.390625 
Q 45.015625 31 40.078125 35.4375 
Q 35.15625 39.890625 26.703125 39.890625 
Q 22.75 39.890625 18.8125 39.015625 
Q 14.890625 38.140625 10.796875 36.28125 
z
" id="DejaVuSans-35"/>
      </defs>
      <g transform="translate(74.0925 57.158906)scale(0.14 -0.14)">
       <use xlink:href="#DejaVuSans-35"/>
      </g>
     </g>
    </g>
    <g id="text_19">
     <!-- uV -->
     <defs>
      <path d="M 8.5 21.578125 
L 8.5 54.6875 
L 17.484375 54.6875 
L 17.484375 21.921875 
Q 17.484375 14.15625 20.5 10.265625 
Q 23.53125 6.390625 29.59375 6.390625 
Q 36.859375 6.390625 41.078125 11.03125 
Q 45.3125 15.671875 45.3125 23.6875 
L 45.3125 54.6875 
L 54.296875 54.6875 
L 54.296875 0 
L 45.3125 0 
L 45.3125 8.40625 
Q 42.046875 3.421875 37.71875 1 
Q 33.40625 -1.421875 27.6875 -1.421875 
Q 18.265625 -1.421875 13.375 4.4375 
Q 8.5 10.296875 8.5 21.578125 
z
M 31.109375 56 
z
" id="DejaVuSans-75"/>
      <path d="M 28.609375 0 
L 0.78125 72.90625 
L 11.078125 72.90625 
L 34.1875 11.53125 
L 57.328125 72.90625 
L 67.578125 72.90625 
L 39.796875 0 
z
" id="DejaVuSans-56"/>
     </defs>
     <g transform="translate(55.449375 224.144687)rotate(-90)scale(0.14 -0.14)">
      <use xlink:href="#DejaVuSans-75"/>
      <use x="63.378906" xlink:href="#DejaVuSans-56"/>
     </g>
    </g>
   </g>
   <g id="patch_4">
    <path d="M 152.805195 378 
L 647.516883 378 
" style="fill:none;stroke:#000000;stroke-linecap:square;stroke-linejoin:miter;stroke-width:0.8;"/>
   </g>
   <g id="patch_5">
    <path d="M 90 255.69 
L 648 255.69 
" style="fill:none;stroke:#000000;stroke-linecap:square;stroke-linejoin:miter;stroke-width:0.8;"/>
   </g>
   <g id="text_20">
    <!-- TP9, TP10 (mean) -->
    <defs>
     <path d="M 19.671875 64.796875 
L 19.671875 37.40625 
L 32.078125 37.40625 
Q 38.96875 37.40625 42.71875 40.96875 
Q 46.484375 44.53125 46.484375 51.125 
Q 46.484375 57.671875 42.71875 61.234375 
Q 38.96875 64.796875 32.078125 64.796875 
z
M 9.8125 72.90625 
L 32.078125 72.90625 
Q 44.34375 72.90625 50.609375 67.359375 
Q 56.890625 61.8125 56.890625 51.125 
Q 56.890625 40.328125 50.609375 34.8125 
Q 44.34375 29.296875 32.078125 29.296875 
L 19.671875 29.296875 
L 19.671875 0 
L 9.8125 0 
z
" id="DejaVuSans-50"/>
     <path d="M 10.984375 1.515625 
L 10.984375 10.5 
Q 14.703125 8.734375 18.5 7.8125 
Q 22.3125 6.890625 25.984375 6.890625 
Q 35.75 6.890625 40.890625 13.453125 
Q 46.046875 20.015625 46.78125 33.40625 
Q 43.953125 29.203125 39.59375 26.953125 
Q 35.25 24.703125 29.984375 24.703125 
Q 19.046875 24.703125 12.671875 31.3125 
Q 6.296875 37.9375 6.296875 49.421875 
Q 6.296875 60.640625 12.9375 67.421875 
Q 19.578125 74.21875 30.609375 74.21875 
Q 43.265625 74.21875 49.921875 64.515625 
Q 56.59375 54.828125 56.59375 36.375 
Q 56.59375 19.140625 48.40625 8.859375 
Q 40.234375 -1.421875 26.421875 -1.421875 
Q 22.703125 -1.421875 18.890625 -0.6875 
Q 15.09375 0.046875 10.984375 1.515625 
z
M 30.609375 32.421875 
Q 37.25 32.421875 41.125 36.953125 
Q 45.015625 41.5 45.015625 49.421875 
Q 45.015625 57.28125 41.125 61.84375 
Q 37.25 66.40625 30.609375 66.40625 
Q 23.96875 66.40625 20.09375 61.84375 
Q 16.21875 57.28125 16.21875 49.421875 
Q 16.21875 41.5 20.09375 36.953125 
Q 23.96875 32.421875 30.609375 32.421875 
z
" id="DejaVuSans-39"/>
     <path d="M 11.71875 12.40625 
L 22.015625 12.40625 
L 22.015625 4 
L 14.015625 -11.625 
L 7.71875 -11.625 
L 11.71875 4 
z
" id="DejaVuSans-2c"/>
     <path d="M 34.28125 27.484375 
Q 23.390625 27.484375 19.1875 25 
Q 14.984375 22.515625 14.984375 16.5 
Q 14.984375 11.71875 18.140625 8.90625 
Q 21.296875 6.109375 26.703125 6.109375 
Q 34.1875 6.109375 38.703125 11.40625 
Q 43.21875 16.703125 43.21875 25.484375 
L 43.21875 27.484375 
z
M 52.203125 31.203125 
L 52.203125 0 
L 43.21875 0 
L 43.21875 8.296875 
Q 40.140625 3.328125 35.546875 0.953125 
Q 30.953125 -1.421875 24.3125 -1.421875 
Q 15.921875 -1.421875 10.953125 3.296875 
Q 6 8.015625 6 15.921875 
Q 6 25.140625 12.171875 29.828125 
Q 18.359375 34.515625 30.609375 34.515625 
L 43.21875 34.515625 
L 43.21875 35.40625 
Q 43.21875 41.609375 39.140625 45 
Q 35.0625 48.390625 27.6875 48.390625 
Q 23 48.390625 18.546875 47.265625 
Q 14.109375 46.140625 10.015625 43.890625 
L 10.015625 52.203125 
Q 14.9375 54.109375 19.578125 55.046875 
Q 24.21875 56 28.609375 56 
Q 40.484375 56 46.34375 49.84375 
Q 52.203125 43.703125 52.203125 31.203125 
z
" id="DejaVuSans-61"/>
     <path d="M 54.890625 33.015625 
L 54.890625 0 
L 45.90625 0 
L 45.90625 32.71875 
Q 45.90625 40.484375 42.875 44.328125 
Q 39.84375 48.1875 33.796875 48.1875 
Q 26.515625 48.1875 22.3125 43.546875 
Q 18.109375 38.921875 18.109375 30.90625 
L 18.109375 0 
L 9.078125 0 
L 9.078125 54.6875 
L 18.109375 54.6875 
L 18.109375 46.1875 
Q 21.34375 51.125 25.703125 53.5625 
Q 30.078125 56 35.796875 56 
Q 45.21875 56 50.046875 50.171875 
Q 54.890625 44.34375 54.890625 33.015625 
z
" id="DejaVuSans-6e"/>
    </defs>
    <g transform="translate(306.658437 45.84)scale(0.14 -0.14)">
     <use xlink:href="#DejaVuSans-54"/>
     <use x="61.083984" xlink:href="#DejaVuSans-50"/>
     <use x="121.386719" xlink:href="#DejaVuSans-39"/>
     <use x="185.009766" xlink:href="#DejaVuSans-2c"/>
     <use x="216.796875" xlink:href="#DejaVuSans-20"/>
     <use x="248.583984" xlink:href="#DejaVuSans-54"/>
     <use x="309.667969" xlink:href="#DejaVuSans-50"/>
     <use x="369.970703" xlink:href="#DejaVuSans-31"/>
     <use x="433.59375" xlink:href="#DejaVuSans-30"/>
     <use x="497.216797" xlink:href="#DejaVuSans-20"/>
     <use x="529.003906" xlink:href="#DejaVuSans-28"/>
     <use x="568.017578" xlink:href="#DejaVuSans-6d"/>
     <use x="665.429688" xlink:href="#DejaVuSans-65"/>
     <use x="726.953125" xlink:href="#DejaVuSans-61"/>
     <use x="788.232422" xlink:href="#DejaVuSans-6e"/>
     <use x="851.611328" xlink:href="#DejaVuSans-29"/>
    </g>
   </g>
   <g id="PolyCollection_1">
    <defs>
     <path d="M 90 -200.217027 
L 90 -171.139135 
L 92.415584 -170.812132 
L 94.831169 -170.607379 
L 97.246753 -170.216581 
L 99.662338 -170.000193 
L 102.077922 -169.558104 
L 104.493506 -169.505692 
L 106.909091 -169.069653 
L 109.324675 -168.507409 
L 111.74026 -168.099079 
L 114.155844 -168.204674 
L 116.571429 -168.848968 
L 118.987013 -169.325749 
L 121.402597 -170.041663 
L 123.818182 -171.193145 
L 126.233766 -171.813186 
L 128.649351 -171.143829 
L 131.064935 -168.702773 
L 133.480519 -165.275922 
L 135.896104 -161.363972 
L 138.311688 -157.642018 
L 140.727273 -154.287627 
L 143.142857 -151.808439 
L 145.558442 -150.097442 
L 147.974026 -148.842689 
L 150.38961 -148.507157 
L 152.805195 -148.327193 
L 155.220779 -148.529987 
L 157.636364 -148.485364 
L 160.051948 -147.472082 
L 162.467532 -145.754665 
L 164.883117 -143.429589 
L 167.298701 -140.196687 
L 169.714286 -136.099714 
L 172.12987 -132.096216 
L 174.545455 -128.392628 
L 176.961039 -125.925481 
L 179.376623 -123.69869 
L 181.792208 -123.190414 
L 184.207792 -123.703439 
L 186.623377 -125.633631 
L 189.038961 -128.457638 
L 191.454545 -130.213348 
L 193.87013 -133.433757 
L 196.285714 -135.377979 
L 198.701299 -136.640406 
L 201.116883 -137.091161 
L 203.532468 -136.326258 
L 205.948052 -134.116426 
L 208.363636 -132.449398 
L 210.779221 -130.981433 
L 213.194805 -130.502933 
L 215.61039 -130.408904 
L 218.025974 -131.034278 
L 220.441558 -132.364101 
L 222.857143 -133.181342 
L 225.272727 -134.369359 
L 227.688312 -135.138327 
L 230.103896 -136.236926 
L 232.519481 -138.570252 
L 234.935065 -142.725908 
L 237.350649 -148.265511 
L 239.766234 -155.224365 
L 242.181818 -163.554774 
L 244.597403 -173.487344 
L 247.012987 -184.55402 
L 249.428571 -194.773232 
L 251.844156 -203.336834 
L 254.25974 -210.351944 
L 256.675325 -215.158766 
L 259.090909 -216.240802 
L 261.506494 -214.082177 
L 263.922078 -212.038048 
L 266.337662 -209.112578 
L 268.753247 -206.856706 
L 271.168831 -205.468737 
L 273.584416 -205.229741 
L 276 -206.004421 
L 278.415584 -208.223614 
L 280.831169 -211.165483 
L 283.246753 -214.882584 
L 285.662338 -218.984705 
L 288.077922 -223.036385 
L 290.493506 -226.791226 
L 292.909091 -232.83118 
L 295.324675 -239.291456 
L 297.74026 -246.063135 
L 300.155844 -254.842303 
L 302.571429 -262.570962 
L 304.987013 -269.288358 
L 307.402597 -275.358894 
L 309.818182 -279.021042 
L 312.233766 -281.381038 
L 314.649351 -281.280259 
L 317.064935 -279.756466 
L 319.480519 -276.491708 
L 321.896104 -272.458237 
L 324.311688 -267.215091 
L 326.727273 -261.864585 
L 329.142857 -256.434147 
L 331.558442 -250.468787 
L 333.974026 -244.994422 
L 336.38961 -238.906302 
L 338.805195 -233.344629 
L 341.220779 -227.254706 
L 343.636364 -221.33538 
L 346.051948 -215.536601 
L 348.467532 -210.833079 
L 350.883117 -207.130764 
L 353.298701 -204.040471 
L 355.714286 -201.613604 
L 358.12987 -201.047488 
L 360.545455 -200.970126 
L 362.961039 -200.894883 
L 365.376623 -201.998268 
L 367.792208 -203.787105 
L 370.207792 -204.875876 
L 372.623377 -206.035141 
L 375.038961 -207.273498 
L 377.454545 -208.858454 
L 379.87013 -211.43806 
L 382.285714 -214.702793 
L 384.701299 -218.509164 
L 387.116883 -222.96851 
L 389.532468 -226.157011 
L 391.948052 -228.972628 
L 394.363636 -229.308873 
L 396.779221 -227.850473 
L 399.194805 -224.228936 
L 401.61039 -218.539735 
L 404.025974 -211.164714 
L 406.441558 -202.930169 
L 408.857143 -193.793579 
L 411.272727 -185.431582 
L 413.688312 -177.587805 
L 416.103896 -170.491915 
L 418.519481 -166.447167 
L 420.935065 -163.781022 
L 423.350649 -161.43588 
L 425.766234 -159.905843 
L 428.181818 -159.198455 
L 430.597403 -159.546436 
L 433.012987 -159.626813 
L 435.428571 -159.90589 
L 437.844156 -159.454796 
L 440.25974 -158.99669 
L 442.675325 -158.246349 
L 445.090909 -157.668443 
L 447.506494 -156.669475 
L 449.922078 -156.203248 
L 452.337662 -155.568671 
L 454.753247 -154.628346 
L 457.168831 -154.083339 
L 459.584416 -154.36845 
L 462 -154.627393 
L 464.415584 -153.94622 
L 466.831169 -154.353917 
L 469.246753 -154.268938 
L 471.662338 -153.853428 
L 474.077922 -154.553255 
L 476.493506 -155.765011 
L 478.909091 -156.443669 
L 481.324675 -155.673583 
L 483.74026 -155.392065 
L 486.155844 -154.661783 
L 488.571429 -151.761951 
L 490.987013 -148.643488 
L 493.402597 -144.196274 
L 495.818182 -140.592988 
L 498.233766 -136.855263 
L 500.649351 -134.109308 
L 503.064935 -132.708829 
L 505.480519 -131.214414 
L 507.896104 -131.271416 
L 510.311688 -132.329416 
L 512.727273 -133.620368 
L 515.142857 -135.697935 
L 517.558442 -137.392869 
L 519.974026 -139.999025 
L 522.38961 -142.767872 
L 524.805195 -144.997546 
L 527.220779 -146.591425 
L 529.636364 -148.316834 
L 532.051948 -149.489721 
L 534.467532 -150.025546 
L 536.883117 -151.001536 
L 539.298701 -151.071886 
L 541.714286 -150.862048 
L 544.12987 -149.326007 
L 546.545455 -149.937134 
L 548.961039 -149.53431 
L 551.376623 -148.879037 
L 553.792208 -149.412807 
L 556.207792 -151.306648 
L 558.623377 -153.798387 
L 561.038961 -157.569699 
L 563.454545 -161.095294 
L 565.87013 -164.152351 
L 568.285714 -166.089145 
L 570.701299 -166.178527 
L 573.116883 -165.172352 
L 575.532468 -162.635334 
L 577.948052 -158.516294 
L 580.363636 -153.448043 
L 582.779221 -148.731613 
L 585.194805 -144.771716 
L 587.61039 -141.745171 
L 590.025974 -142.433901 
L 592.441558 -145.011995 
L 594.857143 -147.866983 
L 597.272727 -151.670555 
L 599.688312 -155.884192 
L 602.103896 -159.79953 
L 604.519481 -162.560771 
L 606.935065 -165.114642 
L 609.350649 -167.443436 
L 611.766234 -169.668549 
L 614.181818 -172.032155 
L 616.597403 -175.541901 
L 619.012987 -178.761148 
L 621.428571 -182.634376 
L 623.844156 -186.705009 
L 626.25974 -191.073182 
L 628.675325 -194.768453 
L 631.090909 -198.431295 
L 633.506494 -201.81143 
L 635.922078 -204.967951 
L 638.337662 -207.022191 
L 640.753247 -209.19813 
L 643.168831 -210.541475 
L 645.584416 -211.62208 
L 648 -212.124066 
L 648 -245.614308 
L 648 -245.614308 
L 645.584416 -243.399853 
L 643.168831 -241.0154 
L 640.753247 -238.566182 
L 638.337662 -236.276975 
L 635.922078 -234.063675 
L 633.506494 -232.341428 
L 631.090909 -230.467337 
L 628.675325 -228.620689 
L 626.25974 -226.616933 
L 623.844156 -224.867175 
L 621.428571 -222.992528 
L 619.012987 -221.19731 
L 616.597403 -218.7888 
L 614.181818 -217.013594 
L 611.766234 -214.91417 
L 609.350649 -212.942555 
L 606.935065 -210.773268 
L 604.519481 -207.965892 
L 602.103896 -204.952385 
L 599.688312 -202.074289 
L 597.272727 -198.870185 
L 594.857143 -195.791541 
L 592.441558 -193.327786 
L 590.025974 -191.292125 
L 587.61039 -190.17922 
L 585.194805 -189.969716 
L 582.779221 -190.852428 
L 580.363636 -193.058523 
L 577.948052 -195.012048 
L 575.532468 -197.307898 
L 573.116883 -199.735511 
L 570.701299 -201.007384 
L 568.285714 -200.728481 
L 565.87013 -199.470759 
L 563.454545 -196.933657 
L 561.038961 -194.766392 
L 558.623377 -192.48458 
L 556.207792 -190.371173 
L 553.792208 -189.135506 
L 551.376623 -188.48875 
L 548.961039 -189.844096 
L 546.545455 -193.684048 
L 544.12987 -197.957102 
L 541.714286 -202.377749 
L 539.298701 -205.977965 
L 536.883117 -207.248426 
L 534.467532 -205.755331 
L 532.051948 -201.913801 
L 529.636364 -196.512618 
L 527.220779 -191.042008 
L 524.805195 -184.907527 
L 522.38961 -180.577163 
L 519.974026 -177.193787 
L 517.558442 -175.381464 
L 515.142857 -174.990726 
L 512.727273 -176.037444 
L 510.311688 -178.092872 
L 507.896104 -180.999069 
L 505.480519 -183.845609 
L 503.064935 -186.989121 
L 500.649351 -189.422903 
L 498.233766 -192.090264 
L 495.818182 -194.512022 
L 493.402597 -196.800535 
L 490.987013 -199.579188 
L 488.571429 -201.898796 
L 486.155844 -203.570471 
L 483.74026 -204.969365 
L 481.324675 -205.54498 
L 478.909091 -205.124092 
L 476.493506 -204.912617 
L 474.077922 -204.564408 
L 471.662338 -203.4409 
L 469.246753 -202.651699 
L 466.831169 -202.401959 
L 464.415584 -203.405361 
L 462 -204.338335 
L 459.584416 -206.175155 
L 457.168831 -207.91609 
L 454.753247 -210.608884 
L 452.337662 -212.838295 
L 449.922078 -214.701322 
L 447.506494 -216.412436 
L 445.090909 -217.879519 
L 442.675325 -218.842867 
L 440.25974 -220.16514 
L 437.844156 -220.6378 
L 435.428571 -221.364727 
L 433.012987 -222.94718 
L 430.597403 -224.746995 
L 428.181818 -226.533332 
L 425.766234 -228.523282 
L 423.350649 -230.485202 
L 420.935065 -233.642402 
L 418.519481 -236.941674 
L 416.103896 -241.040609 
L 413.688312 -245.722204 
L 411.272727 -251.035587 
L 408.857143 -257.459119 
L 406.441558 -262.96207 
L 404.025974 -268.7339 
L 401.61039 -273.429598 
L 399.194805 -277.312989 
L 396.779221 -279.424795 
L 394.363636 -280.303552 
L 391.948052 -279.066154 
L 389.532468 -277.114616 
L 387.116883 -273.603054 
L 384.701299 -270.05888 
L 382.285714 -266.369904 
L 379.87013 -262.591175 
L 377.454545 -258.35841 
L 375.038961 -256.173192 
L 372.623377 -253.337546 
L 370.207792 -250.917969 
L 367.792208 -248.103162 
L 365.376623 -246.088859 
L 362.961039 -244.548828 
L 360.545455 -243.461483 
L 358.12987 -243.651427 
L 355.714286 -244.803107 
L 353.298701 -247.267008 
L 350.883117 -252.015769 
L 348.467532 -257.296985 
L 346.051948 -263.894906 
L 343.636364 -271.304878 
L 341.220779 -277.916928 
L 338.805195 -284.349956 
L 336.38961 -290.383536 
L 333.974026 -296.386683 
L 331.558442 -302.345665 
L 329.142857 -307.980754 
L 326.727273 -314.303829 
L 324.311688 -321.302364 
L 321.896104 -328.008306 
L 319.480519 -333.593082 
L 317.064935 -338.986454 
L 314.649351 -343.039589 
L 312.233766 -344.353058 
L 309.818182 -343.904243 
L 307.402597 -341.569004 
L 304.987013 -336.901004 
L 302.571429 -330.963688 
L 300.155844 -325.35537 
L 297.74026 -319.943344 
L 295.324675 -315.192729 
L 292.909091 -312.316997 
L 290.493506 -310.097532 
L 288.077922 -308.159434 
L 285.662338 -305.951243 
L 283.246753 -304.524692 
L 280.831169 -303.066492 
L 278.415584 -301.046236 
L 276 -298.599669 
L 273.584416 -296.117757 
L 271.168831 -293.634649 
L 268.753247 -291.709644 
L 266.337662 -291.191017 
L 263.922078 -290.190021 
L 261.506494 -288.155286 
L 259.090909 -285.888885 
L 256.675325 -280.6052 
L 254.25974 -273.347068 
L 251.844156 -264.229215 
L 249.428571 -253.057625 
L 247.012987 -240.829534 
L 244.597403 -227.620404 
L 242.181818 -215.37187 
L 239.766234 -204.158773 
L 237.350649 -194.661882 
L 234.935065 -187.896004 
L 232.519481 -182.830867 
L 230.103896 -179.617694 
L 227.688312 -178.067376 
L 225.272727 -178.065465 
L 222.857143 -177.447633 
L 220.441558 -177.729783 
L 218.025974 -177.559666 
L 215.61039 -177.29087 
L 213.194805 -177.498745 
L 210.779221 -177.877541 
L 208.363636 -178.004229 
L 205.948052 -179.038053 
L 203.532468 -180.2639 
L 201.116883 -180.962001 
L 198.701299 -182.328261 
L 196.285714 -182.913146 
L 193.87013 -182.493273 
L 191.454545 -181.92519 
L 189.038961 -180.780152 
L 186.623377 -179.777635 
L 184.207792 -179.201237 
L 181.792208 -178.729714 
L 179.376623 -179.111294 
L 176.961039 -179.023214 
L 174.545455 -179.268941 
L 172.12987 -178.658673 
L 169.714286 -177.962792 
L 167.298701 -176.847254 
L 164.883117 -176.207543 
L 162.467532 -175.324688 
L 160.051948 -174.743019 
L 157.636364 -174.228696 
L 155.220779 -174.335023 
L 152.805195 -174.718896 
L 150.38961 -175.60261 
L 147.974026 -176.093923 
L 145.558442 -177.417701 
L 143.142857 -179.0562 
L 140.727273 -180.935238 
L 138.311688 -183.218739 
L 135.896104 -185.352683 
L 133.480519 -186.660882 
L 131.064935 -187.613184 
L 128.649351 -188.215521 
L 126.233766 -188.588747 
L 123.818182 -189.490347 
L 121.402597 -189.951692 
L 118.987013 -190.827262 
L 116.571429 -191.045403 
L 114.155844 -191.482944 
L 111.74026 -191.213868 
L 109.324675 -190.752117 
L 106.909091 -190.710025 
L 104.493506 -190.419893 
L 102.077922 -191.036003 
L 99.662338 -191.855033 
L 97.246753 -193.628378 
L 94.831169 -195.347841 
L 92.415584 -197.766014 
L 90 -200.217027 
z
" id="m2b6a65a023" style="stroke:#ff0000;stroke-opacity:0.3;"/>
    </defs>
    <g>
     <use style="fill:#ff0000;fill-opacity:0.3;stroke:#ff0000;stroke-opacity:0.3;" x="0" xlink:href="#m2b6a65a023" y="432"/>
    </g>
   </g>
   <g id="PolyCollection_2">
    <defs>
     <path d="M 90 -186.652228 
L 90 -160.03774 
L 92.415584 -160.147901 
L 94.831169 -160.368013 
L 97.246753 -160.556455 
L 99.662338 -160.011703 
L 102.077922 -159.823649 
L 104.493506 -160.176583 
L 106.909091 -160.741005 
L 109.324675 -162.423462 
L 111.74026 -164.40016 
L 114.155844 -166.222239 
L 116.571429 -168.003551 
L 118.987013 -168.994828 
L 121.402597 -169.510662 
L 123.818182 -169.492785 
L 126.233766 -168.516963 
L 128.649351 -167.843569 
L 131.064935 -167.130218 
L 133.480519 -166.937202 
L 135.896104 -166.946273 
L 138.311688 -166.668041 
L 140.727273 -166.168185 
L 143.142857 -164.982203 
L 145.558442 -163.675749 
L 147.974026 -161.869408 
L 150.38961 -159.624753 
L 152.805195 -157.608302 
L 155.220779 -155.614756 
L 157.636364 -154.142775 
L 160.051948 -153.993604 
L 162.467532 -153.485027 
L 164.883117 -153.546529 
L 167.298701 -153.316016 
L 169.714286 -153.824169 
L 172.12987 -153.989772 
L 174.545455 -153.793153 
L 176.961039 -154.561571 
L 179.376623 -155.886872 
L 181.792208 -158.345737 
L 184.207792 -161.096288 
L 186.623377 -164.271164 
L 189.038961 -167.535897 
L 191.454545 -170.557982 
L 193.87013 -172.962698 
L 196.285714 -173.715372 
L 198.701299 -173.451864 
L 201.116883 -172.548393 
L 203.532468 -170.576847 
L 205.948052 -168.12146 
L 208.363636 -165.052287 
L 210.779221 -161.26433 
L 213.194805 -157.422619 
L 215.61039 -153.727224 
L 218.025974 -150.117827 
L 220.441558 -148.250867 
L 222.857143 -148.096056 
L 225.272727 -149.557258 
L 227.688312 -152.605171 
L 230.103896 -157.210262 
L 232.519481 -163.174346 
L 234.935065 -171.50777 
L 237.350649 -180.251793 
L 239.766234 -189.87701 
L 242.181818 -200.135284 
L 244.597403 -210.279712 
L 247.012987 -219.554342 
L 249.428571 -227.471676 
L 251.844156 -233.906085 
L 254.25974 -238.408903 
L 256.675325 -240.716085 
L 259.090909 -241.150297 
L 261.506494 -240.209102 
L 263.922078 -238.408001 
L 266.337662 -236.954893 
L 268.753247 -234.361526 
L 271.168831 -232.829575 
L 273.584416 -232.745681 
L 276 -234.134029 
L 278.415584 -236.599025 
L 280.831169 -240.045713 
L 283.246753 -243.580613 
L 285.662338 -248.724994 
L 288.077922 -256.820789 
L 290.493506 -262.100069 
L 292.909091 -268.968969 
L 295.324675 -276.23722 
L 297.74026 -282.190194 
L 300.155844 -286.374059 
L 302.571429 -288.728476 
L 304.987013 -290.036533 
L 307.402597 -289.187544 
L 309.818182 -286.872356 
L 312.233766 -283.19346 
L 314.649351 -277.850584 
L 317.064935 -272.253437 
L 319.480519 -266.510287 
L 321.896104 -260.286977 
L 324.311688 -254.005343 
L 326.727273 -248.047622 
L 329.142857 -241.892405 
L 331.558442 -235.228674 
L 333.974026 -228.226308 
L 336.38961 -221.74282 
L 338.805195 -215.006962 
L 341.220779 -208.608654 
L 343.636364 -203.161435 
L 346.051948 -199.064128 
L 348.467532 -196.251905 
L 350.883117 -196.383371 
L 353.298701 -198.196615 
L 355.714286 -201.744424 
L 358.12987 -207.118036 
L 360.545455 -212.291454 
L 362.961039 -217.434434 
L 365.376623 -222.043137 
L 367.792208 -224.122606 
L 370.207792 -225.607453 
L 372.623377 -226.68973 
L 375.038961 -227.009041 
L 377.454545 -228.091116 
L 379.87013 -230.840193 
L 382.285714 -234.878813 
L 384.701299 -238.865572 
L 387.116883 -244.594522 
L 389.532468 -249.629461 
L 391.948052 -254.27472 
L 394.363636 -256.784279 
L 396.779221 -256.652431 
L 399.194805 -254.616022 
L 401.61039 -249.69835 
L 404.025974 -243.195548 
L 406.441558 -235.42411 
L 408.857143 -227.941419 
L 411.272727 -221.678185 
L 413.688312 -217.366692 
L 416.103896 -214.357431 
L 418.519481 -213.425716 
L 420.935065 -213.811098 
L 423.350649 -214.261703 
L 425.766234 -214.374732 
L 428.181818 -214.350169 
L 430.597403 -213.970557 
L 433.012987 -213.342089 
L 435.428571 -212.282577 
L 437.844156 -211.348314 
L 440.25974 -210.099831 
L 442.675325 -208.724613 
L 445.090909 -207.146148 
L 447.506494 -206.199669 
L 449.922078 -205.254632 
L 452.337662 -205.291712 
L 454.753247 -205.954636 
L 457.168831 -207.032716 
L 459.584416 -208.608474 
L 462 -210.907569 
L 464.415584 -212.015685 
L 466.831169 -212.168766 
L 469.246753 -211.149611 
L 471.662338 -208.459547 
L 474.077922 -205.618654 
L 476.493506 -200.667638 
L 478.909091 -195.400238 
L 481.324675 -190.221619 
L 483.74026 -184.121794 
L 486.155844 -178.921639 
L 488.571429 -173.097196 
L 490.987013 -167.889597 
L 493.402597 -163.431038 
L 495.818182 -158.99987 
L 498.233766 -155.707081 
L 500.649351 -152.605758 
L 503.064935 -150.660925 
L 505.480519 -149.711078 
L 507.896104 -149.699473 
L 510.311688 -150.295873 
L 512.727273 -151.969627 
L 515.142857 -153.37899 
L 517.558442 -154.932797 
L 519.974026 -155.424938 
L 522.38961 -155.739328 
L 524.805195 -155.934139 
L 527.220779 -155.563873 
L 529.636364 -155.27612 
L 532.051948 -155.270505 
L 534.467532 -154.928002 
L 536.883117 -155.494106 
L 539.298701 -156.831416 
L 541.714286 -158.470024 
L 544.12987 -160.208099 
L 546.545455 -162.743947 
L 548.961039 -164.774526 
L 551.376623 -166.204908 
L 553.792208 -167.654853 
L 556.207792 -168.451666 
L 558.623377 -168.698047 
L 561.038961 -168.408621 
L 563.454545 -167.558691 
L 565.87013 -166.449782 
L 568.285714 -165.370485 
L 570.701299 -163.755976 
L 573.116883 -163.157269 
L 575.532468 -162.563498 
L 577.948052 -163.634918 
L 580.363636 -165.269393 
L 582.779221 -167.80382 
L 585.194805 -170.900933 
L 587.61039 -173.940691 
L 590.025974 -176.95308 
L 592.441558 -178.744317 
L 594.857143 -180.038824 
L 597.272727 -180.985745 
L 599.688312 -181.652839 
L 602.103896 -182.290199 
L 604.519481 -182.368541 
L 606.935065 -182.848079 
L 609.350649 -183.237111 
L 611.766234 -184.006764 
L 614.181818 -185.06014 
L 616.597403 -187.000892 
L 619.012987 -188.671336 
L 621.428571 -190.450755 
L 623.844156 -191.84608 
L 626.25974 -192.839037 
L 628.675325 -193.122927 
L 631.090909 -193.531732 
L 633.506494 -193.75438 
L 635.922078 -193.158884 
L 638.337662 -192.69911 
L 640.753247 -192.093958 
L 643.168831 -191.877394 
L 645.584416 -190.896637 
L 648 -190.486468 
L 648 -237.214352 
L 648 -237.214352 
L 645.584416 -235.23808 
L 643.168831 -234.366694 
L 640.753247 -233.741543 
L 638.337662 -233.87037 
L 635.922078 -233.70434 
L 633.506494 -233.610959 
L 631.090909 -232.808071 
L 628.675325 -231.182653 
L 626.25974 -228.725744 
L 623.844156 -226.794634 
L 621.428571 -224.262272 
L 619.012987 -221.158519 
L 616.597403 -218.392608 
L 614.181818 -215.747633 
L 611.766234 -213.361606 
L 609.350649 -211.442156 
L 606.935065 -209.882274 
L 604.519481 -208.290993 
L 602.103896 -207.211756 
L 599.688312 -206.617728 
L 597.272727 -205.918642 
L 594.857143 -205.011475 
L 592.441558 -204.044998 
L 590.025974 -202.929163 
L 587.61039 -201.675597 
L 585.194805 -200.125884 
L 582.779221 -198.804996 
L 580.363636 -196.676475 
L 577.948052 -195.796658 
L 575.532468 -194.734188 
L 573.116883 -194.254658 
L 570.701299 -194.926377 
L 568.285714 -196.023733 
L 565.87013 -197.492893 
L 563.454545 -199.189166 
L 561.038961 -199.895816 
L 558.623377 -199.979562 
L 556.207792 -200.32048 
L 553.792208 -199.96787 
L 551.376623 -199.817245 
L 548.961039 -199.796681 
L 546.545455 -200.305263 
L 544.12987 -201.118241 
L 541.714286 -201.395897 
L 539.298701 -201.629647 
L 536.883117 -201.999793 
L 534.467532 -202.075971 
L 532.051948 -202.465519 
L 529.636364 -201.510676 
L 527.220779 -200.519327 
L 524.805195 -198.6729 
L 522.38961 -196.88461 
L 519.974026 -195.010253 
L 517.558442 -192.972428 
L 515.142857 -191.38353 
L 512.727273 -189.975007 
L 510.311688 -188.427903 
L 507.896104 -188.37665 
L 505.480519 -189.139744 
L 503.064935 -190.681074 
L 500.649351 -193.284023 
L 498.233766 -196.345702 
L 495.818182 -200.978514 
L 493.402597 -205.548336 
L 490.987013 -210.74248 
L 488.571429 -216.627116 
L 486.155844 -222.336498 
L 483.74026 -227.980498 
L 481.324675 -233.539289 
L 478.909091 -238.706268 
L 476.493506 -243.797929 
L 474.077922 -248.005395 
L 471.662338 -251.955389 
L 469.246753 -255.194121 
L 466.831169 -257.774805 
L 464.415584 -258.952221 
L 462 -259.203805 
L 459.584416 -258.850758 
L 457.168831 -257.796265 
L 454.753247 -255.639347 
L 452.337662 -253.680075 
L 449.922078 -252.346228 
L 447.506494 -251.500892 
L 445.090909 -252.720808 
L 442.675325 -255.164161 
L 440.25974 -258.740607 
L 437.844156 -262.625289 
L 435.428571 -266.229744 
L 433.012987 -267.936945 
L 430.597403 -268.279167 
L 428.181818 -266.653863 
L 425.766234 -264.490797 
L 423.350649 -261.937834 
L 420.935065 -260.76816 
L 418.519481 -261.325293 
L 416.103896 -263.27399 
L 413.688312 -266.929289 
L 411.272727 -272.640615 
L 408.857143 -278.954009 
L 406.441558 -286.647118 
L 404.025974 -293.768293 
L 401.61039 -300.160594 
L 399.194805 -304.603681 
L 396.779221 -307.120114 
L 394.363636 -306.702224 
L 391.948052 -303.484255 
L 389.532468 -299.864199 
L 387.116883 -295.1816 
L 384.701299 -290.006331 
L 382.285714 -285.401163 
L 379.87013 -281.638511 
L 377.454545 -279.136081 
L 375.038961 -277.019086 
L 372.623377 -275.22707 
L 370.207792 -273.729294 
L 367.792208 -271.720435 
L 365.376623 -269.285634 
L 362.961039 -267.270571 
L 360.545455 -264.751536 
L 358.12987 -261.573357 
L 355.714286 -258.000751 
L 353.298701 -255.737138 
L 350.883117 -254.506502 
L 348.467532 -254.829392 
L 346.051948 -257.258683 
L 343.636364 -262.012961 
L 341.220779 -267.64549 
L 338.805195 -274.377125 
L 336.38961 -280.933544 
L 333.974026 -287.557611 
L 331.558442 -295.026293 
L 329.142857 -301.280468 
L 326.727273 -307.476861 
L 324.311688 -313.727324 
L 321.896104 -318.87972 
L 319.480519 -324.223193 
L 317.064935 -330.845557 
L 314.649351 -335.735357 
L 312.233766 -341.104788 
L 309.818182 -345.587964 
L 307.402597 -348.83668 
L 304.987013 -351.513713 
L 302.571429 -351.083365 
L 300.155844 -350.230714 
L 297.74026 -348.847976 
L 295.324675 -347.521897 
L 292.909091 -345.074146 
L 290.493506 -343.052758 
L 288.077922 -341.063556 
L 285.662338 -337.816542 
L 283.246753 -333.548692 
L 280.831169 -329.12518 
L 278.415584 -323.852356 
L 276 -318.418751 
L 273.584416 -312.566134 
L 271.168831 -307.383456 
L 268.753247 -303.238839 
L 266.337662 -300.418997 
L 263.922078 -298.628059 
L 261.506494 -299.262062 
L 259.090909 -298.084755 
L 256.675325 -297.683318 
L 254.25974 -294.891613 
L 251.844156 -290.587949 
L 249.428571 -282.87832 
L 247.012987 -273.42034 
L 244.597403 -261.770552 
L 242.181818 -249.882858 
L 239.766234 -238.452667 
L 237.350649 -227.936966 
L 234.935065 -219.195175 
L 232.519481 -212.377773 
L 230.103896 -207.176871 
L 227.688312 -202.852906 
L 225.272727 -200.428535 
L 222.857143 -198.308189 
L 220.441558 -197.40942 
L 218.025974 -196.959195 
L 215.61039 -197.645821 
L 213.194805 -200.013835 
L 210.779221 -202.722939 
L 208.363636 -206.213646 
L 205.948052 -209.651919 
L 203.532468 -212.760613 
L 201.116883 -214.710149 
L 198.701299 -215.817085 
L 196.285714 -215.203232 
L 193.87013 -213.885594 
L 191.454545 -211.880522 
L 189.038961 -209.590314 
L 186.623377 -205.916543 
L 184.207792 -202.246056 
L 181.792208 -198.955267 
L 179.376623 -195.542229 
L 176.961039 -192.677441 
L 174.545455 -190.674578 
L 172.12987 -189.174793 
L 169.714286 -188.26498 
L 167.298701 -188.178861 
L 164.883117 -189.368264 
L 162.467532 -191.726611 
L 160.051948 -193.719313 
L 157.636364 -195.2319 
L 155.220779 -196.079028 
L 152.805195 -195.131068 
L 150.38961 -193.590916 
L 147.974026 -191.764593 
L 145.558442 -189.653191 
L 143.142857 -188.620637 
L 140.727273 -188.624596 
L 138.311688 -189.669809 
L 135.896104 -190.527038 
L 133.480519 -191.141463 
L 131.064935 -190.976661 
L 128.649351 -190.527895 
L 126.233766 -189.305454 
L 123.818182 -187.841858 
L 121.402597 -186.773126 
L 118.987013 -185.575032 
L 116.571429 -184.796468 
L 114.155844 -184.782821 
L 111.74026 -185.734756 
L 109.324675 -186.311794 
L 106.909091 -186.84022 
L 104.493506 -187.58684 
L 102.077922 -187.826009 
L 99.662338 -187.896265 
L 97.246753 -187.914124 
L 94.831169 -187.350759 
L 92.415584 -186.753739 
L 90 -186.652228 
z
" id="m5ea224cb10" style="stroke:#0000ff;stroke-opacity:0.3;"/>
    </defs>
    <g>
     <use style="fill:#0000ff;fill-opacity:0.3;stroke:#0000ff;stroke-opacity:0.3;" x="0" xlink:href="#m5ea224cb10" y="432"/>
    </g>
   </g>
   <g id="line2d_18">
    <path d="M 90 246.245903 
L 92.415584 247.870135 
L 94.831169 249.335094 
L 97.246753 250.595754 
L 99.662338 251.634693 
L 102.077922 252.458783 
L 104.493506 253.085178 
L 106.909091 253.524626 
L 109.324675 253.773906 
L 111.74026 253.819897 
L 114.155844 253.651446 
L 116.571429 253.278397 
L 123.818182 251.801312 
L 126.233766 251.747189 
L 128.649351 252.217041 
L 131.064935 253.310143 
L 133.480519 255.015788 
L 135.896104 257.203988 
L 140.727273 262.10062 
L 143.142857 264.326852 
L 145.558442 266.187984 
L 147.974026 267.63775 
L 150.38961 268.709706 
L 152.805195 269.485144 
L 157.636364 270.527656 
L 162.467532 271.484291 
L 164.883117 272.14585 
L 167.298701 273.016648 
L 169.714286 274.100041 
L 174.545455 276.542788 
L 176.961039 277.555038 
L 179.376623 278.150454 
L 181.792208 278.166427 
L 184.207792 277.543384 
L 186.623377 276.355777 
L 191.454545 273.204212 
L 193.87013 271.872447 
L 196.285714 271.09536 
L 198.701299 271.03057 
L 201.116883 271.671241 
L 203.532468 272.850215 
L 208.363636 275.639743 
L 210.779221 276.631414 
L 213.194805 277.092989 
L 215.61039 277.02611 
L 218.025974 276.579147 
L 225.272727 274.738092 
L 227.688312 273.912996 
L 230.103896 272.447575 
L 232.519481 269.796258 
L 234.935065 265.441939 
L 237.350649 259.048779 
L 239.766234 250.577334 
L 242.181818 240.33597 
L 249.428571 206.298885 
L 251.844156 196.794929 
L 254.25974 189.389989 
L 256.675325 184.348015 
L 259.090909 181.561451 
L 261.506494 180.592246 
L 263.922078 180.782342 
L 266.337662 181.40515 
L 268.753247 181.81637 
L 271.168831 181.568746 
L 273.584416 180.469752 
L 276 178.572777 
L 278.415584 176.10545 
L 288.077922 164.994977 
L 290.493506 161.86914 
L 292.909091 158.103633 
L 295.324675 153.436832 
L 297.74026 147.798371 
L 304.987013 128.266371 
L 307.402597 122.937235 
L 309.818182 119.30256 
L 312.233766 117.778006 
L 314.649351 118.482111 
L 317.064935 121.232905 
L 319.480519 125.613614 
L 321.896104 131.086137 
L 338.805195 173.601417 
L 343.636364 186.130429 
L 346.051948 192.103334 
L 348.467532 197.500982 
L 350.883117 202.036502 
L 353.298701 205.491972 
L 355.714286 207.76164 
L 358.12987 208.873185 
L 360.545455 208.977786 
L 362.961039 208.308567 
L 365.376623 207.120435 
L 367.792208 205.628246 
L 370.207792 203.956827 
L 372.623377 202.116939 
L 375.038961 200.021579 
L 377.454545 197.543508 
L 379.87013 194.593416 
L 382.285714 191.189824 
L 387.116883 183.856189 
L 389.532468 180.704542 
L 391.948052 178.547997 
L 394.363636 177.836876 
L 396.779221 178.872629 
L 399.194805 181.738354 
L 401.61039 186.273214 
L 404.025974 192.098666 
L 411.272727 212.042693 
L 413.688312 217.942044 
L 416.103896 222.994093 
L 418.519481 227.129194 
L 420.935065 230.386758 
L 423.350649 232.873673 
L 425.766234 234.727 
L 428.181818 236.092181 
L 430.597403 237.115006 
L 435.428571 238.681284 
L 440.25974 240.327581 
L 442.675325 241.350845 
L 445.090909 242.540138 
L 449.922078 245.338287 
L 454.753247 248.335159 
L 457.168831 249.716256 
L 459.584416 250.907822 
L 462 251.835593 
L 464.415584 252.437455 
L 466.831169 252.668886 
L 469.246753 252.518902 
L 471.662338 252.031834 
L 478.909091 249.978597 
L 481.324675 249.809917 
L 483.74026 250.267714 
L 486.155844 251.490454 
L 488.571429 253.509113 
L 490.987013 256.240803 
L 493.402597 259.507319 
L 500.649351 270.00443 
L 503.064935 272.915331 
L 505.480519 275.229438 
L 507.896104 276.846672 
L 510.311688 277.711806 
L 512.727273 277.806467 
L 515.142857 277.142488 
L 517.558442 275.757791 
L 519.974026 273.720144 
L 522.38961 271.139161 
L 527.220779 265.049295 
L 529.636364 262.012924 
L 532.051948 259.346845 
L 534.467532 257.318129 
L 536.883117 256.133613 
L 539.298701 255.886235 
L 541.714286 256.514967 
L 544.12987 257.793282 
L 546.545455 259.352892 
L 548.961039 260.744857 
L 551.376623 261.532354 
L 553.792208 261.393563 
L 556.207792 260.202761 
L 558.623377 258.06648 
L 565.87013 249.958625 
L 568.285714 248.420733 
L 570.701299 248.142516 
L 573.116883 249.207767 
L 575.532468 251.42626 
L 582.779221 260.115708 
L 585.194805 261.84365 
L 587.61039 262.365911 
L 590.025974 261.629595 
L 592.441558 259.787189 
L 594.857143 257.137483 
L 602.103896 247.845166 
L 604.519481 245.153926 
L 606.935065 242.820224 
L 609.350649 240.776948 
L 614.181818 236.974438 
L 616.597403 234.894019 
L 619.012987 232.547564 
L 621.428571 229.915558 
L 626.25974 224.083464 
L 631.090909 218.324795 
L 633.506494 215.713565 
L 635.922078 213.305746 
L 640.753247 208.937068 
L 645.584416 204.954421 
L 648 203.20887 
L 648 203.20887 
" style="fill:none;stroke:#ff0000;stroke-linecap:square;stroke-width:1.5;"/>
   </g>
   <g id="line2d_19">
    <path d="M 90 257.48832 
L 97.246753 257.292796 
L 102.077922 257.677945 
L 104.493506 257.889842 
L 106.909091 257.920649 
L 109.324675 257.664741 
L 111.74026 257.105861 
L 116.571429 255.438389 
L 118.987013 254.610302 
L 121.402597 253.951284 
L 123.818182 253.519399 
L 126.233766 253.310484 
L 128.649351 253.279448 
L 133.480519 253.545223 
L 138.311688 254.056937 
L 143.142857 254.773092 
L 147.974026 255.707603 
L 152.805195 256.916228 
L 157.636364 258.514609 
L 162.467532 260.299441 
L 164.883117 261.056492 
L 167.298701 261.566409 
L 169.714286 261.705038 
L 172.12987 261.36255 
L 174.545455 260.454753 
L 176.961039 258.931794 
L 179.376623 256.79137 
L 181.792208 254.095375 
L 184.207792 250.980309 
L 189.038961 244.393914 
L 191.454545 241.508148 
L 193.87013 239.317173 
L 196.285714 238.091319 
L 198.701299 237.997683 
L 201.116883 239.063158 
L 203.532468 241.164675 
L 205.948052 244.046362 
L 213.194805 253.82198 
L 215.61039 256.342698 
L 218.025974 258.089242 
L 220.441558 258.905408 
L 222.857143 258.662573 
L 225.272727 257.23688 
L 227.688312 254.496182 
L 230.103896 250.307884 
L 232.519481 244.572128 
L 234.935065 237.270673 
L 237.350649 228.51638 
L 239.766234 218.592439 
L 244.597403 197.279602 
L 247.012987 187.240287 
L 249.428571 178.530993 
L 251.844156 171.665427 
L 254.25974 166.888674 
L 256.675325 164.125658 
L 259.090909 162.996326 
L 261.506494 162.900097 
L 263.922078 163.14834 
L 266.337662 163.104474 
L 268.753247 162.294622 
L 271.168831 160.470086 
L 273.584416 157.615503 
L 276 153.902524 
L 278.415584 149.602848 
L 290.493506 126.574253 
L 292.909091 122.297566 
L 295.324675 118.350119 
L 297.74026 114.975867 
L 300.155844 112.486988 
L 302.571429 111.197965 
L 304.987013 111.346683 
L 307.402597 113.025838 
L 309.818182 116.147474 
L 312.233766 120.458727 
L 314.649351 125.608152 
L 319.480519 137.065392 
L 326.727273 154.829434 
L 331.558442 167.516174 
L 338.805195 187.629641 
L 341.220779 193.712801 
L 343.636364 198.895383 
L 346.051948 202.821854 
L 348.467532 205.214644 
L 350.883117 205.926777 
L 353.298701 204.984907 
L 355.714286 202.613795 
L 358.12987 199.223985 
L 362.961039 191.537783 
L 365.376623 188.238373 
L 367.792208 185.69346 
L 370.207792 183.885343 
L 375.038961 181.207328 
L 377.454545 179.376647 
L 379.87013 176.635582 
L 382.285714 172.793115 
L 384.701299 167.964664 
L 389.532468 157.372755 
L 391.948052 153.143521 
L 394.363636 150.685242 
L 396.779221 150.560964 
L 399.194805 152.98652 
L 401.61039 157.772369 
L 404.025974 164.349335 
L 408.857143 179.403267 
L 411.272727 186.048449 
L 413.688312 191.15132 
L 416.103896 194.377661 
L 418.519481 195.757102 
L 420.935065 195.642663 
L 423.350649 194.60365 
L 425.766234 193.286414 
L 428.181818 192.280377 
L 430.597403 192.01249 
L 433.012987 192.682574 
L 435.428571 194.249085 
L 437.844156 196.465809 
L 440.25974 198.953141 
L 442.675325 201.280242 
L 445.090909 203.044615 
L 447.506494 203.946483 
L 449.922078 203.851147 
L 452.337662 202.822627 
L 454.753247 201.114832 
L 457.168831 199.12098 
L 459.584416 197.293987 
L 462 196.056542 
L 464.415584 195.724894 
L 466.831169 196.469501 
L 469.246753 198.31934 
L 471.662338 201.194381 
L 474.077922 204.944461 
L 476.493506 209.384563 
L 478.909091 214.325991 
L 483.74026 225.064371 
L 490.987013 241.456359 
L 493.402597 246.535343 
L 495.818182 251.184062 
L 498.233766 255.225075 
L 500.649351 258.485671 
L 503.064935 260.835927 
L 505.480519 262.220977 
L 507.896104 262.677157 
L 510.311688 262.328456 
L 512.727273 261.362408 
L 515.142857 259.992318 
L 522.38961 255.394535 
L 524.805195 254.217797 
L 527.220779 253.386914 
L 529.636364 252.915766 
L 532.051948 252.747846 
L 539.298701 252.73284 
L 541.714286 252.417335 
L 544.12987 251.827212 
L 546.545455 251.000713 
L 551.376623 249.07979 
L 553.792208 248.29073 
L 556.207792 247.828903 
L 558.623377 247.816384 
L 561.038961 248.308466 
L 563.454545 249.268796 
L 570.701299 253.074362 
L 573.116883 253.719872 
L 575.532468 253.65743 
L 577.948052 252.818466 
L 580.363636 251.278562 
L 582.779221 249.232432 
L 587.61039 244.66516 
L 590.025974 242.609331 
L 592.441558 240.894121 
L 594.857143 239.557246 
L 597.272727 238.567171 
L 599.688312 237.8378 
L 604.519481 236.643521 
L 606.935065 235.894352 
L 609.350649 234.880385 
L 611.766234 233.530229 
L 614.181818 231.833795 
L 616.597403 229.845288 
L 623.844156 223.344972 
L 626.25974 221.502944 
L 628.675325 220.054146 
L 631.090909 219.078961 
L 633.506494 218.594518 
L 635.922078 218.5416 
L 640.753247 219.049939 
L 643.168831 219.085349 
L 645.584416 218.602503 
L 648 217.417587 
L 648 217.417587 
" style="fill:none;stroke:#0000ff;stroke-linecap:square;stroke-width:1.5;"/>
   </g>
  </g>
 </g>
 <defs>
  <clipPath id="p204740c976">
   <rect height="326.16" width="558" x="90" y="51.84"/>
  </clipPath>
 </defs>
</svg>
