<?xml version="1.0" encoding="utf-8" standalone="no"?>
<!DOCTYPE svg PUBLIC "-//W3C//DTD SVG 1.1//EN"
  "http://www.w3.org/Graphics/SVG/1.1/DTD/svg11.dtd">
<!-- Created with matplotlib (https://matplotlib.org/) -->
<svg height="432pt" version="1.1" viewBox="0 0 720 432" width="720pt" xmlns="http://www.w3.org/2000/svg" xmlns:xlink="http://www.w3.org/1999/xlink">
 <metadata>
  <rdf:RDF xmlns:cc="http://creativecommons.org/ns#" xmlns:dc="http://purl.org/dc/elements/1.1/" xmlns:rdf="http://www.w3.org/1999/02/22-rdf-syntax-ns#">
   <cc:Work>
    <dc:type rdf:resource="http://purl.org/dc/dcmitype/StillImage"/>
    <dc:date>2020-12-15T14:21:54.738149</dc:date>
    <dc:format>image/svg+xml</dc:format>
    <dc:creator>
     <cc:Agent>
      <dc:title>Matplotlib v3.3.3, https://matplotlib.org/</dc:title>
     </cc:Agent>
    </dc:creator>
   </cc:Work>
  </rdf:RDF>
 </metadata>
 <defs>
  <style type="text/css">*{stroke-linecap:butt;stroke-linejoin:round;}</style>
 </defs>
 <g id="figure_1">
  <g id="patch_1">
   <path d="M 0 432 
L 720 432 
L 720 0 
L 0 0 
z
" style="fill:none;"/>
  </g>
  <g id="axes_1">
   <g id="patch_2">
    <path d="M 90 378 
L 648 378 
L 648 51.84 
L 90 51.84 
z
" style="fill:none;opacity:0;"/>
   </g>
   <g id="patch_3">
    <path d="M 90 378 
L 90 51.84 
" style="fill:none;stroke:#000000;stroke-linecap:square;stroke-linejoin:miter;stroke-width:0.8;"/>
   </g>
   <g id="LineCollection_1">
    <path clip-path="url(#paad633ed49)" d="M 152.805195 51.84 
L 152.805195 378 
" style="fill:none;stroke:#000000;stroke-dasharray:3.7,1.6;stroke-dashoffset:0;"/>
   </g>
   <g id="matplotlib.axis_1">
    <g id="xtick_1">
     <g id="line2d_1">
      <defs>
       <path d="M 0 0 
L 0 3.5 
" id="mbd1922986b" style="stroke:#000000;stroke-width:0.8;"/>
      </defs>
      <g>
       <use style="stroke:#000000;stroke-width:0.8;" x="152.805195" xlink:href="#mbd1922986b" y="378"/>
      </g>
     </g>
     <g id="text_1">
      <!-- 0.0 -->
      <g transform="translate(141.673007 395.637812)scale(0.14 -0.14)">
       <defs>
        <path d="M 31.78125 66.40625 
Q 24.171875 66.40625 20.328125 58.90625 
Q 16.5 51.421875 16.5 36.375 
Q 16.5 21.390625 20.328125 13.890625 
Q 24.171875 6.390625 31.78125 6.390625 
Q 39.453125 6.390625 43.28125 13.890625 
Q 47.125 21.390625 47.125 36.375 
Q 47.125 51.421875 43.28125 58.90625 
Q 39.453125 66.40625 31.78125 66.40625 
z
M 31.78125 74.21875 
Q 44.046875 74.21875 50.515625 64.515625 
Q 56.984375 54.828125 56.984375 36.375 
Q 56.984375 17.96875 50.515625 8.265625 
Q 44.046875 -1.421875 31.78125 -1.421875 
Q 19.53125 -1.421875 13.0625 8.265625 
Q 6.59375 17.96875 6.59375 36.375 
Q 6.59375 54.828125 13.0625 64.515625 
Q 19.53125 74.21875 31.78125 74.21875 
z
" id="DejaVuSans-48"/>
        <path d="M 10.6875 12.40625 
L 21 12.40625 
L 21 0 
L 10.6875 0 
z
" id="DejaVuSans-46"/>
       </defs>
       <use xlink:href="#DejaVuSans-48"/>
       <use x="63.623047" xlink:href="#DejaVuSans-46"/>
       <use x="95.410156" xlink:href="#DejaVuSans-48"/>
      </g>
     </g>
    </g>
    <g id="xtick_2">
     <g id="line2d_2">
      <g>
       <use style="stroke:#000000;stroke-width:0.8;" x="276.483117" xlink:href="#mbd1922986b" y="378"/>
      </g>
     </g>
     <g id="text_2">
      <!-- 0.2 -->
      <g transform="translate(265.350929 395.637812)scale(0.14 -0.14)">
       <defs>
        <path d="M 19.1875 8.296875 
L 53.609375 8.296875 
L 53.609375 0 
L 7.328125 0 
L 7.328125 8.296875 
Q 12.9375 14.109375 22.625 23.890625 
Q 32.328125 33.6875 34.8125 36.53125 
Q 39.546875 41.84375 41.421875 45.53125 
Q 43.3125 49.21875 43.3125 52.78125 
Q 43.3125 58.59375 39.234375 62.25 
Q 35.15625 65.921875 28.609375 65.921875 
Q 23.96875 65.921875 18.8125 64.3125 
Q 13.671875 62.703125 7.8125 59.421875 
L 7.8125 69.390625 
Q 13.765625 71.78125 18.9375 73 
Q 24.125 74.21875 28.421875 74.21875 
Q 39.75 74.21875 46.484375 68.546875 
Q 53.21875 62.890625 53.21875 53.421875 
Q 53.21875 48.921875 51.53125 44.890625 
Q 49.859375 40.875 45.40625 35.40625 
Q 44.1875 33.984375 37.640625 27.21875 
Q 31.109375 20.453125 19.1875 8.296875 
z
" id="DejaVuSans-50"/>
       </defs>
       <use xlink:href="#DejaVuSans-48"/>
       <use x="63.623047" xlink:href="#DejaVuSans-46"/>
       <use x="95.410156" xlink:href="#DejaVuSans-50"/>
      </g>
     </g>
    </g>
    <g id="xtick_3">
     <g id="line2d_3">
      <g>
       <use style="stroke:#000000;stroke-width:0.8;" x="400.161039" xlink:href="#mbd1922986b" y="378"/>
      </g>
     </g>
     <g id="text_3">
      <!-- 0.4 -->
      <g transform="translate(389.028851 395.637812)scale(0.14 -0.14)">
       <defs>
        <path d="M 37.796875 64.3125 
L 12.890625 25.390625 
L 37.796875 25.390625 
z
M 35.203125 72.90625 
L 47.609375 72.90625 
L 47.609375 25.390625 
L 58.015625 25.390625 
L 58.015625 17.1875 
L 47.609375 17.1875 
L 47.609375 0 
L 37.796875 0 
L 37.796875 17.1875 
L 4.890625 17.1875 
L 4.890625 26.703125 
z
" id="DejaVuSans-52"/>
       </defs>
       <use xlink:href="#DejaVuSans-48"/>
       <use x="63.623047" xlink:href="#DejaVuSans-46"/>
       <use x="95.410156" xlink:href="#DejaVuSans-52"/>
      </g>
     </g>
    </g>
    <g id="xtick_4">
     <g id="line2d_4">
      <g>
       <use style="stroke:#000000;stroke-width:0.8;" x="523.838961" xlink:href="#mbd1922986b" y="378"/>
      </g>
     </g>
     <g id="text_4">
      <!-- 0.6 -->
      <g transform="translate(512.706774 395.637812)scale(0.14 -0.14)">
       <defs>
        <path d="M 33.015625 40.375 
Q 26.375 40.375 22.484375 35.828125 
Q 18.609375 31.296875 18.609375 23.390625 
Q 18.609375 15.53125 22.484375 10.953125 
Q 26.375 6.390625 33.015625 6.390625 
Q 39.65625 6.390625 43.53125 10.953125 
Q 47.40625 15.53125 47.40625 23.390625 
Q 47.40625 31.296875 43.53125 35.828125 
Q 39.65625 40.375 33.015625 40.375 
z
M 52.59375 71.296875 
L 52.59375 62.3125 
Q 48.875 64.0625 45.09375 64.984375 
Q 41.3125 65.921875 37.59375 65.921875 
Q 27.828125 65.921875 22.671875 59.328125 
Q 17.53125 52.734375 16.796875 39.40625 
Q 19.671875 43.65625 24.015625 45.921875 
Q 28.375 48.1875 33.59375 48.1875 
Q 44.578125 48.1875 50.953125 41.515625 
Q 57.328125 34.859375 57.328125 23.390625 
Q 57.328125 12.15625 50.6875 5.359375 
Q 44.046875 -1.421875 33.015625 -1.421875 
Q 20.359375 -1.421875 13.671875 8.265625 
Q 6.984375 17.96875 6.984375 36.375 
Q 6.984375 53.65625 15.1875 63.9375 
Q 23.390625 74.21875 37.203125 74.21875 
Q 40.921875 74.21875 44.703125 73.484375 
Q 48.484375 72.75 52.59375 71.296875 
z
" id="DejaVuSans-54"/>
       </defs>
       <use xlink:href="#DejaVuSans-48"/>
       <use x="63.623047" xlink:href="#DejaVuSans-46"/>
       <use x="95.410156" xlink:href="#DejaVuSans-54"/>
      </g>
     </g>
    </g>
    <g id="xtick_5">
     <g id="line2d_5">
      <g>
       <use style="stroke:#000000;stroke-width:0.8;" x="647.516883" xlink:href="#mbd1922986b" y="378"/>
      </g>
     </g>
     <g id="text_5">
      <!-- 0.8 -->
      <g transform="translate(636.384696 395.637812)scale(0.14 -0.14)">
       <defs>
        <path d="M 31.78125 34.625 
Q 24.75 34.625 20.71875 30.859375 
Q 16.703125 27.09375 16.703125 20.515625 
Q 16.703125 13.921875 20.71875 10.15625 
Q 24.75 6.390625 31.78125 6.390625 
Q 38.8125 6.390625 42.859375 10.171875 
Q 46.921875 13.96875 46.921875 20.515625 
Q 46.921875 27.09375 42.890625 30.859375 
Q 38.875 34.625 31.78125 34.625 
z
M 21.921875 38.8125 
Q 15.578125 40.375 12.03125 44.71875 
Q 8.5 49.078125 8.5 55.328125 
Q 8.5 64.0625 14.71875 69.140625 
Q 20.953125 74.21875 31.78125 74.21875 
Q 42.671875 74.21875 48.875 69.140625 
Q 55.078125 64.0625 55.078125 55.328125 
Q 55.078125 49.078125 51.53125 44.71875 
Q 48 40.375 41.703125 38.8125 
Q 48.828125 37.15625 52.796875 32.3125 
Q 56.78125 27.484375 56.78125 20.515625 
Q 56.78125 9.90625 50.3125 4.234375 
Q 43.84375 -1.421875 31.78125 -1.421875 
Q 19.734375 -1.421875 13.25 4.234375 
Q 6.78125 9.90625 6.78125 20.515625 
Q 6.78125 27.484375 10.78125 32.3125 
Q 14.796875 37.15625 21.921875 38.8125 
z
M 18.3125 54.390625 
Q 18.3125 48.734375 21.84375 45.5625 
Q 25.390625 42.390625 31.78125 42.390625 
Q 38.140625 42.390625 41.71875 45.5625 
Q 45.3125 48.734375 45.3125 54.390625 
Q 45.3125 60.0625 41.71875 63.234375 
Q 38.140625 66.40625 31.78125 66.40625 
Q 25.390625 66.40625 21.84375 63.234375 
Q 18.3125 60.0625 18.3125 54.390625 
z
" id="DejaVuSans-56"/>
       </defs>
       <use xlink:href="#DejaVuSans-48"/>
       <use x="63.623047" xlink:href="#DejaVuSans-46"/>
       <use x="95.410156" xlink:href="#DejaVuSans-56"/>
      </g>
     </g>
    </g>
    <g id="text_6">
     <!-- Time (s) -->
     <g transform="translate(340.539531 413.187187)scale(0.14 -0.14)">
      <defs>
       <path d="M -0.296875 72.90625 
L 61.375 72.90625 
L 61.375 64.59375 
L 35.5 64.59375 
L 35.5 0 
L 25.59375 0 
L 25.59375 64.59375 
L -0.296875 64.59375 
z
" id="DejaVuSans-84"/>
       <path d="M 9.421875 54.6875 
L 18.40625 54.6875 
L 18.40625 0 
L 9.421875 0 
z
M 9.421875 75.984375 
L 18.40625 75.984375 
L 18.40625 64.59375 
L 9.421875 64.59375 
z
" id="DejaVuSans-105"/>
       <path d="M 52 44.1875 
Q 55.375 50.25 60.0625 53.125 
Q 64.75 56 71.09375 56 
Q 79.640625 56 84.28125 50.015625 
Q 88.921875 44.046875 88.921875 33.015625 
L 88.921875 0 
L 79.890625 0 
L 79.890625 32.71875 
Q 79.890625 40.578125 77.09375 44.375 
Q 74.3125 48.1875 68.609375 48.1875 
Q 61.625 48.1875 57.5625 43.546875 
Q 53.515625 38.921875 53.515625 30.90625 
L 53.515625 0 
L 44.484375 0 
L 44.484375 32.71875 
Q 44.484375 40.625 41.703125 44.40625 
Q 38.921875 48.1875 33.109375 48.1875 
Q 26.21875 48.1875 22.15625 43.53125 
Q 18.109375 38.875 18.109375 30.90625 
L 18.109375 0 
L 9.078125 0 
L 9.078125 54.6875 
L 18.109375 54.6875 
L 18.109375 46.1875 
Q 21.1875 51.21875 25.484375 53.609375 
Q 29.78125 56 35.6875 56 
Q 41.65625 56 45.828125 52.96875 
Q 50 49.953125 52 44.1875 
z
" id="DejaVuSans-109"/>
       <path d="M 56.203125 29.59375 
L 56.203125 25.203125 
L 14.890625 25.203125 
Q 15.484375 15.921875 20.484375 11.0625 
Q 25.484375 6.203125 34.421875 6.203125 
Q 39.59375 6.203125 44.453125 7.46875 
Q 49.3125 8.734375 54.109375 11.28125 
L 54.109375 2.78125 
Q 49.265625 0.734375 44.1875 -0.34375 
Q 39.109375 -1.421875 33.890625 -1.421875 
Q 20.796875 -1.421875 13.15625 6.1875 
Q 5.515625 13.8125 5.515625 26.8125 
Q 5.515625 40.234375 12.765625 48.109375 
Q 20.015625 56 32.328125 56 
Q 43.359375 56 49.78125 48.890625 
Q 56.203125 41.796875 56.203125 29.59375 
z
M 47.21875 32.234375 
Q 47.125 39.59375 43.09375 43.984375 
Q 39.0625 48.390625 32.421875 48.390625 
Q 24.90625 48.390625 20.390625 44.140625 
Q 15.875 39.890625 15.1875 32.171875 
z
" id="DejaVuSans-101"/>
       <path id="DejaVuSans-32"/>
       <path d="M 31 75.875 
Q 24.46875 64.65625 21.28125 53.65625 
Q 18.109375 42.671875 18.109375 31.390625 
Q 18.109375 20.125 21.3125 9.0625 
Q 24.515625 -2 31 -13.1875 
L 23.1875 -13.1875 
Q 15.875 -1.703125 12.234375 9.375 
Q 8.59375 20.453125 8.59375 31.390625 
Q 8.59375 42.28125 12.203125 53.3125 
Q 15.828125 64.359375 23.1875 75.875 
z
" id="DejaVuSans-40"/>
       <path d="M 44.28125 53.078125 
L 44.28125 44.578125 
Q 40.484375 46.53125 36.375 47.5 
Q 32.28125 48.484375 27.875 48.484375 
Q 21.1875 48.484375 17.84375 46.4375 
Q 14.5 44.390625 14.5 40.28125 
Q 14.5 37.15625 16.890625 35.375 
Q 19.28125 33.59375 26.515625 31.984375 
L 29.59375 31.296875 
Q 39.15625 29.25 43.1875 25.515625 
Q 47.21875 21.78125 47.21875 15.09375 
Q 47.21875 7.46875 41.1875 3.015625 
Q 35.15625 -1.421875 24.609375 -1.421875 
Q 20.21875 -1.421875 15.453125 -0.5625 
Q 10.6875 0.296875 5.421875 2 
L 5.421875 11.28125 
Q 10.40625 8.6875 15.234375 7.390625 
Q 20.0625 6.109375 24.8125 6.109375 
Q 31.15625 6.109375 34.5625 8.28125 
Q 37.984375 10.453125 37.984375 14.40625 
Q 37.984375 18.0625 35.515625 20.015625 
Q 33.0625 21.96875 24.703125 23.78125 
L 21.578125 24.515625 
Q 13.234375 26.265625 9.515625 29.90625 
Q 5.8125 33.546875 5.8125 39.890625 
Q 5.8125 47.609375 11.28125 51.796875 
Q 16.75 56 26.8125 56 
Q 31.78125 56 36.171875 55.265625 
Q 40.578125 54.546875 44.28125 53.078125 
z
" id="DejaVuSans-115"/>
       <path d="M 8.015625 75.875 
L 15.828125 75.875 
Q 23.140625 64.359375 26.78125 53.3125 
Q 30.421875 42.28125 30.421875 31.390625 
Q 30.421875 20.453125 26.78125 9.375 
Q 23.140625 -1.703125 15.828125 -13.1875 
L 8.015625 -13.1875 
Q 14.5 -2 17.703125 9.0625 
Q 20.90625 20.125 20.90625 31.390625 
Q 20.90625 42.671875 17.703125 53.65625 
Q 14.5 64.65625 8.015625 75.875 
z
" id="DejaVuSans-41"/>
      </defs>
      <use xlink:href="#DejaVuSans-84"/>
      <use x="57.958984" xlink:href="#DejaVuSans-105"/>
      <use x="85.742188" xlink:href="#DejaVuSans-109"/>
      <use x="183.154297" xlink:href="#DejaVuSans-101"/>
      <use x="244.677734" xlink:href="#DejaVuSans-32"/>
      <use x="276.464844" xlink:href="#DejaVuSans-40"/>
      <use x="315.478516" xlink:href="#DejaVuSans-115"/>
      <use x="367.578125" xlink:href="#DejaVuSans-41"/>
     </g>
    </g>
   </g>
   <g id="matplotlib.axis_2">
    <g id="ytick_1">
     <g id="line2d_6">
      <defs>
       <path d="M 0 0 
L -3.5 0 
" id="m67d5f4b2ec" style="stroke:#000000;stroke-width:0.8;"/>
      </defs>
      <g>
       <use style="stroke:#000000;stroke-width:0.8;" x="90" xlink:href="#m67d5f4b2ec" y="378"/>
      </g>
     </g>
     <g id="text_7">
      <!-- −3 -->
      <g transform="translate(62.360937 383.318906)scale(0.14 -0.14)">
       <defs>
        <path d="M 10.59375 35.5 
L 73.1875 35.5 
L 73.1875 27.203125 
L 10.59375 27.203125 
z
" id="DejaVuSans-8722"/>
        <path d="M 40.578125 39.3125 
Q 47.65625 37.796875 51.625 33 
Q 55.609375 28.21875 55.609375 21.1875 
Q 55.609375 10.40625 48.1875 4.484375 
Q 40.765625 -1.421875 27.09375 -1.421875 
Q 22.515625 -1.421875 17.65625 -0.515625 
Q 12.796875 0.390625 7.625 2.203125 
L 7.625 11.71875 
Q 11.71875 9.328125 16.59375 8.109375 
Q 21.484375 6.890625 26.8125 6.890625 
Q 36.078125 6.890625 40.9375 10.546875 
Q 45.796875 14.203125 45.796875 21.1875 
Q 45.796875 27.640625 41.28125 31.265625 
Q 36.765625 34.90625 28.71875 34.90625 
L 20.21875 34.90625 
L 20.21875 43.015625 
L 29.109375 43.015625 
Q 36.375 43.015625 40.234375 45.921875 
Q 44.09375 48.828125 44.09375 54.296875 
Q 44.09375 59.90625 40.109375 62.90625 
Q 36.140625 65.921875 28.71875 65.921875 
Q 24.65625 65.921875 20.015625 65.03125 
Q 15.375 64.15625 9.8125 62.3125 
L 9.8125 71.09375 
Q 15.4375 72.65625 20.34375 73.4375 
Q 25.25 74.21875 29.59375 74.21875 
Q 40.828125 74.21875 47.359375 69.109375 
Q 53.90625 64.015625 53.90625 55.328125 
Q 53.90625 49.265625 50.4375 45.09375 
Q 46.96875 40.921875 40.578125 39.3125 
z
" id="DejaVuSans-51"/>
       </defs>
       <use xlink:href="#DejaVuSans-8722"/>
       <use x="83.789062" xlink:href="#DejaVuSans-51"/>
      </g>
     </g>
    </g>
    <g id="ytick_2">
     <g id="line2d_7">
      <g>
       <use style="stroke:#000000;stroke-width:0.8;" x="90" xlink:href="#m67d5f4b2ec" y="337.23"/>
      </g>
     </g>
     <g id="text_8">
      <!-- −2 -->
      <g transform="translate(62.360937 342.548906)scale(0.14 -0.14)">
       <use xlink:href="#DejaVuSans-8722"/>
       <use x="83.789062" xlink:href="#DejaVuSans-50"/>
      </g>
     </g>
    </g>
    <g id="ytick_3">
     <g id="line2d_8">
      <g>
       <use style="stroke:#000000;stroke-width:0.8;" x="90" xlink:href="#m67d5f4b2ec" y="296.46"/>
      </g>
     </g>
     <g id="text_9">
      <!-- −1 -->
      <g transform="translate(62.360937 301.778906)scale(0.14 -0.14)">
       <defs>
        <path d="M 12.40625 8.296875 
L 28.515625 8.296875 
L 28.515625 63.921875 
L 10.984375 60.40625 
L 10.984375 69.390625 
L 28.421875 72.90625 
L 38.28125 72.90625 
L 38.28125 8.296875 
L 54.390625 8.296875 
L 54.390625 0 
L 12.40625 0 
z
" id="DejaVuSans-49"/>
       </defs>
       <use xlink:href="#DejaVuSans-8722"/>
       <use x="83.789062" xlink:href="#DejaVuSans-49"/>
      </g>
     </g>
    </g>
    <g id="ytick_4">
     <g id="line2d_9">
      <g>
       <use style="stroke:#000000;stroke-width:0.8;" x="90" xlink:href="#m67d5f4b2ec" y="255.69"/>
      </g>
     </g>
     <g id="text_10">
      <!-- 0 -->
      <g transform="translate(74.0925 261.008906)scale(0.14 -0.14)">
       <use xlink:href="#DejaVuSans-48"/>
      </g>
     </g>
    </g>
    <g id="ytick_5">
     <g id="line2d_10">
      <g>
       <use style="stroke:#000000;stroke-width:0.8;" x="90" xlink:href="#m67d5f4b2ec" y="214.92"/>
      </g>
     </g>
     <g id="text_11">
      <!-- 1 -->
      <g transform="translate(74.0925 220.238906)scale(0.14 -0.14)">
       <use xlink:href="#DejaVuSans-49"/>
      </g>
     </g>
    </g>
    <g id="ytick_6">
     <g id="line2d_11">
      <g>
       <use style="stroke:#000000;stroke-width:0.8;" x="90" xlink:href="#m67d5f4b2ec" y="174.15"/>
      </g>
     </g>
     <g id="text_12">
      <!-- 2 -->
      <g transform="translate(74.0925 179.468906)scale(0.14 -0.14)">
       <use xlink:href="#DejaVuSans-50"/>
      </g>
     </g>
    </g>
    <g id="ytick_7">
     <g id="line2d_12">
      <g>
       <use style="stroke:#000000;stroke-width:0.8;" x="90" xlink:href="#m67d5f4b2ec" y="133.38"/>
      </g>
     </g>
     <g id="text_13">
      <!-- 3 -->
      <g transform="translate(74.0925 138.698906)scale(0.14 -0.14)">
       <use xlink:href="#DejaVuSans-51"/>
      </g>
     </g>
    </g>
    <g id="ytick_8">
     <g id="line2d_13">
      <g>
       <use style="stroke:#000000;stroke-width:0.8;" x="90" xlink:href="#m67d5f4b2ec" y="92.61"/>
      </g>
     </g>
     <g id="text_14">
      <!-- 4 -->
      <g transform="translate(74.0925 97.928906)scale(0.14 -0.14)">
       <use xlink:href="#DejaVuSans-52"/>
      </g>
     </g>
    </g>
    <g id="ytick_9">
     <g id="line2d_14">
      <g>
       <use style="stroke:#000000;stroke-width:0.8;" x="90" xlink:href="#m67d5f4b2ec" y="51.84"/>
      </g>
     </g>
     <g id="text_15">
      <!-- 5 -->
      <g transform="translate(74.0925 57.158906)scale(0.14 -0.14)">
       <defs>
        <path d="M 10.796875 72.90625 
L 49.515625 72.90625 
L 49.515625 64.59375 
L 19.828125 64.59375 
L 19.828125 46.734375 
Q 21.96875 47.46875 24.109375 47.828125 
Q 26.265625 48.1875 28.421875 48.1875 
Q 40.625 48.1875 47.75 41.5 
Q 54.890625 34.8125 54.890625 23.390625 
Q 54.890625 11.625 47.5625 5.09375 
Q 40.234375 -1.421875 26.90625 -1.421875 
Q 22.3125 -1.421875 17.546875 -0.640625 
Q 12.796875 0.140625 7.71875 1.703125 
L 7.71875 11.625 
Q 12.109375 9.234375 16.796875 8.0625 
Q 21.484375 6.890625 26.703125 6.890625 
Q 35.15625 6.890625 40.078125 11.328125 
Q 45.015625 15.765625 45.015625 23.390625 
Q 45.015625 31 40.078125 35.4375 
Q 35.15625 39.890625 26.703125 39.890625 
Q 22.75 39.890625 18.8125 39.015625 
Q 14.890625 38.140625 10.796875 36.28125 
z
" id="DejaVuSans-53"/>
       </defs>
       <use xlink:href="#DejaVuSans-53"/>
      </g>
     </g>
    </g>
    <g id="text_16">
     <!-- uV -->
     <g transform="translate(55.449375 224.144687)rotate(-90)scale(0.14 -0.14)">
      <defs>
       <path d="M 8.5 21.578125 
L 8.5 54.6875 
L 17.484375 54.6875 
L 17.484375 21.921875 
Q 17.484375 14.15625 20.5 10.265625 
Q 23.53125 6.390625 29.59375 6.390625 
Q 36.859375 6.390625 41.078125 11.03125 
Q 45.3125 15.671875 45.3125 23.6875 
L 45.3125 54.6875 
L 54.296875 54.6875 
L 54.296875 0 
L 45.3125 0 
L 45.3125 8.40625 
Q 42.046875 3.421875 37.71875 1 
Q 33.40625 -1.421875 27.6875 -1.421875 
Q 18.265625 -1.421875 13.375 4.4375 
Q 8.5 10.296875 8.5 21.578125 
z
M 31.109375 56 
z
" id="DejaVuSans-117"/>
       <path d="M 28.609375 0 
L 0.78125 72.90625 
L 11.078125 72.90625 
L 34.1875 11.53125 
L 57.328125 72.90625 
L 67.578125 72.90625 
L 39.796875 0 
z
" id="DejaVuSans-86"/>
      </defs>
      <use xlink:href="#DejaVuSans-117"/>
      <use x="63.378906" xlink:href="#DejaVuSans-86"/>
     </g>
    </g>
   </g>
   <g id="patch_4">
    <path d="M 152.805195 378 
L 647.516883 378 
" style="fill:none;stroke:#000000;stroke-linecap:square;stroke-linejoin:miter;stroke-width:0.8;"/>
   </g>
   <g id="patch_5">
    <path d="M 90 255.69 
L 648 255.69 
" style="fill:none;stroke:#000000;stroke-linecap:square;stroke-linejoin:miter;stroke-width:0.8;"/>
   </g>
   <g id="text_17">
    <!-- TP10 -->
    <g transform="translate(351.59625 45.84)scale(0.14 -0.14)">
     <defs>
      <path d="M 19.671875 64.796875 
L 19.671875 37.40625 
L 32.078125 37.40625 
Q 38.96875 37.40625 42.71875 40.96875 
Q 46.484375 44.53125 46.484375 51.125 
Q 46.484375 57.671875 42.71875 61.234375 
Q 38.96875 64.796875 32.078125 64.796875 
z
M 9.8125 72.90625 
L 32.078125 72.90625 
Q 44.34375 72.90625 50.609375 67.359375 
Q 56.890625 61.8125 56.890625 51.125 
Q 56.890625 40.328125 50.609375 34.8125 
Q 44.34375 29.296875 32.078125 29.296875 
L 19.671875 29.296875 
L 19.671875 0 
L 9.8125 0 
z
" id="DejaVuSans-80"/>
     </defs>
     <use xlink:href="#DejaVuSans-84"/>
     <use x="61.083984" xlink:href="#DejaVuSans-80"/>
     <use x="121.386719" xlink:href="#DejaVuSans-49"/>
     <use x="185.009766" xlink:href="#DejaVuSans-48"/>
    </g>
   </g>
   <g id="PolyCollection_1">
    <defs>
     <path d="M 90 -206.822044 
L 90 -169.197269 
L 92.415584 -168.236364 
L 94.831169 -166.827727 
L 97.246753 -165.609867 
L 99.662338 -164.49899 
L 102.077922 -163.870023 
L 104.493506 -163.068285 
L 106.909091 -163.065464 
L 109.324675 -162.983252 
L 111.74026 -162.645661 
L 114.155844 -162.902351 
L 116.571429 -163.421421 
L 118.987013 -165.016238 
L 121.402597 -166.157027 
L 123.818182 -167.524658 
L 126.233766 -168.056148 
L 128.649351 -167.514567 
L 131.064935 -165.782044 
L 133.480519 -162.61375 
L 135.896104 -158.740961 
L 138.311688 -155.445573 
L 140.727273 -153.101099 
L 143.142857 -152.230474 
L 145.558442 -151.600096 
L 147.974026 -152.342128 
L 150.38961 -153.608275 
L 152.805195 -154.879841 
L 155.220779 -156.154743 
L 157.636364 -156.24581 
L 160.051948 -155.057765 
L 162.467532 -154.083009 
L 164.883117 -152.187968 
L 167.298701 -149.518923 
L 169.714286 -147.689624 
L 172.12987 -146.423671 
L 174.545455 -146.42614 
L 176.961039 -146.397229 
L 179.376623 -146.626872 
L 181.792208 -147.596106 
L 184.207792 -148.34899 
L 186.623377 -149.17356 
L 189.038961 -150.781714 
L 191.454545 -151.105837 
L 193.87013 -152.471806 
L 196.285714 -152.071283 
L 198.701299 -151.943376 
L 201.116883 -151.414072 
L 203.532468 -149.802389 
L 205.948052 -149.21046 
L 208.363636 -149.086606 
L 210.779221 -150.214918 
L 213.194805 -151.826349 
L 215.61039 -154.167013 
L 218.025974 -156.128893 
L 220.441558 -157.591998 
L 222.857143 -157.743666 
L 225.272727 -157.613064 
L 227.688312 -157.343642 
L 230.103896 -157.56976 
L 232.519481 -159.020918 
L 234.935065 -162.086782 
L 237.350649 -167.173958 
L 239.766234 -175.071919 
L 242.181818 -184.786837 
L 244.597403 -195.583056 
L 247.012987 -206.942822 
L 249.428571 -218.015416 
L 251.844156 -226.578865 
L 254.25974 -233.468825 
L 256.675325 -238.363594 
L 259.090909 -239.512655 
L 261.506494 -238.886806 
L 263.922078 -236.945497 
L 266.337662 -233.977287 
L 268.753247 -231.866908 
L 271.168831 -230.446184 
L 273.584416 -230.289987 
L 276 -232.346723 
L 278.415584 -234.193219 
L 280.831169 -237.204824 
L 283.246753 -240.418413 
L 285.662338 -244.368875 
L 288.077922 -248.42988 
L 290.493506 -253.627649 
L 292.909091 -258.46148 
L 295.324675 -265.49654 
L 297.74026 -272.076077 
L 300.155844 -279.168189 
L 302.571429 -286.37647 
L 304.987013 -292.984071 
L 307.402597 -298.390671 
L 309.818182 -302.597853 
L 312.233766 -304.128053 
L 314.649351 -304.28971 
L 317.064935 -301.869877 
L 319.480519 -297.539912 
L 321.896104 -291.307012 
L 324.311688 -285.304039 
L 326.727273 -278.744334 
L 329.142857 -272.061924 
L 331.558442 -264.911042 
L 333.974026 -258.07223 
L 336.38961 -251.877732 
L 338.805195 -246.436697 
L 341.220779 -241.007522 
L 343.636364 -236.627268 
L 346.051948 -232.784245 
L 348.467532 -229.452319 
L 350.883117 -226.778716 
L 353.298701 -224.889353 
L 355.714286 -224.047826 
L 358.12987 -223.230607 
L 360.545455 -223.56882 
L 362.961039 -224.634504 
L 365.376623 -225.829029 
L 367.792208 -227.722012 
L 370.207792 -229.423844 
L 372.623377 -231.893865 
L 375.038961 -234.237051 
L 377.454545 -236.225239 
L 379.87013 -238.425955 
L 382.285714 -240.459418 
L 384.701299 -242.212171 
L 387.116883 -243.351913 
L 389.532468 -244.481349 
L 391.948052 -245.693748 
L 394.363636 -245.56565 
L 396.779221 -244.472045 
L 399.194805 -242.304996 
L 401.61039 -239.041529 
L 404.025974 -234.948256 
L 406.441558 -230.324426 
L 408.857143 -225.252032 
L 411.272727 -220.00469 
L 413.688312 -214.357608 
L 416.103896 -209.545723 
L 418.519481 -204.240978 
L 420.935065 -199.35846 
L 423.350649 -195.996633 
L 425.766234 -193.516381 
L 428.181818 -191.039895 
L 430.597403 -188.874846 
L 433.012987 -187.038353 
L 435.428571 -186.037863 
L 437.844156 -185.938378 
L 440.25974 -186.223862 
L 442.675325 -185.895069 
L 445.090909 -183.748252 
L 447.506494 -181.854312 
L 449.922078 -178.93704 
L 452.337662 -175.053671 
L 454.753247 -169.819479 
L 457.168831 -165.759722 
L 459.584416 -160.637851 
L 462 -156.869631 
L 464.415584 -153.156084 
L 466.831169 -150.739417 
L 469.246753 -148.930198 
L 471.662338 -149.713273 
L 474.077922 -151.484345 
L 476.493506 -154.894721 
L 478.909091 -159.111814 
L 481.324675 -163.574635 
L 483.74026 -166.7096 
L 486.155844 -169.989759 
L 488.571429 -171.150925 
L 490.987013 -169.858582 
L 493.402597 -166.686787 
L 495.818182 -162.959773 
L 498.233766 -158.719965 
L 500.649351 -154.293265 
L 503.064935 -150.60018 
L 505.480519 -147.349622 
L 507.896104 -145.377827 
L 510.311688 -143.393115 
L 512.727273 -142.555802 
L 515.142857 -141.31286 
L 517.558442 -141.26411 
L 519.974026 -141.051529 
L 522.38961 -141.236423 
L 524.805195 -142.052543 
L 527.220779 -143.869359 
L 529.636364 -146.720646 
L 532.051948 -150.263812 
L 534.467532 -153.775862 
L 536.883117 -156.909158 
L 539.298701 -159.86661 
L 541.714286 -162.715512 
L 544.12987 -164.992029 
L 546.545455 -166.184904 
L 548.961039 -167.123907 
L 551.376623 -167.908915 
L 553.792208 -168.032475 
L 556.207792 -168.466993 
L 558.623377 -168.473367 
L 561.038961 -168.381856 
L 563.454545 -168.551363 
L 565.87013 -168.689214 
L 568.285714 -168.70709 
L 570.701299 -167.839845 
L 573.116883 -166.711224 
L 575.532468 -164.804942 
L 577.948052 -162.271506 
L 580.363636 -159.819511 
L 582.779221 -158.332693 
L 585.194805 -157.013615 
L 587.61039 -156.399398 
L 590.025974 -156.764353 
L 592.441558 -157.405178 
L 594.857143 -158.107501 
L 597.272727 -159.828662 
L 599.688312 -161.98202 
L 602.103896 -165.358515 
L 604.519481 -168.294111 
L 606.935065 -171.875755 
L 609.350649 -174.744341 
L 611.766234 -177.831273 
L 614.181818 -180.127376 
L 616.597403 -181.218657 
L 619.012987 -182.342456 
L 621.428571 -184.058316 
L 623.844156 -185.581375 
L 626.25974 -187.292566 
L 628.675325 -189.100921 
L 631.090909 -190.502737 
L 633.506494 -192.584902 
L 635.922078 -194.119034 
L 638.337662 -197.140081 
L 640.753247 -200.519594 
L 643.168831 -204.54221 
L 645.584416 -207.922945 
L 648 -211.892115 
L 648 -263.834695 
L 648 -263.834695 
L 645.584416 -257.796455 
L 643.168831 -253.134003 
L 640.753247 -248.488374 
L 638.337662 -245.328075 
L 635.922078 -242.096864 
L 633.506494 -240.082787 
L 631.090909 -239.139521 
L 628.675325 -237.814298 
L 626.25974 -237.156028 
L 623.844156 -236.207717 
L 621.428571 -235.982369 
L 619.012987 -235.588028 
L 616.597403 -234.569156 
L 614.181818 -233.51191 
L 611.766234 -231.469223 
L 609.350649 -228.661045 
L 606.935065 -225.49902 
L 604.519481 -221.67466 
L 602.103896 -217.49494 
L 599.688312 -212.893339 
L 597.272727 -208.7124 
L 594.857143 -204.756421 
L 592.441558 -202.047817 
L 590.025974 -201.3317 
L 587.61039 -201.032468 
L 585.194805 -202.985012 
L 582.779221 -205.807735 
L 580.363636 -208.607793 
L 577.948052 -210.865429 
L 575.532468 -212.563512 
L 573.116883 -213.775493 
L 570.701299 -214.293742 
L 568.285714 -213.643717 
L 565.87013 -212.74297 
L 563.454545 -211.711409 
L 561.038961 -209.925481 
L 558.623377 -208.76363 
L 556.207792 -207.535522 
L 553.792208 -206.312323 
L 551.376623 -205.251206 
L 548.961039 -203.807384 
L 546.545455 -202.042275 
L 544.12987 -199.647823 
L 541.714286 -198.197164 
L 539.298701 -196.253306 
L 536.883117 -194.152631 
L 534.467532 -192.565412 
L 532.051948 -190.853231 
L 529.636364 -189.12391 
L 527.220779 -188.165503 
L 524.805195 -187.392108 
L 522.38961 -187.266088 
L 519.974026 -187.198999 
L 517.558442 -188.442769 
L 515.142857 -189.099542 
L 512.727273 -190.203557 
L 510.311688 -191.794895 
L 507.896104 -194.146221 
L 505.480519 -197.280192 
L 503.064935 -201.254764 
L 500.649351 -206.210991 
L 498.233766 -210.776954 
L 495.818182 -215.722855 
L 493.402597 -220.550976 
L 490.987013 -225.253073 
L 488.571429 -228.607247 
L 486.155844 -231.068383 
L 483.74026 -232.121481 
L 481.324675 -231.466525 
L 478.909091 -229.9192 
L 476.493506 -227.65171 
L 474.077922 -225.255027 
L 471.662338 -223.103336 
L 469.246753 -221.451096 
L 466.831169 -221.280076 
L 464.415584 -221.960013 
L 462 -224.267769 
L 459.584416 -227.201984 
L 457.168831 -230.527783 
L 454.753247 -234.219375 
L 452.337662 -238.245843 
L 449.922078 -241.505372 
L 447.506494 -243.659211 
L 445.090909 -245.369694 
L 442.675325 -245.528514 
L 440.25974 -244.523888 
L 437.844156 -243.242842 
L 435.428571 -241.914252 
L 433.012987 -240.723818 
L 430.597403 -240.644931 
L 428.181818 -241.859094 
L 425.766234 -243.466244 
L 423.350649 -246.564084 
L 420.935065 -250.329501 
L 418.519481 -256.144892 
L 416.103896 -262.280987 
L 413.688312 -268.917539 
L 411.272727 -274.77367 
L 408.857143 -281.14908 
L 406.441558 -286.492521 
L 404.025974 -291.399066 
L 401.61039 -294.742119 
L 399.194805 -296.37803 
L 396.779221 -296.524199 
L 394.363636 -295.336106 
L 391.948052 -293.704883 
L 389.532468 -291.353389 
L 387.116883 -288.258798 
L 384.701299 -284.585889 
L 382.285714 -281.831477 
L 379.87013 -278.424314 
L 377.454545 -275.313909 
L 375.038961 -272.703497 
L 372.623377 -270.1938 
L 370.207792 -267.968162 
L 367.792208 -265.347696 
L 365.376623 -263.223101 
L 362.961039 -261.281677 
L 360.545455 -260.245627 
L 358.12987 -260.187329 
L 355.714286 -261.024301 
L 353.298701 -263.973665 
L 350.883117 -267.963846 
L 348.467532 -272.845606 
L 346.051948 -277.848 
L 343.636364 -284.746991 
L 341.220779 -291.976394 
L 338.805195 -299.1285 
L 336.38961 -306.245087 
L 333.974026 -313.829267 
L 331.558442 -321.761232 
L 329.142857 -330.957767 
L 326.727273 -340.453982 
L 324.311688 -349.749231 
L 321.896104 -358.295563 
L 319.480519 -364.749532 
L 317.064935 -368.908165 
L 314.649351 -371.393614 
L 312.233766 -370.776953 
L 309.818182 -367.044429 
L 307.402597 -361.493604 
L 304.987013 -356.611106 
L 302.571429 -350.203382 
L 300.155844 -343.916231 
L 297.74026 -337.708559 
L 295.324675 -333.646813 
L 292.909091 -330.537794 
L 290.493506 -328.393547 
L 288.077922 -325.977924 
L 285.662338 -324.61073 
L 283.246753 -322.752413 
L 280.831169 -320.650981 
L 278.415584 -317.849845 
L 276 -313.751917 
L 273.584416 -310.796265 
L 271.168831 -308.592703 
L 268.753247 -307.770922 
L 266.337662 -306.78919 
L 263.922078 -307.581415 
L 261.506494 -306.092328 
L 259.090909 -304.324445 
L 256.675325 -300.587491 
L 254.25974 -294.627571 
L 251.844156 -286.689479 
L 249.428571 -276.243191 
L 247.012987 -263.985325 
L 244.597403 -251.952293 
L 242.181818 -239.263402 
L 239.766234 -229.376137 
L 237.350649 -220.649591 
L 234.935065 -214.454562 
L 232.519481 -211.354063 
L 230.103896 -209.464928 
L 227.688312 -209.259932 
L 225.272727 -211.103335 
L 222.857143 -211.368923 
L 220.441558 -211.418218 
L 218.025974 -211.650061 
L 215.61039 -210.36824 
L 213.194805 -208.867309 
L 210.779221 -207.046144 
L 208.363636 -205.062642 
L 205.948052 -203.284746 
L 203.532468 -201.329262 
L 201.116883 -199.278755 
L 198.701299 -197.636241 
L 196.285714 -196.649065 
L 193.87013 -195.173451 
L 191.454545 -193.334442 
L 189.038961 -191.440993 
L 186.623377 -190.215873 
L 184.207792 -188.929226 
L 181.792208 -187.650843 
L 179.376623 -187.084706 
L 176.961039 -186.765094 
L 174.545455 -186.36685 
L 172.12987 -185.794848 
L 169.714286 -185.343305 
L 167.298701 -184.783422 
L 164.883117 -184.370602 
L 162.467532 -184.568888 
L 160.051948 -185.539299 
L 157.636364 -186.82381 
L 155.220779 -188.457495 
L 152.805195 -189.171674 
L 150.38961 -188.836119 
L 147.974026 -188.401242 
L 145.558442 -186.870376 
L 143.142857 -185.496357 
L 140.727273 -184.684371 
L 138.311688 -183.854761 
L 135.896104 -184.286496 
L 133.480519 -185.415766 
L 131.064935 -186.796338 
L 128.649351 -188.039741 
L 126.233766 -189.18251 
L 123.818182 -190.312382 
L 121.402597 -190.758529 
L 118.987013 -190.755186 
L 116.571429 -190.088187 
L 114.155844 -189.009956 
L 111.74026 -188.114783 
L 109.324675 -187.16016 
L 106.909091 -187.467331 
L 104.493506 -188.835464 
L 102.077922 -190.855485 
L 99.662338 -194.335113 
L 97.246753 -197.355299 
L 94.831169 -200.6774 
L 92.415584 -203.909584 
L 90 -206.822044 
z
" id="mf2f6119b27" style="stroke:#ff0000;stroke-opacity:0.3;"/>
    </defs>
    <g>
     <use style="fill:#ff0000;fill-opacity:0.3;stroke:#ff0000;stroke-opacity:0.3;" x="0" xlink:href="#mf2f6119b27" y="432"/>
    </g>
   </g>
   <g id="PolyCollection_2">
    <defs>
     <path d="M 90 -197.437771 
L 90 -158.639727 
L 92.415584 -161.765635 
L 94.831169 -164.219957 
L 97.246753 -166.103183 
L 99.662338 -167.488564 
L 102.077922 -168.51091 
L 104.493506 -168.343326 
L 106.909091 -167.610749 
L 109.324675 -165.925118 
L 111.74026 -163.956425 
L 114.155844 -161.684096 
L 116.571429 -159.573007 
L 118.987013 -157.777797 
L 121.402597 -156.823733 
L 123.818182 -156.076796 
L 126.233766 -156.538456 
L 128.649351 -157.865147 
L 131.064935 -159.721277 
L 133.480519 -161.88849 
L 135.896104 -163.558434 
L 138.311688 -165.482519 
L 140.727273 -166.614407 
L 143.142857 -167.009195 
L 145.558442 -167.175703 
L 147.974026 -166.60063 
L 150.38961 -165.291572 
L 152.805195 -163.288104 
L 155.220779 -161.125088 
L 157.636364 -159.098378 
L 160.051948 -157.577727 
L 162.467532 -156.740665 
L 164.883117 -157.335458 
L 167.298701 -158.277995 
L 169.714286 -160.530745 
L 172.12987 -163.014651 
L 174.545455 -165.590968 
L 176.961039 -168.731402 
L 179.376623 -171.952309 
L 181.792208 -175.166289 
L 184.207792 -177.867239 
L 186.623377 -180.30613 
L 189.038961 -182.428783 
L 191.454545 -183.923475 
L 193.87013 -184.867622 
L 196.285714 -184.703161 
L 198.701299 -183.655647 
L 201.116883 -181.520237 
L 203.532468 -178.398813 
L 205.948052 -174.992562 
L 208.363636 -171.449316 
L 210.779221 -168.319375 
L 213.194805 -165.787813 
L 215.61039 -164.152041 
L 218.025974 -163.728765 
L 220.441558 -164.396586 
L 222.857143 -165.664719 
L 225.272727 -167.857851 
L 227.688312 -171.236348 
L 230.103896 -175.262027 
L 232.519481 -180.384329 
L 234.935065 -186.571361 
L 237.350649 -194.354359 
L 239.766234 -202.021987 
L 242.181818 -210.773719 
L 244.597403 -218.417339 
L 247.012987 -225.591155 
L 249.428571 -231.945897 
L 251.844156 -235.957245 
L 254.25974 -238.718817 
L 256.675325 -240.949185 
L 259.090909 -242.435162 
L 261.506494 -244.295642 
L 263.922078 -245.816262 
L 266.337662 -249.850688 
L 268.753247 -253.747201 
L 271.168831 -259.377477 
L 273.584416 -266.296039 
L 276 -273.244793 
L 278.415584 -278.608441 
L 280.831169 -284.105415 
L 283.246753 -289.910854 
L 285.662338 -294.236564 
L 288.077922 -295.347583 
L 290.493506 -297.572123 
L 292.909091 -299.551699 
L 295.324675 -301.288684 
L 297.74026 -304.112774 
L 300.155844 -306.492789 
L 302.571429 -306.748687 
L 304.987013 -306.187474 
L 307.402597 -303.702625 
L 309.818182 -299.291519 
L 312.233766 -295.549317 
L 314.649351 -291.118608 
L 317.064935 -286.137783 
L 319.480519 -280.88389 
L 321.896104 -273.943001 
L 324.311688 -268.424757 
L 326.727273 -263.590663 
L 329.142857 -259.394063 
L 331.558442 -254.636349 
L 333.974026 -251.192237 
L 336.38961 -247.644823 
L 338.805195 -243.108285 
L 341.220779 -239.297842 
L 343.636364 -236.393076 
L 346.051948 -233.676665 
L 348.467532 -231.537389 
L 350.883117 -230.985633 
L 353.298701 -230.676979 
L 355.714286 -231.878642 
L 358.12987 -233.583619 
L 360.545455 -235.445259 
L 362.961039 -236.754734 
L 365.376623 -237.972445 
L 367.792208 -239.152308 
L 370.207792 -239.986845 
L 372.623377 -240.771706 
L 375.038961 -241.595762 
L 377.454545 -243.165187 
L 379.87013 -245.87513 
L 382.285714 -249.666395 
L 384.701299 -254.2224 
L 387.116883 -258.443477 
L 389.532468 -262.463254 
L 391.948052 -265.669103 
L 394.363636 -267.342565 
L 396.779221 -267.7326 
L 399.194805 -265.70934 
L 401.61039 -262.948322 
L 404.025974 -257.42236 
L 406.441558 -251.144459 
L 408.857143 -244.371673 
L 411.272727 -237.156092 
L 413.688312 -231.321536 
L 416.103896 -226.28902 
L 418.519481 -222.455866 
L 420.935065 -219.086683 
L 423.350649 -217.012395 
L 425.766234 -214.731052 
L 428.181818 -213.475329 
L 430.597403 -212.21955 
L 433.012987 -211.620138 
L 435.428571 -210.85865 
L 437.844156 -209.687931 
L 440.25974 -208.599971 
L 442.675325 -208.364272 
L 445.090909 -208.488979 
L 447.506494 -210.157718 
L 449.922078 -211.441498 
L 452.337662 -212.88278 
L 454.753247 -214.274766 
L 457.168831 -216.123371 
L 459.584416 -216.649292 
L 462 -217.368396 
L 464.415584 -217.348975 
L 466.831169 -215.633658 
L 469.246753 -213.848521 
L 471.662338 -210.988332 
L 474.077922 -207.907768 
L 476.493506 -204.037258 
L 478.909091 -200.379861 
L 481.324675 -197.436768 
L 483.74026 -194.709363 
L 486.155844 -190.2583 
L 488.571429 -186.319654 
L 490.987013 -181.096263 
L 493.402597 -175.529393 
L 495.818182 -170.027172 
L 498.233766 -163.850472 
L 500.649351 -157.882474 
L 503.064935 -152.785796 
L 505.480519 -148.671214 
L 507.896104 -145.74903 
L 510.311688 -144.153504 
L 512.727273 -144.712817 
L 515.142857 -146.325633 
L 517.558442 -148.913759 
L 519.974026 -151.953826 
L 522.38961 -155.093768 
L 524.805195 -157.998303 
L 527.220779 -159.431464 
L 529.636364 -160.989841 
L 532.051948 -161.714888 
L 534.467532 -161.924518 
L 536.883117 -161.697042 
L 539.298701 -161.852018 
L 541.714286 -162.343099 
L 544.12987 -163.232606 
L 546.545455 -164.269993 
L 548.961039 -165.640026 
L 551.376623 -167.19542 
L 553.792208 -168.139453 
L 556.207792 -167.878261 
L 558.623377 -167.757669 
L 561.038961 -166.949076 
L 563.454545 -165.938035 
L 565.87013 -164.838162 
L 568.285714 -163.901841 
L 570.701299 -164.035135 
L 573.116883 -164.57383 
L 575.532468 -165.447398 
L 577.948052 -167.108941 
L 580.363636 -169.753861 
L 582.779221 -172.397222 
L 585.194805 -174.795991 
L 587.61039 -176.393721 
L 590.025974 -178.887032 
L 592.441558 -181.089913 
L 594.857143 -183.426354 
L 597.272727 -185.744163 
L 599.688312 -189.323864 
L 602.103896 -192.322583 
L 604.519481 -194.822727 
L 606.935065 -196.435096 
L 609.350649 -197.315685 
L 611.766234 -196.883395 
L 614.181818 -197.0536 
L 616.597403 -197.171093 
L 619.012987 -197.636921 
L 621.428571 -197.929347 
L 623.844156 -198.106859 
L 626.25974 -198.530327 
L 628.675325 -200.09637 
L 631.090909 -200.990283 
L 633.506494 -202.187086 
L 635.922078 -203.7593 
L 638.337662 -205.573618 
L 640.753247 -207.20035 
L 643.168831 -208.069515 
L 645.584416 -209.235976 
L 648 -210.800005 
L 648 -265.114753 
L 648 -265.114753 
L 645.584416 -265.131358 
L 643.168831 -264.287417 
L 640.753247 -263.022606 
L 638.337662 -262.282204 
L 635.922078 -260.731535 
L 633.506494 -258.78592 
L 631.090909 -256.454292 
L 628.675325 -253.323908 
L 626.25974 -249.948328 
L 623.844156 -246.758147 
L 621.428571 -243.838537 
L 619.012987 -241.257267 
L 616.597403 -238.847305 
L 614.181818 -236.181649 
L 611.766234 -233.465199 
L 609.350649 -231.449814 
L 606.935065 -228.670441 
L 604.519481 -226.202439 
L 602.103896 -223.135205 
L 599.688312 -220.31662 
L 597.272727 -217.137217 
L 594.857143 -214.332277 
L 592.441558 -211.854456 
L 590.025974 -209.02597 
L 587.61039 -206.962685 
L 585.194805 -205.390615 
L 582.779221 -204.004673 
L 580.363636 -202.686908 
L 577.948052 -201.370394 
L 575.532468 -199.896111 
L 573.116883 -198.78695 
L 570.701299 -197.308283 
L 568.285714 -196.554992 
L 565.87013 -196.192985 
L 563.454545 -196.61812 
L 561.038961 -197.21317 
L 558.623377 -198.181855 
L 556.207792 -198.804572 
L 553.792208 -199.887726 
L 551.376623 -201.413253 
L 548.961039 -202.437529 
L 546.545455 -203.915037 
L 544.12987 -204.821873 
L 541.714286 -206.093771 
L 539.298701 -206.48305 
L 536.883117 -207.358344 
L 534.467532 -207.612279 
L 532.051948 -207.969644 
L 529.636364 -207.68342 
L 527.220779 -205.308285 
L 524.805195 -202.904571 
L 522.38961 -200.613034 
L 519.974026 -197.46088 
L 517.558442 -194.175254 
L 515.142857 -190.79754 
L 512.727273 -188.771114 
L 510.311688 -187.992882 
L 507.896104 -188.384819 
L 505.480519 -190.246757 
L 503.064935 -193.193601 
L 500.649351 -198.077045 
L 498.233766 -203.962346 
L 495.818182 -210.101035 
L 493.402597 -217.169679 
L 490.987013 -224.217219 
L 488.571429 -230.630013 
L 486.155844 -237.036804 
L 483.74026 -242.166763 
L 481.324675 -246.487232 
L 478.909091 -250.470204 
L 476.493506 -253.348128 
L 474.077922 -256.323193 
L 471.662338 -259.009336 
L 469.246753 -260.088563 
L 466.831169 -261.544232 
L 464.415584 -261.853878 
L 462 -261.564859 
L 459.584416 -260.86019 
L 457.168831 -258.930571 
L 454.753247 -256.472196 
L 452.337662 -254.40849 
L 449.922078 -252.515598 
L 447.506494 -252.201737 
L 445.090909 -251.932399 
L 442.675325 -252.556875 
L 440.25974 -253.861257 
L 437.844156 -255.344736 
L 435.428571 -256.972586 
L 433.012987 -258.853629 
L 430.597403 -261.20632 
L 428.181818 -263.332602 
L 425.766234 -265.77613 
L 423.350649 -267.786755 
L 420.935065 -270.261459 
L 418.519481 -273.547343 
L 416.103896 -277.824876 
L 413.688312 -282.827684 
L 411.272727 -288.367249 
L 408.857143 -294.705106 
L 406.441558 -301.266268 
L 404.025974 -307.012289 
L 401.61039 -311.950574 
L 399.194805 -315.447089 
L 396.779221 -317.221954 
L 394.363636 -316.896321 
L 391.948052 -314.774991 
L 389.532468 -310.753893 
L 387.116883 -307.221007 
L 384.701299 -302.67874 
L 382.285714 -298.27346 
L 379.87013 -295.504689 
L 377.454545 -292.894193 
L 375.038961 -290.485929 
L 372.623377 -288.734006 
L 370.207792 -287.234126 
L 367.792208 -285.52 
L 365.376623 -284.287454 
L 362.961039 -282.213076 
L 360.545455 -280.067117 
L 358.12987 -278.241783 
L 355.714286 -277.373634 
L 353.298701 -275.856892 
L 350.883117 -275.482954 
L 348.467532 -276.619984 
L 346.051948 -279.398374 
L 343.636364 -283.3978 
L 341.220779 -288.930531 
L 338.805195 -295.667713 
L 336.38961 -302.308359 
L 333.974026 -309.098849 
L 331.558442 -315.011605 
L 329.142857 -320.412941 
L 326.727273 -326.13293 
L 324.311688 -331.437065 
L 321.896104 -336.838398 
L 319.480519 -341.660757 
L 317.064935 -348.122255 
L 314.649351 -355.688993 
L 312.233766 -361.838737 
L 309.818182 -367.611436 
L 307.402597 -371.90228 
L 304.987013 -375.199015 
L 302.571429 -378.136134 
L 300.155844 -378.697885 
L 297.74026 -378.103973 
L 295.324675 -378.578047 
L 292.909091 -376.613715 
L 290.493506 -375.088244 
L 288.077922 -373.439924 
L 285.662338 -370.962136 
L 283.246753 -367.571786 
L 280.831169 -362.275219 
L 278.415584 -356.545232 
L 276 -350.015383 
L 273.584416 -343.796852 
L 271.168831 -335.189054 
L 268.753247 -327.783429 
L 266.337662 -321.182804 
L 263.922078 -315.667993 
L 261.506494 -310.556187 
L 259.090909 -307.419294 
L 256.675325 -302.532453 
L 254.25974 -299.359121 
L 251.844156 -294.020834 
L 249.428571 -288.392343 
L 247.012987 -280.568657 
L 244.597403 -272.784617 
L 242.181818 -264.464046 
L 239.766234 -256.365928 
L 237.350649 -248.332452 
L 234.935065 -240.982117 
L 232.519481 -233.054456 
L 230.103896 -226.889044 
L 227.688312 -221.730615 
L 225.272727 -217.595311 
L 222.857143 -214.314569 
L 220.441558 -212.789209 
L 218.025974 -211.388881 
L 215.61039 -211.321943 
L 213.194805 -212.023252 
L 210.779221 -214.70009 
L 208.363636 -217.441671 
L 205.948052 -219.865378 
L 203.532468 -222.690229 
L 201.116883 -224.225268 
L 198.701299 -224.984087 
L 196.285714 -224.590951 
L 193.87013 -222.926406 
L 191.454545 -220.27419 
L 189.038961 -216.548052 
L 186.623377 -212.624357 
L 184.207792 -209.368298 
L 181.792208 -206.00314 
L 179.376623 -203.353762 
L 176.961039 -200.504498 
L 174.545455 -198.129299 
L 172.12987 -195.754668 
L 169.714286 -194.339916 
L 167.298701 -192.955911 
L 164.883117 -191.847782 
L 162.467532 -191.378265 
L 160.051948 -191.552117 
L 157.636364 -192.420158 
L 155.220779 -193.560319 
L 152.805195 -195.064117 
L 150.38961 -195.570757 
L 147.974026 -195.959157 
L 145.558442 -195.626048 
L 143.142857 -193.870537 
L 140.727273 -191.932398 
L 138.311688 -189.215913 
L 135.896104 -186.31599 
L 133.480519 -183.689267 
L 131.064935 -181.671172 
L 128.649351 -180.31836 
L 126.233766 -180.059346 
L 123.818182 -180.119391 
L 121.402597 -180.729581 
L 118.987013 -181.568 
L 116.571429 -182.884812 
L 114.155844 -184.930922 
L 111.74026 -187.029137 
L 109.324675 -189.503849 
L 106.909091 -191.636918 
L 104.493506 -193.490654 
L 102.077922 -194.683173 
L 99.662338 -195.307973 
L 97.246753 -196.217842 
L 94.831169 -196.999386 
L 92.415584 -197.164401 
L 90 -197.437771 
z
" id="m932e613ec6" style="stroke:#0000ff;stroke-opacity:0.3;"/>
    </defs>
    <g>
     <use style="fill:#0000ff;fill-opacity:0.3;stroke:#0000ff;stroke-opacity:0.3;" x="0" xlink:href="#m932e613ec6" y="432"/>
    </g>
   </g>
   <g id="line2d_15">
    <path d="M 90 244.469546 
L 92.415584 246.109361 
L 94.831169 248.115884 
L 99.662338 252.562128 
L 102.077922 254.563017 
L 104.493506 256.125295 
L 106.909091 257.089224 
L 109.324675 257.381425 
L 111.74026 257.034515 
L 114.155844 256.187965 
L 118.987013 253.957262 
L 121.402597 253.136155 
L 123.818182 252.841401 
L 126.233766 253.212704 
L 128.649351 254.26032 
L 131.064935 255.853808 
L 135.896104 259.588454 
L 138.311688 261.074435 
L 140.727273 261.957546 
L 143.142857 262.153649 
L 145.558442 261.759151 
L 150.38961 260.258289 
L 152.805195 259.773157 
L 155.220779 259.767591 
L 157.636364 260.30412 
L 160.051948 261.305586 
L 167.298701 265.060927 
L 169.714286 265.843938 
L 172.12987 266.176409 
L 174.545455 266.057255 
L 176.961039 265.55495 
L 179.376623 264.77492 
L 184.207792 262.798733 
L 189.038961 260.74319 
L 193.87013 258.955338 
L 196.285714 258.240039 
L 201.116883 257.161971 
L 205.948052 256.128762 
L 208.363636 255.378358 
L 210.779221 254.387998 
L 215.61039 251.999473 
L 218.025974 250.999464 
L 220.441558 250.424437 
L 222.857143 250.356505 
L 227.688312 250.878189 
L 230.103896 250.428914 
L 232.519481 248.59656 
L 234.935065 244.77405 
L 237.350649 238.610308 
L 239.766234 230.119042 
L 242.181818 219.708047 
L 249.428571 185.289882 
L 251.844156 175.902354 
L 254.25974 168.741013 
L 256.675325 164.023421 
L 259.090909 161.581128 
L 261.506494 160.917896 
L 263.922078 161.33068 
L 266.337662 162.065485 
L 268.753247 162.471926 
L 271.168831 162.120253 
L 273.584416 160.85365 
L 276 158.766929 
L 278.415584 156.124154 
L 285.662338 147.614854 
L 288.077922 144.86488 
L 290.493506 141.857468 
L 292.909091 138.248932 
L 295.324675 133.744553 
L 297.74026 128.220254 
L 300.155844 121.803123 
L 304.987013 108.083169 
L 307.402597 102.108014 
L 309.818182 97.657452 
L 312.233766 95.278566 
L 314.649351 95.277211 
L 317.064935 97.674368 
L 319.480519 102.219939 
L 321.896104 108.460243 
L 324.311688 115.840165 
L 331.558442 139.805046 
L 333.974026 147.307548 
L 336.38961 154.330312 
L 338.805195 160.851736 
L 341.220779 166.867381 
L 343.636364 172.355292 
L 346.051948 177.260169 
L 348.467532 181.496349 
L 350.883117 184.964589 
L 353.298701 187.575472 
L 355.714286 189.272494 
L 358.12987 190.04981 
L 360.545455 189.961919 
L 362.961039 189.123257 
L 365.376623 187.69492 
L 367.792208 185.857539 
L 372.623377 181.568394 
L 377.454545 176.953064 
L 382.285714 172.009193 
L 387.116883 166.945564 
L 389.532468 164.736796 
L 391.948052 163.082052 
L 394.363636 162.261381 
L 396.779221 162.510076 
L 399.194805 163.967326 
L 401.61039 166.644444 
L 404.025974 170.424095 
L 406.441558 175.090076 
L 408.857143 180.373163 
L 416.103896 197.225428 
L 418.519481 202.390126 
L 420.935065 206.994112 
L 423.350649 210.872226 
L 425.766234 213.899565 
L 428.181818 216.014452 
L 430.597403 217.239706 
L 433.012987 217.694718 
L 435.428571 217.594457 
L 440.25974 216.952754 
L 442.675325 217.095279 
L 445.090909 217.950025 
L 447.506494 219.700551 
L 449.922078 222.386177 
L 452.337662 225.888973 
L 457.168831 234.228626 
L 459.584416 238.329169 
L 462 241.876897 
L 464.415584 244.541074 
L 466.831169 246.070729 
L 469.246753 246.32942 
L 471.662338 245.328395 
L 474.077922 243.247831 
L 476.493506 240.435439 
L 478.909091 237.37453 
L 481.324675 234.618427 
L 483.74026 232.698183 
L 486.155844 232.024136 
L 488.571429 232.80901 
L 490.987013 235.03452 
L 493.402597 238.469122 
L 495.818182 242.729879 
L 500.649351 251.964824 
L 503.064935 256.179465 
L 505.480519 259.797762 
L 507.896104 262.724037 
L 510.311688 264.960295 
L 512.727273 266.570153 
L 515.142857 267.638506 
L 517.558442 268.23596 
L 519.974026 268.395399 
L 522.38961 268.105531 
L 524.805195 267.32371 
L 527.220779 266.006187 
L 529.636364 264.146467 
L 532.051948 261.806318 
L 536.883117 256.309727 
L 539.298701 253.590178 
L 541.714286 251.180934 
L 544.12987 249.228457 
L 546.545455 247.779881 
L 548.961039 246.779423 
L 551.376623 246.094734 
L 558.623377 244.427613 
L 563.454545 243.031168 
L 565.87013 242.472317 
L 568.285714 242.230812 
L 570.701299 242.456882 
L 573.116883 243.226946 
L 575.532468 244.510949 
L 577.948052 246.165551 
L 580.363636 247.955467 
L 582.779221 249.59589 
L 585.194805 250.801727 
L 587.61039 251.330387 
L 590.025974 251.012673 
L 592.441558 249.772574 
L 594.857143 247.636967 
L 597.272727 244.734363 
L 599.688312 241.281817 
L 604.519481 233.875 
L 606.935065 230.512873 
L 609.350649 227.688497 
L 611.766234 225.508087 
L 614.181818 223.953618 
L 616.597403 222.896822 
L 626.25974 219.770219 
L 628.675325 218.556602 
L 631.090909 217.043575 
L 633.506494 215.191606 
L 635.922078 212.947553 
L 638.337662 210.255271 
L 640.753247 207.084008 
L 643.168831 203.462342 
L 648 195.392104 
L 648 195.392104 
" style="fill:none;stroke:#ff0000;stroke-linecap:square;stroke-width:1.5;"/>
   </g>
   <g id="line2d_16">
    <path d="M 90 254.372469 
L 94.831169 251.497691 
L 97.246753 250.403575 
L 99.662338 249.909345 
L 102.077922 250.136816 
L 104.493506 251.066951 
L 106.909091 252.568547 
L 109.324675 254.446743 
L 114.155844 258.51131 
L 116.571429 260.347553 
L 118.987013 261.870342 
L 121.402597 262.965608 
L 123.818182 263.525751 
L 126.233766 263.45653 
L 128.649351 262.703604 
L 131.064935 261.289079 
L 133.480519 259.339746 
L 138.311688 254.849209 
L 140.727273 252.947138 
L 143.142857 251.661719 
L 145.558442 251.163839 
L 147.974026 251.486942 
L 150.38961 252.527043 
L 152.805195 254.065608 
L 157.636364 257.421614 
L 160.051948 258.60214 
L 162.467532 259.108599 
L 164.883117 258.810501 
L 167.298701 257.703746 
L 169.714286 255.897846 
L 172.12987 253.574126 
L 174.545455 250.927931 
L 179.376623 245.224631 
L 189.038961 233.456337 
L 191.454545 230.972694 
L 193.87013 229.154697 
L 196.285714 228.286767 
L 198.701299 228.552936 
L 201.116883 229.968574 
L 203.532468 232.354707 
L 210.779221 241.455395 
L 213.194805 243.708331 
L 215.61039 245.061187 
L 218.025974 245.403739 
L 220.441558 244.728005 
L 222.857143 243.074169 
L 225.272727 240.479343 
L 227.688312 236.947993 
L 230.103896 232.452903 
L 232.519481 226.963563 
L 234.935065 220.489783 
L 237.350649 213.125935 
L 242.181818 196.695821 
L 244.597403 188.39522 
L 247.012987 180.640562 
L 249.428571 173.825816 
L 251.844156 168.182984 
L 254.25974 163.712432 
L 256.675325 160.165281 
L 261.506494 153.942262 
L 263.922078 150.21598 
L 266.337662 145.581774 
L 268.753247 139.967819 
L 271.168831 133.573406 
L 276 120.167972 
L 278.415584 114.113521 
L 280.831169 108.944613 
L 283.246753 104.750202 
L 285.662338 101.418463 
L 288.077922 98.709778 
L 290.493506 96.367163 
L 292.909091 94.228287 
L 295.324675 92.301372 
L 297.74026 90.778332 
L 300.155844 89.980177 
L 302.571429 90.253899 
L 304.987013 91.857145 
L 307.402597 94.870117 
L 309.818182 99.162452 
L 312.233766 104.422312 
L 319.480519 121.942277 
L 321.896104 127.347043 
L 326.727273 137.224132 
L 331.558442 146.91175 
L 341.220779 167.365261 
L 343.636364 171.741614 
L 346.051948 175.283925 
L 348.467532 177.776837 
L 350.883117 179.107332 
L 353.298701 179.293623 
L 355.714286 178.493696 
L 358.12987 176.984624 
L 362.961039 173.205343 
L 365.376623 171.518855 
L 367.792208 170.152941 
L 372.623377 167.969277 
L 375.038961 166.636309 
L 377.454545 164.738452 
L 379.87013 162.059713 
L 382.285714 158.548579 
L 384.701299 154.363664 
L 389.532468 145.615453 
L 391.948052 142.191967 
L 394.363636 140.170189 
L 396.779221 139.962174 
L 399.194805 141.741854 
L 401.61039 145.410848 
L 404.025974 150.622496 
L 406.441558 156.854768 
L 411.272727 170.018714 
L 413.688312 175.924432 
L 416.103896 180.943015 
L 418.519481 184.980424 
L 420.935065 188.111155 
L 423.350649 190.525112 
L 425.766234 192.460544 
L 430.597403 195.725328 
L 435.428571 198.803104 
L 437.844156 200.181797 
L 440.25974 201.283093 
L 442.675325 201.957268 
L 445.090909 202.079197 
L 447.506494 201.582552 
L 449.922078 200.489218 
L 452.337662 198.92534 
L 457.168831 195.33726 
L 459.584416 193.883896 
L 462 192.989019 
L 464.415584 192.799814 
L 466.831169 193.368651 
L 469.246753 194.67074 
L 471.662338 196.632911 
L 474.077922 199.162952 
L 476.493506 202.17476 
L 478.909091 205.607307 
L 481.324675 209.435494 
L 483.74026 213.670989 
L 486.155844 218.351269 
L 488.571429 223.515228 
L 490.987013 229.166847 
L 495.818182 241.545207 
L 498.233766 247.812113 
L 500.649351 253.666759 
L 503.064935 258.707404 
L 505.480519 262.567747 
L 507.896104 264.985371 
L 510.311688 265.853755 
L 512.727273 265.245055 
L 515.142857 263.400099 
L 517.558442 260.690916 
L 522.38961 254.470764 
L 524.805195 251.794963 
L 527.220779 249.789797 
L 529.636364 248.543164 
L 532.051948 247.980697 
L 534.467532 247.906959 
L 541.714286 248.306211 
L 544.12987 248.18418 
L 551.376623 247.548528 
L 553.792208 247.631686 
L 556.207792 247.986324 
L 558.623377 248.594865 
L 565.87013 250.842473 
L 568.285714 251.191946 
L 570.701299 251.09132 
L 573.116883 250.474226 
L 575.532468 249.360543 
L 577.948052 247.847467 
L 582.779221 244.172517 
L 587.61039 240.218228 
L 590.025974 238.107183 
L 592.441558 235.805668 
L 594.857143 233.266807 
L 604.519481 222.3702 
L 606.935065 220.23156 
L 609.350649 218.540967 
L 611.766234 217.26586 
L 616.597403 215.427614 
L 619.012987 214.491778 
L 621.428571 213.317448 
L 623.844156 211.813844 
L 626.25974 209.980057 
L 635.922078 201.757052 
L 638.337662 200.225936 
L 640.753247 199.023197 
L 648 196.079153 
L 648 196.079153 
" style="fill:none;stroke:#0000ff;stroke-linecap:square;stroke-width:1.5;"/>
   </g>
  </g>
 </g>
 <defs>
  <clipPath id="paad633ed49">
   <rect height="326.16" width="558" x="90" y="51.84"/>
  </clipPath>
 </defs>
</svg>
